<ttFont>
    <TTGlyph name=".notdef" xMin="90" yMin="2" xMax="580" yMax="818">
      <contour>
        <pt x="559" y="815" on="1"/>
        <pt x="572" y="814" on="0"/>
        <pt x="580" y="792" on="0"/>
        <pt x="580" y="780" on="1"/>
        <pt x="579" y="688" on="0"/>
        <pt x="578" y="507" on="0"/>
        <pt x="577" y="324" on="0"/>
        <pt x="577" y="136" on="0"/>
        <pt x="577" y="37" on="1"/>
        <pt x="577" y="16" on="0"/>
        <pt x="567" y="2" on="0"/>
        <pt x="558" y="2" on="1"/>
        <pt x="112" y="2" on="1"/>
        <pt x="103" y="2" on="0"/>
        <pt x="93" y="16" on="0"/>
        <pt x="93" y="37" on="1"/>
        <pt x="93" y="136" on="0"/>
        <pt x="93" y="324" on="0"/>
        <pt x="92" y="507" on="0"/>
        <pt x="91" y="688" on="0"/>
        <pt x="90" y="780" on="1"/>
        <pt x="90" y="792" on="0"/>
        <pt x="98" y="814" on="0"/>
        <pt x="113" y="815" on="1"/>
        <pt x="129" y="816" on="0"/>
        <pt x="183" y="817" on="0"/>
        <pt x="240" y="818" on="0"/>
        <pt x="291" y="818" on="0"/>
        <pt x="304" y="818" on="1"/>
        <pt x="326" y="818" on="0"/>
        <pt x="399" y="818" on="0"/>
        <pt x="475" y="817" on="0"/>
        <pt x="542" y="816" on="0"/>
      </contour>
      <contour>
        <pt x="529" y="24" on="1"/>
        <pt x="548" y="24" on="0"/>
        <pt x="548" y="45" on="1"/>
        <pt x="548" y="762" on="1"/>
        <pt x="548" y="779" on="0"/>
        <pt x="536" y="789" on="0"/>
        <pt x="519" y="789" on="1"/>
        <pt x="150" y="789" on="1"/>
        <pt x="133" y="789" on="0"/>
        <pt x="122" y="776" on="0"/>
        <pt x="122" y="756" on="1"/>
        <pt x="122" y="42" on="1"/>
        <pt x="122" y="31" on="0"/>
        <pt x="130" y="24" on="0"/>
        <pt x="141" y="24" on="1"/>
      </contour>
      <contour>
        <pt x="453" y="177" on="1"/>
        <pt x="453" y="153" on="0"/>
        <pt x="431" y="153" on="1"/>
        <pt x="427" y="153" on="0"/>
        <pt x="412" y="171" on="0"/>
        <pt x="388" y="201" on="0"/>
        <pt x="356" y="241" on="0"/>
        <pt x="335" y="264" on="1"/>
        <pt x="327" y="258" on="0"/>
        <pt x="298" y="220" on="0"/>
        <pt x="265" y="181" on="0"/>
        <pt x="233" y="150" on="0"/>
        <pt x="221" y="150" on="1"/>
        <pt x="208" y="150" on="0"/>
        <pt x="208" y="165" on="1"/>
        <pt x="208" y="174" on="0"/>
        <pt x="226" y="192" on="0"/>
        <pt x="234" y="203" on="1"/>
        <pt x="259" y="234" on="0"/>
        <pt x="283" y="262" on="0"/>
        <pt x="295" y="276" on="0"/>
        <pt x="302" y="284" on="0"/>
        <pt x="311" y="296" on="1"/>
        <pt x="279" y="338" on="0"/>
        <pt x="236" y="395" on="0"/>
        <pt x="209" y="430" on="0"/>
        <pt x="197" y="448" on="0"/>
        <pt x="197" y="452" on="1"/>
        <pt x="197" y="458" on="0"/>
        <pt x="209" y="469" on="0"/>
        <pt x="215" y="469" on="1"/>
        <pt x="227" y="469" on="0"/>
        <pt x="251" y="438" on="0"/>
        <pt x="266" y="418" on="1"/>
        <pt x="270" y="413" on="0"/>
        <pt x="303" y="370" on="0"/>
        <pt x="335" y="328" on="1"/>
        <pt x="384" y="397" on="1"/>
        <pt x="404" y="425" on="0"/>
        <pt x="428" y="450" on="0"/>
        <pt x="439" y="450" on="1"/>
        <pt x="444" y="450" on="0"/>
        <pt x="454" y="441" on="0"/>
        <pt x="454" y="433" on="1"/>
        <pt x="454" y="425" on="0"/>
        <pt x="448" y="418" on="1"/>
        <pt x="424" y="389" on="0"/>
        <pt x="379" y="326" on="0"/>
        <pt x="358" y="297" on="1"/>
        <pt x="378" y="274" on="0"/>
        <pt x="413" y="233" on="0"/>
        <pt x="438" y="201" on="0"/>
        <pt x="453" y="180" on="0"/>
      </contour>
    </TTGlyph>
    <TTGlyph name=".ttfautohint" xMin="0" yMin="0" xMax="0" yMax="0">
      <contour>
        <pt x="0" y="0" on="1"/>
      </contour>
    </TTGlyph>
    <TTGlyph name="A" xMin="-50" yMin="-55" xMax="721" yMax="835">
      <contour>
        <pt x="582" y="3" on="1"/>
        <pt x="587" y="-17" on="0"/>
        <pt x="637" y="-29" on="0"/>
        <pt x="685" y="-29" on="1"/>
        <pt x="699" y="-29" on="0"/>
        <pt x="721" y="-32" on="0"/>
        <pt x="721" y="-41" on="1"/>
        <pt x="721" y="-55" on="0"/>
        <pt x="686" y="-55" on="1"/>
        <pt x="473" y="-55" on="1"/>
        <pt x="455" y="-55" on="0"/>
        <pt x="442" y="-49" on="0"/>
        <pt x="442" y="-41" on="1"/>
        <pt x="442" y="-32" on="0"/>
        <pt x="472" y="-27" on="0"/>
        <pt x="508" y="-25" on="0"/>
        <pt x="538" y="-17" on="0"/>
        <pt x="538" y="-5" on="1"/>
        <pt x="538" y="1" on="0"/>
        <pt x="530" y="37" on="0"/>
        <pt x="518" y="85" on="0"/>
        <pt x="504" y="140" on="0"/>
        <pt x="490" y="189" on="0"/>
        <pt x="479" y="229" on="0"/>
        <pt x="477" y="238" on="1"/>
        <pt x="206" y="238" on="1"/>
        <pt x="199" y="214" on="0"/>
        <pt x="181" y="156" on="0"/>
        <pt x="165" y="101" on="0"/>
        <pt x="154" y="56" on="0"/>
        <pt x="154" y="45" on="1"/>
        <pt x="154" y="38" on="0"/>
        <pt x="168" y="32" on="0"/>
        <pt x="189" y="29" on="0"/>
        <pt x="214" y="29" on="0"/>
        <pt x="225" y="29" on="1"/>
        <pt x="235" y="29" on="0"/>
        <pt x="259" y="26" on="0"/>
        <pt x="259" y="15" on="1"/>
        <pt x="259" y="10" on="0"/>
        <pt x="245" y="0" on="0"/>
        <pt x="225" y="0" on="1"/>
        <pt x="-27" y="0" on="1"/>
        <pt x="-36" y="0" on="0"/>
        <pt x="-50" y="6" on="0"/>
        <pt x="-50" y="14" on="1"/>
        <pt x="-50" y="25" on="0"/>
        <pt x="-30" y="25" on="1"/>
        <pt x="-20" y="25" on="0"/>
        <pt x="9" y="27" on="0"/>
        <pt x="36" y="29" on="0"/>
        <pt x="57" y="31" on="0"/>
        <pt x="61" y="31" on="1"/>
        <pt x="83" y="33" on="0"/>
        <pt x="103" y="51" on="0"/>
        <pt x="110" y="69" on="1"/>
        <pt x="125" y="112" on="0"/>
        <pt x="164" y="237" on="0"/>
        <pt x="204" y="381" on="0"/>
        <pt x="245" y="532" on="0"/>
        <pt x="283" y="669" on="0"/>
        <pt x="314" y="782" on="0"/>
        <pt x="324" y="816" on="1"/>
        <pt x="326" y="824" on="0"/>
        <pt x="337" y="835" on="0"/>
        <pt x="345" y="835" on="1"/>
        <pt x="350" y="835" on="0"/>
        <pt x="362" y="827" on="0"/>
        <pt x="365" y="816" on="1"/>
      </contour>
      <contour>
        <pt x="343" y="755" on="1"/>
        <pt x="339" y="735" on="0"/>
        <pt x="321" y="664" on="0"/>
        <pt x="297" y="578" on="0"/>
        <pt x="271" y="481" on="0"/>
        <pt x="246" y="388" on="0"/>
        <pt x="225" y="304" on="0"/>
        <pt x="218" y="274" on="1"/>
        <pt x="249" y="273" on="0"/>
        <pt x="309" y="272" on="0"/>
        <pt x="340" y="272" on="1"/>
        <pt x="371" y="272" on="0"/>
        <pt x="434" y="273" on="0"/>
        <pt x="465" y="274" on="1"/>
        <pt x="453" y="323" on="0"/>
        <pt x="423" y="445" on="0"/>
        <pt x="390" y="573" on="0"/>
        <pt x="358" y="700" on="0"/>
      </contour>
    </TTGlyph>
    <TTGlyph name="AE" xMin="-40" yMin="0" xMax="985" yMax="821">
      <contour>
        <pt x="966" y="310" on="1"/>
        <pt x="980" y="310" on="0"/>
        <pt x="985" y="289" on="0"/>
        <pt x="985" y="277" on="1"/>
        <pt x="985" y="268" on="0"/>
        <pt x="982" y="213" on="0"/>
        <pt x="977" y="141" on="0"/>
        <pt x="972" y="63" on="0"/>
        <pt x="969" y="33" on="1"/>
        <pt x="967" y="8" on="0"/>
        <pt x="947" y="0" on="0"/>
        <pt x="927" y="0" on="1"/>
        <pt x="866" y="0" on="0"/>
        <pt x="751" y="2" on="0"/>
        <pt x="690" y="2" on="1"/>
        <pt x="629" y="2" on="0"/>
        <pt x="508" y="1" on="0"/>
        <pt x="447" y="0" on="1"/>
        <pt x="432" y="0" on="0"/>
        <pt x="401" y="3" on="0"/>
        <pt x="401" y="11" on="1"/>
        <pt x="401" y="22" on="0"/>
        <pt x="420" y="28" on="0"/>
        <pt x="440" y="28" on="1"/>
        <pt x="487" y="28" on="0"/>
        <pt x="521" y="43" on="0"/>
        <pt x="521" y="64" on="1"/>
        <pt x="521" y="93" on="0"/>
        <pt x="521" y="139" on="0"/>
        <pt x="522" y="180" on="0"/>
        <pt x="522" y="217" on="0"/>
        <pt x="522" y="238" on="1"/>
        <pt x="268" y="238" on="1"/>
        <pt x="256" y="214" on="0"/>
        <pt x="223" y="152" on="0"/>
        <pt x="193" y="95" on="0"/>
        <pt x="173" y="51" on="0"/>
        <pt x="173" y="45" on="1"/>
        <pt x="173" y="38" on="0"/>
        <pt x="186" y="32" on="0"/>
        <pt x="205" y="29" on="0"/>
        <pt x="229" y="29" on="0"/>
        <pt x="240" y="29" on="1"/>
        <pt x="250" y="29" on="0"/>
        <pt x="271" y="26" on="0"/>
        <pt x="271" y="15" on="1"/>
        <pt x="271" y="10" on="0"/>
        <pt x="254" y="0" on="0"/>
        <pt x="234" y="0" on="1"/>
        <pt x="202" y="0" on="0"/>
        <pt x="137" y="2" on="0"/>
        <pt x="105" y="2" on="1"/>
        <pt x="73" y="2" on="0"/>
        <pt x="12" y="1" on="0"/>
        <pt x="-20" y="0" on="1"/>
        <pt x="-40" y="0" on="0"/>
        <pt x="-40" y="14" on="1"/>
        <pt x="-40" y="25" on="0"/>
        <pt x="-18" y="25" on="1"/>
        <pt x="-7" y="25" on="0"/>
        <pt x="22" y="27" on="0"/>
        <pt x="49" y="29" on="0"/>
        <pt x="70" y="31" on="0"/>
        <pt x="74" y="31" on="1"/>
        <pt x="96" y="33" on="0"/>
        <pt x="120" y="51" on="0"/>
        <pt x="131" y="69" on="1"/>
        <pt x="154" y="110" on="0"/>
        <pt x="215" y="226" on="0"/>
        <pt x="282" y="358" on="0"/>
        <pt x="352" y="499" on="0"/>
        <pt x="417" y="631" on="0"/>
        <pt x="473" y="744" on="0"/>
        <pt x="493" y="783" on="1"/>
        <pt x="482" y="788" on="0"/>
        <pt x="455" y="789" on="0"/>
        <pt x="444" y="789" on="1"/>
        <pt x="427" y="789" on="0"/>
        <pt x="404" y="793" on="0"/>
        <pt x="404" y="804" on="1"/>
        <pt x="404" y="815" on="0"/>
        <pt x="430" y="821" on="0"/>
        <pt x="445" y="821" on="1"/>
        <pt x="478" y="821" on="0"/>
        <pt x="548" y="820" on="0"/>
        <pt x="612" y="820" on="0"/>
        <pt x="667" y="819" on="0"/>
        <pt x="686" y="819" on="1"/>
        <pt x="723" y="819" on="0"/>
        <pt x="770" y="820" on="0"/>
        <pt x="815" y="820" on="0"/>
        <pt x="869" y="821" on="0"/>
        <pt x="913" y="821" on="1"/>
        <pt x="927" y="821" on="0"/>
        <pt x="941" y="806" on="0"/>
        <pt x="941" y="785" on="1"/>
        <pt x="941" y="651" on="1"/>
        <pt x="941" y="632" on="0"/>
        <pt x="935" y="605" on="0"/>
        <pt x="924" y="605" on="1"/>
        <pt x="909" y="605" on="0"/>
        <pt x="904" y="631" on="0"/>
        <pt x="904" y="645" on="1"/>
        <pt x="904" y="757" on="1"/>
        <pt x="904" y="776" on="0"/>
        <pt x="877" y="785" on="0"/>
        <pt x="867" y="785" on="1"/>
        <pt x="564" y="785" on="1"/>
        <pt x="564" y="440" on="1"/>
        <pt x="593" y="439" on="0"/>
        <pt x="649" y="437" on="0"/>
        <pt x="678" y="437" on="1"/>
        <pt x="692" y="437" on="0"/>
        <pt x="726" y="438" on="0"/>
        <pt x="757" y="439" on="0"/>
        <pt x="781" y="440" on="0"/>
        <pt x="786" y="440" on="1"/>
        <pt x="792" y="440" on="0"/>
        <pt x="799" y="461" on="0"/>
        <pt x="802" y="490" on="0"/>
        <pt x="803" y="521" on="0"/>
        <pt x="803" y="530" on="1"/>
        <pt x="803" y="531" on="0"/>
        <pt x="804" y="541" on="0"/>
        <pt x="807" y="552" on="0"/>
        <pt x="814" y="560" on="0"/>
        <pt x="820" y="560" on="1"/>
        <pt x="832" y="560" on="0"/>
        <pt x="837" y="544" on="0"/>
        <pt x="837" y="533" on="1"/>
        <pt x="837" y="504" on="0"/>
        <pt x="835" y="449" on="0"/>
        <pt x="835" y="420" on="1"/>
        <pt x="835" y="391" on="0"/>
        <pt x="837" y="335" on="0"/>
        <pt x="837" y="307" on="1"/>
        <pt x="837" y="290" on="0"/>
        <pt x="826" y="280" on="0"/>
        <pt x="822" y="280" on="1"/>
        <pt x="815" y="280" on="0"/>
        <pt x="805" y="296" on="0"/>
        <pt x="805" y="309" on="1"/>
        <pt x="805" y="322" on="0"/>
        <pt x="801" y="355" on="0"/>
        <pt x="791" y="383" on="0"/>
        <pt x="772" y="402" on="0"/>
        <pt x="757" y="402" on="1"/>
        <pt x="743" y="402" on="0"/>
        <pt x="707" y="403" on="0"/>
        <pt x="678" y="403" on="1"/>
        <pt x="649" y="403" on="0"/>
        <pt x="593" y="402" on="0"/>
        <pt x="564" y="401" on="1"/>
        <pt x="564" y="36" on="1"/>
        <pt x="893" y="36" on="1"/>
        <pt x="900" y="36" on="0"/>
        <pt x="915" y="38" on="0"/>
        <pt x="927" y="45" on="0"/>
        <pt x="935" y="60" on="0"/>
        <pt x="936" y="73" on="1"/>
        <pt x="937" y="86" on="0"/>
        <pt x="941" y="137" on="0"/>
        <pt x="945" y="195" on="0"/>
        <pt x="948" y="252" on="0"/>
        <pt x="949" y="273" on="1"/>
        <pt x="950" y="293" on="0"/>
        <pt x="961" y="310" on="0"/>
      </contour>
      <contour>
        <pt x="406" y="272" on="1"/>
        <pt x="435" y="272" on="0"/>
        <pt x="493" y="272" on="0"/>
        <pt x="522" y="273" on="1"/>
        <pt x="523" y="302" on="0"/>
        <pt x="523" y="374" on="0"/>
        <pt x="523" y="425" on="1"/>
        <pt x="523" y="481" on="0"/>
        <pt x="521" y="571" on="0"/>
        <pt x="519" y="648" on="0"/>
        <pt x="517" y="716" on="0"/>
        <pt x="517" y="750" on="1"/>
        <pt x="517" y="754" on="1"/>
        <pt x="508" y="734" on="0"/>
        <pt x="474" y="663" on="0"/>
        <pt x="432" y="577" on="0"/>
        <pt x="386" y="481" on="0"/>
        <pt x="341" y="388" on="0"/>
        <pt x="301" y="304" on="0"/>
        <pt x="288" y="274" on="1"/>
        <pt x="318" y="274" on="0"/>
        <pt x="374" y="272" on="0"/>
      </contour>
    </TTGlyph>
    <TTGlyph name="AEacute" xMin="-40" yMin="0" xMax="985" yMax="972">
      <contour>
        <pt x="644" y="950" on="1"/>
        <pt x="644" y="942" on="0"/>
        <pt x="616" y="917" on="0"/>
        <pt x="580" y="893" on="0"/>
        <pt x="545" y="876" on="0"/>
        <pt x="538" y="876" on="1"/>
        <pt x="530" y="876" on="0"/>
        <pt x="530" y="887" on="1"/>
        <pt x="530" y="896" on="0"/>
        <pt x="554" y="925" on="0"/>
        <pt x="586" y="952" on="0"/>
        <pt x="618" y="972" on="0"/>
        <pt x="625" y="972" on="1"/>
        <pt x="633" y="972" on="0"/>
        <pt x="644" y="964" on="0"/>
      </contour>
      <contour>
        <pt x="966" y="310" on="1"/>
        <pt x="980" y="310" on="0"/>
        <pt x="985" y="289" on="0"/>
        <pt x="985" y="277" on="1"/>
        <pt x="985" y="268" on="0"/>
        <pt x="982" y="213" on="0"/>
        <pt x="977" y="141" on="0"/>
        <pt x="972" y="63" on="0"/>
        <pt x="969" y="33" on="1"/>
        <pt x="967" y="8" on="0"/>
        <pt x="947" y="0" on="0"/>
        <pt x="927" y="0" on="1"/>
        <pt x="866" y="0" on="0"/>
        <pt x="751" y="2" on="0"/>
        <pt x="690" y="2" on="1"/>
        <pt x="629" y="2" on="0"/>
        <pt x="508" y="1" on="0"/>
        <pt x="447" y="0" on="1"/>
        <pt x="432" y="0" on="0"/>
        <pt x="401" y="3" on="0"/>
        <pt x="401" y="11" on="1"/>
        <pt x="401" y="22" on="0"/>
        <pt x="420" y="28" on="0"/>
        <pt x="440" y="28" on="1"/>
        <pt x="487" y="28" on="0"/>
        <pt x="521" y="43" on="0"/>
        <pt x="521" y="64" on="1"/>
        <pt x="521" y="93" on="0"/>
        <pt x="521" y="139" on="0"/>
        <pt x="522" y="180" on="0"/>
        <pt x="522" y="217" on="0"/>
        <pt x="522" y="238" on="1"/>
        <pt x="268" y="238" on="1"/>
        <pt x="256" y="214" on="0"/>
        <pt x="223" y="152" on="0"/>
        <pt x="193" y="95" on="0"/>
        <pt x="173" y="51" on="0"/>
        <pt x="173" y="45" on="1"/>
        <pt x="173" y="38" on="0"/>
        <pt x="186" y="32" on="0"/>
        <pt x="205" y="29" on="0"/>
        <pt x="229" y="29" on="0"/>
        <pt x="240" y="29" on="1"/>
        <pt x="250" y="29" on="0"/>
        <pt x="271" y="26" on="0"/>
        <pt x="271" y="15" on="1"/>
        <pt x="271" y="10" on="0"/>
        <pt x="254" y="0" on="0"/>
        <pt x="234" y="0" on="1"/>
        <pt x="202" y="0" on="0"/>
        <pt x="137" y="2" on="0"/>
        <pt x="105" y="2" on="1"/>
        <pt x="73" y="2" on="0"/>
        <pt x="12" y="1" on="0"/>
        <pt x="-20" y="0" on="1"/>
        <pt x="-40" y="0" on="0"/>
        <pt x="-40" y="14" on="1"/>
        <pt x="-40" y="25" on="0"/>
        <pt x="-18" y="25" on="1"/>
        <pt x="-7" y="25" on="0"/>
        <pt x="22" y="27" on="0"/>
        <pt x="49" y="29" on="0"/>
        <pt x="70" y="31" on="0"/>
        <pt x="74" y="31" on="1"/>
        <pt x="96" y="33" on="0"/>
        <pt x="120" y="51" on="0"/>
        <pt x="131" y="69" on="1"/>
        <pt x="154" y="110" on="0"/>
        <pt x="215" y="226" on="0"/>
        <pt x="282" y="358" on="0"/>
        <pt x="352" y="499" on="0"/>
        <pt x="417" y="631" on="0"/>
        <pt x="473" y="744" on="0"/>
        <pt x="493" y="783" on="1"/>
        <pt x="482" y="788" on="0"/>
        <pt x="455" y="789" on="0"/>
        <pt x="444" y="789" on="1"/>
        <pt x="427" y="789" on="0"/>
        <pt x="404" y="793" on="0"/>
        <pt x="404" y="804" on="1"/>
        <pt x="404" y="815" on="0"/>
        <pt x="430" y="821" on="0"/>
        <pt x="445" y="821" on="1"/>
        <pt x="478" y="821" on="0"/>
        <pt x="548" y="820" on="0"/>
        <pt x="612" y="820" on="0"/>
        <pt x="667" y="819" on="0"/>
        <pt x="686" y="819" on="1"/>
        <pt x="723" y="819" on="0"/>
        <pt x="770" y="820" on="0"/>
        <pt x="815" y="820" on="0"/>
        <pt x="869" y="821" on="0"/>
        <pt x="913" y="821" on="1"/>
        <pt x="927" y="821" on="0"/>
        <pt x="941" y="806" on="0"/>
        <pt x="941" y="785" on="1"/>
        <pt x="941" y="651" on="1"/>
        <pt x="941" y="632" on="0"/>
        <pt x="935" y="605" on="0"/>
        <pt x="924" y="605" on="1"/>
        <pt x="909" y="605" on="0"/>
        <pt x="904" y="631" on="0"/>
        <pt x="904" y="645" on="1"/>
        <pt x="904" y="757" on="1"/>
        <pt x="904" y="776" on="0"/>
        <pt x="877" y="785" on="0"/>
        <pt x="867" y="785" on="1"/>
        <pt x="564" y="785" on="1"/>
        <pt x="564" y="440" on="1"/>
        <pt x="593" y="439" on="0"/>
        <pt x="649" y="437" on="0"/>
        <pt x="678" y="437" on="1"/>
        <pt x="692" y="437" on="0"/>
        <pt x="726" y="438" on="0"/>
        <pt x="757" y="439" on="0"/>
        <pt x="781" y="440" on="0"/>
        <pt x="786" y="440" on="1"/>
        <pt x="792" y="440" on="0"/>
        <pt x="799" y="461" on="0"/>
        <pt x="802" y="490" on="0"/>
        <pt x="803" y="521" on="0"/>
        <pt x="803" y="530" on="1"/>
        <pt x="803" y="531" on="0"/>
        <pt x="804" y="541" on="0"/>
        <pt x="807" y="552" on="0"/>
        <pt x="814" y="560" on="0"/>
        <pt x="820" y="560" on="1"/>
        <pt x="832" y="560" on="0"/>
        <pt x="837" y="544" on="0"/>
        <pt x="837" y="533" on="1"/>
        <pt x="837" y="504" on="0"/>
        <pt x="835" y="449" on="0"/>
        <pt x="835" y="420" on="1"/>
        <pt x="835" y="391" on="0"/>
        <pt x="837" y="335" on="0"/>
        <pt x="837" y="307" on="1"/>
        <pt x="837" y="290" on="0"/>
        <pt x="826" y="280" on="0"/>
        <pt x="822" y="280" on="1"/>
        <pt x="815" y="280" on="0"/>
        <pt x="805" y="296" on="0"/>
        <pt x="805" y="309" on="1"/>
        <pt x="805" y="322" on="0"/>
        <pt x="801" y="355" on="0"/>
        <pt x="791" y="383" on="0"/>
        <pt x="772" y="402" on="0"/>
        <pt x="757" y="402" on="1"/>
        <pt x="743" y="402" on="0"/>
        <pt x="707" y="403" on="0"/>
        <pt x="678" y="403" on="1"/>
        <pt x="649" y="403" on="0"/>
        <pt x="593" y="402" on="0"/>
        <pt x="564" y="401" on="1"/>
        <pt x="564" y="36" on="1"/>
        <pt x="893" y="36" on="1"/>
        <pt x="900" y="36" on="0"/>
        <pt x="915" y="38" on="0"/>
        <pt x="927" y="45" on="0"/>
        <pt x="935" y="60" on="0"/>
        <pt x="936" y="73" on="1"/>
        <pt x="937" y="86" on="0"/>
        <pt x="941" y="137" on="0"/>
        <pt x="945" y="195" on="0"/>
        <pt x="948" y="252" on="0"/>
        <pt x="949" y="273" on="1"/>
        <pt x="950" y="293" on="0"/>
        <pt x="961" y="310" on="0"/>
      </contour>
      <contour>
        <pt x="406" y="272" on="1"/>
        <pt x="435" y="272" on="0"/>
        <pt x="493" y="272" on="0"/>
        <pt x="522" y="273" on="1"/>
        <pt x="523" y="302" on="0"/>
        <pt x="523" y="374" on="0"/>
        <pt x="523" y="425" on="1"/>
        <pt x="523" y="481" on="0"/>
        <pt x="521" y="571" on="0"/>
        <pt x="519" y="648" on="0"/>
        <pt x="517" y="716" on="0"/>
        <pt x="517" y="750" on="1"/>
        <pt x="517" y="754" on="1"/>
        <pt x="508" y="734" on="0"/>
        <pt x="474" y="663" on="0"/>
        <pt x="432" y="577" on="0"/>
        <pt x="386" y="481" on="0"/>
        <pt x="341" y="388" on="0"/>
        <pt x="301" y="304" on="0"/>
        <pt x="288" y="274" on="1"/>
        <pt x="318" y="274" on="0"/>
        <pt x="374" y="272" on="0"/>
      </contour>
    </TTGlyph>
    <TTGlyph name="Aacute" xMin="-50" yMin="-55" xMax="721" yMax="972">
      <contour>
        <pt x="401" y="950" on="1"/>
        <pt x="401" y="942" on="0"/>
        <pt x="373" y="917" on="0"/>
        <pt x="337" y="893" on="0"/>
        <pt x="302" y="875" on="0"/>
        <pt x="295" y="875" on="1"/>
        <pt x="287" y="875" on="0"/>
        <pt x="287" y="886" on="1"/>
        <pt x="287" y="895" on="0"/>
        <pt x="311" y="925" on="0"/>
        <pt x="343" y="952" on="0"/>
        <pt x="375" y="972" on="0"/>
        <pt x="382" y="972" on="1"/>
        <pt x="390" y="972" on="0"/>
        <pt x="401" y="964" on="0"/>
      </contour>
      <contour>
        <pt x="582" y="3" on="1"/>
        <pt x="587" y="-17" on="0"/>
        <pt x="637" y="-29" on="0"/>
        <pt x="685" y="-29" on="1"/>
        <pt x="699" y="-29" on="0"/>
        <pt x="721" y="-32" on="0"/>
        <pt x="721" y="-41" on="1"/>
        <pt x="721" y="-55" on="0"/>
        <pt x="686" y="-55" on="1"/>
        <pt x="473" y="-55" on="1"/>
        <pt x="455" y="-55" on="0"/>
        <pt x="442" y="-49" on="0"/>
        <pt x="442" y="-41" on="1"/>
        <pt x="442" y="-32" on="0"/>
        <pt x="472" y="-27" on="0"/>
        <pt x="508" y="-25" on="0"/>
        <pt x="538" y="-17" on="0"/>
        <pt x="538" y="-5" on="1"/>
        <pt x="538" y="1" on="0"/>
        <pt x="530" y="37" on="0"/>
        <pt x="518" y="85" on="0"/>
        <pt x="504" y="140" on="0"/>
        <pt x="490" y="189" on="0"/>
        <pt x="479" y="229" on="0"/>
        <pt x="477" y="238" on="1"/>
        <pt x="206" y="238" on="1"/>
        <pt x="199" y="214" on="0"/>
        <pt x="181" y="156" on="0"/>
        <pt x="165" y="101" on="0"/>
        <pt x="154" y="56" on="0"/>
        <pt x="154" y="45" on="1"/>
        <pt x="154" y="38" on="0"/>
        <pt x="168" y="32" on="0"/>
        <pt x="189" y="29" on="0"/>
        <pt x="214" y="29" on="0"/>
        <pt x="225" y="29" on="1"/>
        <pt x="235" y="29" on="0"/>
        <pt x="259" y="26" on="0"/>
        <pt x="259" y="15" on="1"/>
        <pt x="259" y="10" on="0"/>
        <pt x="245" y="0" on="0"/>
        <pt x="225" y="0" on="1"/>
        <pt x="-27" y="0" on="1"/>
        <pt x="-36" y="0" on="0"/>
        <pt x="-50" y="6" on="0"/>
        <pt x="-50" y="14" on="1"/>
        <pt x="-50" y="25" on="0"/>
        <pt x="-30" y="25" on="1"/>
        <pt x="-20" y="25" on="0"/>
        <pt x="9" y="27" on="0"/>
        <pt x="36" y="29" on="0"/>
        <pt x="57" y="31" on="0"/>
        <pt x="61" y="31" on="1"/>
        <pt x="83" y="33" on="0"/>
        <pt x="103" y="51" on="0"/>
        <pt x="110" y="69" on="1"/>
        <pt x="125" y="112" on="0"/>
        <pt x="164" y="237" on="0"/>
        <pt x="204" y="381" on="0"/>
        <pt x="245" y="532" on="0"/>
        <pt x="283" y="669" on="0"/>
        <pt x="314" y="782" on="0"/>
        <pt x="324" y="816" on="1"/>
        <pt x="326" y="824" on="0"/>
        <pt x="337" y="835" on="0"/>
        <pt x="345" y="835" on="1"/>
        <pt x="350" y="835" on="0"/>
        <pt x="362" y="827" on="0"/>
        <pt x="365" y="816" on="1"/>
      </contour>
      <contour>
        <pt x="343" y="755" on="1"/>
        <pt x="339" y="735" on="0"/>
        <pt x="321" y="664" on="0"/>
        <pt x="297" y="578" on="0"/>
        <pt x="271" y="481" on="0"/>
        <pt x="246" y="388" on="0"/>
        <pt x="225" y="304" on="0"/>
        <pt x="218" y="274" on="1"/>
        <pt x="249" y="273" on="0"/>
        <pt x="309" y="272" on="0"/>
        <pt x="340" y="272" on="1"/>
        <pt x="371" y="272" on="0"/>
        <pt x="434" y="273" on="0"/>
        <pt x="465" y="274" on="1"/>
        <pt x="453" y="323" on="0"/>
        <pt x="423" y="445" on="0"/>
        <pt x="390" y="573" on="0"/>
        <pt x="358" y="700" on="0"/>
      </contour>
    </TTGlyph>
    <TTGlyph name="Abreve" xMin="-50" yMin="-55" xMax="721" yMax="972">
      <contour>
        <pt x="458" y="948" on="1"/>
        <pt x="458" y="930" on="0"/>
        <pt x="438" y="902" on="0"/>
        <pt x="406" y="884" on="0"/>
        <pt x="366" y="875" on="0"/>
        <pt x="347" y="875" on="1"/>
        <pt x="302" y="875" on="0"/>
        <pt x="239" y="918" on="0"/>
        <pt x="239" y="948" on="1"/>
        <pt x="239" y="972" on="0"/>
        <pt x="256" y="972" on="1"/>
        <pt x="267" y="972" on="0"/>
        <pt x="273" y="961" on="0"/>
        <pt x="273" y="949" on="1"/>
        <pt x="273" y="934" on="0"/>
        <pt x="285" y="914" on="0"/>
        <pt x="306" y="904" on="0"/>
        <pt x="333" y="900" on="0"/>
        <pt x="347" y="900" on="1"/>
        <pt x="360" y="900" on="0"/>
        <pt x="387" y="908" on="0"/>
        <pt x="409" y="921" on="0"/>
        <pt x="422" y="939" on="0"/>
        <pt x="422" y="949" on="1"/>
        <pt x="422" y="972" on="0"/>
        <pt x="439" y="972" on="1"/>
        <pt x="447" y="972" on="0"/>
        <pt x="458" y="964" on="0"/>
      </contour>
      <contour>
        <pt x="582" y="3" on="1"/>
        <pt x="587" y="-17" on="0"/>
        <pt x="637" y="-29" on="0"/>
        <pt x="685" y="-29" on="1"/>
        <pt x="699" y="-29" on="0"/>
        <pt x="721" y="-32" on="0"/>
        <pt x="721" y="-41" on="1"/>
        <pt x="721" y="-55" on="0"/>
        <pt x="686" y="-55" on="1"/>
        <pt x="473" y="-55" on="1"/>
        <pt x="455" y="-55" on="0"/>
        <pt x="442" y="-49" on="0"/>
        <pt x="442" y="-41" on="1"/>
        <pt x="442" y="-32" on="0"/>
        <pt x="472" y="-27" on="0"/>
        <pt x="508" y="-25" on="0"/>
        <pt x="538" y="-17" on="0"/>
        <pt x="538" y="-5" on="1"/>
        <pt x="538" y="1" on="0"/>
        <pt x="530" y="37" on="0"/>
        <pt x="518" y="85" on="0"/>
        <pt x="504" y="140" on="0"/>
        <pt x="490" y="189" on="0"/>
        <pt x="479" y="229" on="0"/>
        <pt x="477" y="238" on="1"/>
        <pt x="206" y="238" on="1"/>
        <pt x="199" y="214" on="0"/>
        <pt x="181" y="156" on="0"/>
        <pt x="165" y="101" on="0"/>
        <pt x="154" y="56" on="0"/>
        <pt x="154" y="45" on="1"/>
        <pt x="154" y="38" on="0"/>
        <pt x="168" y="32" on="0"/>
        <pt x="189" y="29" on="0"/>
        <pt x="214" y="29" on="0"/>
        <pt x="225" y="29" on="1"/>
        <pt x="235" y="29" on="0"/>
        <pt x="259" y="26" on="0"/>
        <pt x="259" y="15" on="1"/>
        <pt x="259" y="10" on="0"/>
        <pt x="245" y="0" on="0"/>
        <pt x="225" y="0" on="1"/>
        <pt x="-27" y="0" on="1"/>
        <pt x="-36" y="0" on="0"/>
        <pt x="-50" y="6" on="0"/>
        <pt x="-50" y="14" on="1"/>
        <pt x="-50" y="25" on="0"/>
        <pt x="-30" y="25" on="1"/>
        <pt x="-20" y="25" on="0"/>
        <pt x="9" y="27" on="0"/>
        <pt x="36" y="29" on="0"/>
        <pt x="57" y="31" on="0"/>
        <pt x="61" y="31" on="1"/>
        <pt x="83" y="33" on="0"/>
        <pt x="103" y="51" on="0"/>
        <pt x="110" y="69" on="1"/>
        <pt x="125" y="112" on="0"/>
        <pt x="164" y="237" on="0"/>
        <pt x="204" y="381" on="0"/>
        <pt x="245" y="532" on="0"/>
        <pt x="283" y="669" on="0"/>
        <pt x="314" y="782" on="0"/>
        <pt x="324" y="816" on="1"/>
        <pt x="326" y="824" on="0"/>
        <pt x="337" y="835" on="0"/>
        <pt x="345" y="835" on="1"/>
        <pt x="350" y="835" on="0"/>
        <pt x="362" y="827" on="0"/>
        <pt x="365" y="816" on="1"/>
      </contour>
      <contour>
        <pt x="343" y="755" on="1"/>
        <pt x="339" y="735" on="0"/>
        <pt x="321" y="664" on="0"/>
        <pt x="297" y="578" on="0"/>
        <pt x="271" y="481" on="0"/>
        <pt x="246" y="388" on="0"/>
        <pt x="225" y="304" on="0"/>
        <pt x="218" y="274" on="1"/>
        <pt x="249" y="273" on="0"/>
        <pt x="309" y="272" on="0"/>
        <pt x="340" y="272" on="1"/>
        <pt x="371" y="272" on="0"/>
        <pt x="434" y="273" on="0"/>
        <pt x="465" y="274" on="1"/>
        <pt x="453" y="323" on="0"/>
        <pt x="423" y="445" on="0"/>
        <pt x="390" y="573" on="0"/>
        <pt x="358" y="700" on="0"/>
      </contour>
    </TTGlyph>
    <TTGlyph name="Acircumflex" xMin="-50" yMin="-55" xMax="721" yMax="972">
      <contour>
        <pt x="464" y="875" on="1"/>
        <pt x="459" y="875" on="0"/>
        <pt x="430" y="885" on="0"/>
        <pt x="394" y="901" on="0"/>
        <pt x="357" y="919" on="0"/>
        <pt x="344" y="928" on="1"/>
        <pt x="330" y="919" on="0"/>
        <pt x="294" y="901" on="0"/>
        <pt x="259" y="885" on="0"/>
        <pt x="230" y="875" on="0"/>
        <pt x="225" y="875" on="1"/>
        <pt x="217" y="875" on="0"/>
        <pt x="217" y="886" on="1"/>
        <pt x="217" y="895" on="0"/>
        <pt x="250" y="925" on="0"/>
        <pt x="294" y="952" on="0"/>
        <pt x="335" y="972" on="0"/>
        <pt x="344" y="972" on="1"/>
        <pt x="353" y="972" on="0"/>
        <pt x="396" y="952" on="0"/>
        <pt x="439" y="925" on="0"/>
        <pt x="472" y="895" on="0"/>
        <pt x="472" y="886" on="1"/>
        <pt x="472" y="875" on="0"/>
      </contour>
      <contour>
        <pt x="582" y="3" on="1"/>
        <pt x="587" y="-17" on="0"/>
        <pt x="637" y="-29" on="0"/>
        <pt x="685" y="-29" on="1"/>
        <pt x="699" y="-29" on="0"/>
        <pt x="721" y="-32" on="0"/>
        <pt x="721" y="-41" on="1"/>
        <pt x="721" y="-55" on="0"/>
        <pt x="686" y="-55" on="1"/>
        <pt x="473" y="-55" on="1"/>
        <pt x="455" y="-55" on="0"/>
        <pt x="442" y="-49" on="0"/>
        <pt x="442" y="-41" on="1"/>
        <pt x="442" y="-32" on="0"/>
        <pt x="472" y="-27" on="0"/>
        <pt x="508" y="-25" on="0"/>
        <pt x="538" y="-17" on="0"/>
        <pt x="538" y="-5" on="1"/>
        <pt x="538" y="1" on="0"/>
        <pt x="530" y="37" on="0"/>
        <pt x="518" y="85" on="0"/>
        <pt x="504" y="140" on="0"/>
        <pt x="490" y="189" on="0"/>
        <pt x="479" y="229" on="0"/>
        <pt x="477" y="238" on="1"/>
        <pt x="206" y="238" on="1"/>
        <pt x="199" y="214" on="0"/>
        <pt x="181" y="156" on="0"/>
        <pt x="165" y="101" on="0"/>
        <pt x="154" y="56" on="0"/>
        <pt x="154" y="45" on="1"/>
        <pt x="154" y="38" on="0"/>
        <pt x="168" y="32" on="0"/>
        <pt x="189" y="29" on="0"/>
        <pt x="214" y="29" on="0"/>
        <pt x="225" y="29" on="1"/>
        <pt x="235" y="29" on="0"/>
        <pt x="259" y="26" on="0"/>
        <pt x="259" y="15" on="1"/>
        <pt x="259" y="10" on="0"/>
        <pt x="245" y="0" on="0"/>
        <pt x="225" y="0" on="1"/>
        <pt x="-27" y="0" on="1"/>
        <pt x="-36" y="0" on="0"/>
        <pt x="-50" y="6" on="0"/>
        <pt x="-50" y="14" on="1"/>
        <pt x="-50" y="25" on="0"/>
        <pt x="-30" y="25" on="1"/>
        <pt x="-20" y="25" on="0"/>
        <pt x="9" y="27" on="0"/>
        <pt x="36" y="29" on="0"/>
        <pt x="57" y="31" on="0"/>
        <pt x="61" y="31" on="1"/>
        <pt x="83" y="33" on="0"/>
        <pt x="103" y="51" on="0"/>
        <pt x="110" y="69" on="1"/>
        <pt x="125" y="112" on="0"/>
        <pt x="164" y="237" on="0"/>
        <pt x="204" y="381" on="0"/>
        <pt x="245" y="532" on="0"/>
        <pt x="283" y="669" on="0"/>
        <pt x="314" y="782" on="0"/>
        <pt x="324" y="816" on="1"/>
        <pt x="326" y="824" on="0"/>
        <pt x="337" y="835" on="0"/>
        <pt x="345" y="835" on="1"/>
        <pt x="350" y="835" on="0"/>
        <pt x="362" y="827" on="0"/>
        <pt x="365" y="816" on="1"/>
      </contour>
      <contour>
        <pt x="343" y="755" on="1"/>
        <pt x="339" y="735" on="0"/>
        <pt x="321" y="664" on="0"/>
        <pt x="297" y="578" on="0"/>
        <pt x="271" y="481" on="0"/>
        <pt x="246" y="388" on="0"/>
        <pt x="225" y="304" on="0"/>
        <pt x="218" y="274" on="1"/>
        <pt x="249" y="273" on="0"/>
        <pt x="309" y="272" on="0"/>
        <pt x="340" y="272" on="1"/>
        <pt x="371" y="272" on="0"/>
        <pt x="434" y="273" on="0"/>
        <pt x="465" y="274" on="1"/>
        <pt x="453" y="323" on="0"/>
        <pt x="423" y="445" on="0"/>
        <pt x="390" y="573" on="0"/>
        <pt x="358" y="700" on="0"/>
      </contour>
    </TTGlyph>
    <TTGlyph name="Adieresis" xMin="-50" yMin="-55" xMax="721" yMax="972">
      <contour>
        <pt x="205" y="931" on="1"/>
        <pt x="205" y="936" on="0"/>
        <pt x="210" y="950" on="0"/>
        <pt x="220" y="963" on="0"/>
        <pt x="235" y="972" on="0"/>
        <pt x="246" y="972" on="1"/>
        <pt x="260" y="972" on="0"/>
        <pt x="280" y="952" on="0"/>
        <pt x="280" y="935" on="1"/>
        <pt x="280" y="908" on="0"/>
        <pt x="253" y="889" on="0"/>
        <pt x="239" y="889" on="1"/>
        <pt x="225" y="889" on="0"/>
        <pt x="205" y="913" on="0"/>
      </contour>
      <contour>
        <pt x="412" y="917" on="1"/>
        <pt x="412" y="922" on="0"/>
        <pt x="417" y="936" on="0"/>
        <pt x="427" y="949" on="0"/>
        <pt x="442" y="958" on="0"/>
        <pt x="453" y="958" on="1"/>
        <pt x="467" y="958" on="0"/>
        <pt x="487" y="938" on="0"/>
        <pt x="487" y="921" on="1"/>
        <pt x="487" y="894" on="0"/>
        <pt x="460" y="875" on="0"/>
        <pt x="446" y="875" on="1"/>
        <pt x="432" y="875" on="0"/>
        <pt x="412" y="899" on="0"/>
      </contour>
      <contour>
        <pt x="582" y="3" on="1"/>
        <pt x="587" y="-17" on="0"/>
        <pt x="637" y="-29" on="0"/>
        <pt x="685" y="-29" on="1"/>
        <pt x="699" y="-29" on="0"/>
        <pt x="721" y="-32" on="0"/>
        <pt x="721" y="-41" on="1"/>
        <pt x="721" y="-55" on="0"/>
        <pt x="686" y="-55" on="1"/>
        <pt x="473" y="-55" on="1"/>
        <pt x="455" y="-55" on="0"/>
        <pt x="442" y="-49" on="0"/>
        <pt x="442" y="-41" on="1"/>
        <pt x="442" y="-32" on="0"/>
        <pt x="472" y="-27" on="0"/>
        <pt x="508" y="-25" on="0"/>
        <pt x="538" y="-17" on="0"/>
        <pt x="538" y="-5" on="1"/>
        <pt x="538" y="1" on="0"/>
        <pt x="530" y="37" on="0"/>
        <pt x="518" y="85" on="0"/>
        <pt x="504" y="140" on="0"/>
        <pt x="490" y="189" on="0"/>
        <pt x="479" y="229" on="0"/>
        <pt x="477" y="238" on="1"/>
        <pt x="206" y="238" on="1"/>
        <pt x="199" y="214" on="0"/>
        <pt x="181" y="156" on="0"/>
        <pt x="165" y="101" on="0"/>
        <pt x="154" y="56" on="0"/>
        <pt x="154" y="45" on="1"/>
        <pt x="154" y="38" on="0"/>
        <pt x="168" y="32" on="0"/>
        <pt x="189" y="29" on="0"/>
        <pt x="214" y="29" on="0"/>
        <pt x="225" y="29" on="1"/>
        <pt x="235" y="29" on="0"/>
        <pt x="259" y="26" on="0"/>
        <pt x="259" y="15" on="1"/>
        <pt x="259" y="10" on="0"/>
        <pt x="245" y="0" on="0"/>
        <pt x="225" y="0" on="1"/>
        <pt x="-27" y="0" on="1"/>
        <pt x="-36" y="0" on="0"/>
        <pt x="-50" y="6" on="0"/>
        <pt x="-50" y="14" on="1"/>
        <pt x="-50" y="25" on="0"/>
        <pt x="-30" y="25" on="1"/>
        <pt x="-20" y="25" on="0"/>
        <pt x="9" y="27" on="0"/>
        <pt x="36" y="29" on="0"/>
        <pt x="57" y="31" on="0"/>
        <pt x="61" y="31" on="1"/>
        <pt x="83" y="33" on="0"/>
        <pt x="103" y="51" on="0"/>
        <pt x="110" y="69" on="1"/>
        <pt x="125" y="112" on="0"/>
        <pt x="164" y="237" on="0"/>
        <pt x="204" y="381" on="0"/>
        <pt x="245" y="532" on="0"/>
        <pt x="283" y="669" on="0"/>
        <pt x="314" y="782" on="0"/>
        <pt x="324" y="816" on="1"/>
        <pt x="326" y="824" on="0"/>
        <pt x="337" y="835" on="0"/>
        <pt x="345" y="835" on="1"/>
        <pt x="350" y="835" on="0"/>
        <pt x="362" y="827" on="0"/>
        <pt x="365" y="816" on="1"/>
      </contour>
      <contour>
        <pt x="343" y="755" on="1"/>
        <pt x="339" y="735" on="0"/>
        <pt x="321" y="664" on="0"/>
        <pt x="297" y="578" on="0"/>
        <pt x="271" y="481" on="0"/>
        <pt x="246" y="388" on="0"/>
        <pt x="225" y="304" on="0"/>
        <pt x="218" y="274" on="1"/>
        <pt x="249" y="273" on="0"/>
        <pt x="309" y="272" on="0"/>
        <pt x="340" y="272" on="1"/>
        <pt x="371" y="272" on="0"/>
        <pt x="434" y="273" on="0"/>
        <pt x="465" y="274" on="1"/>
        <pt x="453" y="323" on="0"/>
        <pt x="423" y="445" on="0"/>
        <pt x="390" y="573" on="0"/>
        <pt x="358" y="700" on="0"/>
      </contour>
    </TTGlyph>
    <TTGlyph name="Agrave" xMin="-50" yMin="-55" xMax="721" yMax="972">
      <contour>
        <pt x="288" y="950" on="1"/>
        <pt x="288" y="964" on="0"/>
        <pt x="299" y="972" on="0"/>
        <pt x="307" y="972" on="1"/>
        <pt x="314" y="972" on="0"/>
        <pt x="346" y="952" on="0"/>
        <pt x="378" y="925" on="0"/>
        <pt x="402" y="895" on="0"/>
        <pt x="402" y="886" on="1"/>
        <pt x="402" y="875" on="0"/>
        <pt x="394" y="875" on="1"/>
        <pt x="387" y="875" on="0"/>
        <pt x="352" y="893" on="0"/>
        <pt x="316" y="917" on="0"/>
        <pt x="288" y="942" on="0"/>
      </contour>
      <contour>
        <pt x="582" y="3" on="1"/>
        <pt x="587" y="-17" on="0"/>
        <pt x="637" y="-29" on="0"/>
        <pt x="685" y="-29" on="1"/>
        <pt x="699" y="-29" on="0"/>
        <pt x="721" y="-32" on="0"/>
        <pt x="721" y="-41" on="1"/>
        <pt x="721" y="-55" on="0"/>
        <pt x="686" y="-55" on="1"/>
        <pt x="473" y="-55" on="1"/>
        <pt x="455" y="-55" on="0"/>
        <pt x="442" y="-49" on="0"/>
        <pt x="442" y="-41" on="1"/>
        <pt x="442" y="-32" on="0"/>
        <pt x="472" y="-27" on="0"/>
        <pt x="508" y="-25" on="0"/>
        <pt x="538" y="-17" on="0"/>
        <pt x="538" y="-5" on="1"/>
        <pt x="538" y="1" on="0"/>
        <pt x="530" y="37" on="0"/>
        <pt x="518" y="85" on="0"/>
        <pt x="504" y="140" on="0"/>
        <pt x="490" y="189" on="0"/>
        <pt x="479" y="229" on="0"/>
        <pt x="477" y="238" on="1"/>
        <pt x="206" y="238" on="1"/>
        <pt x="199" y="214" on="0"/>
        <pt x="181" y="156" on="0"/>
        <pt x="165" y="101" on="0"/>
        <pt x="154" y="56" on="0"/>
        <pt x="154" y="45" on="1"/>
        <pt x="154" y="38" on="0"/>
        <pt x="168" y="32" on="0"/>
        <pt x="189" y="29" on="0"/>
        <pt x="214" y="29" on="0"/>
        <pt x="225" y="29" on="1"/>
        <pt x="235" y="29" on="0"/>
        <pt x="259" y="26" on="0"/>
        <pt x="259" y="15" on="1"/>
        <pt x="259" y="10" on="0"/>
        <pt x="245" y="0" on="0"/>
        <pt x="225" y="0" on="1"/>
        <pt x="-27" y="0" on="1"/>
        <pt x="-36" y="0" on="0"/>
        <pt x="-50" y="6" on="0"/>
        <pt x="-50" y="14" on="1"/>
        <pt x="-50" y="25" on="0"/>
        <pt x="-30" y="25" on="1"/>
        <pt x="-20" y="25" on="0"/>
        <pt x="9" y="27" on="0"/>
        <pt x="36" y="29" on="0"/>
        <pt x="57" y="31" on="0"/>
        <pt x="61" y="31" on="1"/>
        <pt x="83" y="33" on="0"/>
        <pt x="103" y="51" on="0"/>
        <pt x="110" y="69" on="1"/>
        <pt x="125" y="112" on="0"/>
        <pt x="164" y="237" on="0"/>
        <pt x="204" y="381" on="0"/>
        <pt x="245" y="532" on="0"/>
        <pt x="283" y="669" on="0"/>
        <pt x="314" y="782" on="0"/>
        <pt x="324" y="816" on="1"/>
        <pt x="326" y="824" on="0"/>
        <pt x="337" y="835" on="0"/>
        <pt x="345" y="835" on="1"/>
        <pt x="350" y="835" on="0"/>
        <pt x="362" y="827" on="0"/>
        <pt x="365" y="816" on="1"/>
      </contour>
      <contour>
        <pt x="343" y="755" on="1"/>
        <pt x="339" y="735" on="0"/>
        <pt x="321" y="664" on="0"/>
        <pt x="297" y="578" on="0"/>
        <pt x="271" y="481" on="0"/>
        <pt x="246" y="388" on="0"/>
        <pt x="225" y="304" on="0"/>
        <pt x="218" y="274" on="1"/>
        <pt x="249" y="273" on="0"/>
        <pt x="309" y="272" on="0"/>
        <pt x="340" y="272" on="1"/>
        <pt x="371" y="272" on="0"/>
        <pt x="434" y="273" on="0"/>
        <pt x="465" y="274" on="1"/>
        <pt x="453" y="323" on="0"/>
        <pt x="423" y="445" on="0"/>
        <pt x="390" y="573" on="0"/>
        <pt x="358" y="700" on="0"/>
      </contour>
    </TTGlyph>
    <TTGlyph name="Amacron" xMin="-50" yMin="-55" xMax="721" yMax="907">
      <contour>
        <pt x="582" y="3" on="1"/>
        <pt x="587" y="-17" on="0"/>
        <pt x="637" y="-29" on="0"/>
        <pt x="685" y="-29" on="1"/>
        <pt x="699" y="-29" on="0"/>
        <pt x="721" y="-32" on="0"/>
        <pt x="721" y="-41" on="1"/>
        <pt x="721" y="-55" on="0"/>
        <pt x="686" y="-55" on="1"/>
        <pt x="473" y="-55" on="1"/>
        <pt x="455" y="-55" on="0"/>
        <pt x="442" y="-49" on="0"/>
        <pt x="442" y="-41" on="1"/>
        <pt x="442" y="-32" on="0"/>
        <pt x="472" y="-27" on="0"/>
        <pt x="508" y="-25" on="0"/>
        <pt x="538" y="-17" on="0"/>
        <pt x="538" y="-5" on="1"/>
        <pt x="538" y="1" on="0"/>
        <pt x="530" y="37" on="0"/>
        <pt x="518" y="85" on="0"/>
        <pt x="504" y="140" on="0"/>
        <pt x="490" y="189" on="0"/>
        <pt x="479" y="229" on="0"/>
        <pt x="477" y="238" on="1"/>
        <pt x="206" y="238" on="1"/>
        <pt x="199" y="214" on="0"/>
        <pt x="181" y="156" on="0"/>
        <pt x="165" y="101" on="0"/>
        <pt x="154" y="56" on="0"/>
        <pt x="154" y="45" on="1"/>
        <pt x="154" y="38" on="0"/>
        <pt x="168" y="32" on="0"/>
        <pt x="189" y="29" on="0"/>
        <pt x="214" y="29" on="0"/>
        <pt x="225" y="29" on="1"/>
        <pt x="235" y="29" on="0"/>
        <pt x="259" y="26" on="0"/>
        <pt x="259" y="15" on="1"/>
        <pt x="259" y="10" on="0"/>
        <pt x="245" y="0" on="0"/>
        <pt x="225" y="0" on="1"/>
        <pt x="-27" y="0" on="1"/>
        <pt x="-36" y="0" on="0"/>
        <pt x="-50" y="6" on="0"/>
        <pt x="-50" y="14" on="1"/>
        <pt x="-50" y="25" on="0"/>
        <pt x="-30" y="25" on="1"/>
        <pt x="-20" y="25" on="0"/>
        <pt x="9" y="27" on="0"/>
        <pt x="36" y="29" on="0"/>
        <pt x="57" y="31" on="0"/>
        <pt x="61" y="31" on="1"/>
        <pt x="83" y="33" on="0"/>
        <pt x="103" y="51" on="0"/>
        <pt x="110" y="69" on="1"/>
        <pt x="125" y="112" on="0"/>
        <pt x="164" y="237" on="0"/>
        <pt x="204" y="381" on="0"/>
        <pt x="245" y="532" on="0"/>
        <pt x="283" y="669" on="0"/>
        <pt x="314" y="782" on="0"/>
        <pt x="324" y="816" on="1"/>
        <pt x="326" y="824" on="0"/>
        <pt x="337" y="835" on="0"/>
        <pt x="345" y="835" on="1"/>
        <pt x="350" y="835" on="0"/>
        <pt x="362" y="827" on="0"/>
        <pt x="365" y="816" on="1"/>
      </contour>
      <contour>
        <pt x="343" y="755" on="1"/>
        <pt x="339" y="735" on="0"/>
        <pt x="321" y="664" on="0"/>
        <pt x="297" y="578" on="0"/>
        <pt x="271" y="481" on="0"/>
        <pt x="246" y="388" on="0"/>
        <pt x="225" y="304" on="0"/>
        <pt x="218" y="274" on="1"/>
        <pt x="249" y="273" on="0"/>
        <pt x="309" y="272" on="0"/>
        <pt x="340" y="272" on="1"/>
        <pt x="371" y="272" on="0"/>
        <pt x="434" y="273" on="0"/>
        <pt x="465" y="274" on="1"/>
        <pt x="453" y="323" on="0"/>
        <pt x="423" y="445" on="0"/>
        <pt x="390" y="573" on="0"/>
        <pt x="358" y="700" on="0"/>
      </contour>
      <contour>
        <pt x="485" y="907" on="1"/>
        <pt x="489" y="907" on="0"/>
        <pt x="496" y="899" on="0"/>
        <pt x="496" y="894" on="1"/>
        <pt x="496" y="889" on="0"/>
        <pt x="488" y="876" on="0"/>
        <pt x="477" y="876" on="1"/>
        <pt x="457" y="876" on="0"/>
        <pt x="390" y="876" on="0"/>
        <pt x="318" y="875" on="0"/>
        <pt x="254" y="875" on="0"/>
        <pt x="236" y="875" on="1"/>
        <pt x="229" y="875" on="0"/>
        <pt x="220" y="886" on="0"/>
        <pt x="220" y="891" on="1"/>
        <pt x="220" y="896" on="0"/>
        <pt x="228" y="906" on="0"/>
        <pt x="236" y="906" on="1"/>
        <pt x="243" y="906" on="0"/>
        <pt x="273" y="905" on="0"/>
        <pt x="309" y="905" on="0"/>
        <pt x="344" y="904" on="0"/>
        <pt x="357" y="904" on="1"/>
        <pt x="399" y="904" on="0"/>
        <pt x="461" y="907" on="0"/>
      </contour>
    </TTGlyph>
    <TTGlyph name="Aogonek" xMin="-50" yMin="-202" xMax="721" yMax="835">
      <contour>
        <pt x="582" y="3" on="1"/>
        <pt x="587" y="-17" on="0"/>
        <pt x="637" y="-29" on="0"/>
        <pt x="685" y="-29" on="1"/>
        <pt x="699" y="-29" on="0"/>
        <pt x="721" y="-32" on="0"/>
        <pt x="721" y="-41" on="1"/>
        <pt x="721" y="-55" on="0"/>
        <pt x="686" y="-55" on="1"/>
        <pt x="576" y="-55" on="1"/>
        <pt x="566" y="-64" on="0"/>
        <pt x="553" y="-85" on="0"/>
        <pt x="546" y="-105" on="0"/>
        <pt x="543" y="-123" on="0"/>
        <pt x="543" y="-128" on="1"/>
        <pt x="543" y="-134" on="0"/>
        <pt x="546" y="-150" on="0"/>
        <pt x="555" y="-165" on="0"/>
        <pt x="570" y="-175" on="0"/>
        <pt x="582" y="-175" on="1"/>
        <pt x="595" y="-175" on="0"/>
        <pt x="613" y="-163" on="0"/>
        <pt x="626" y="-148" on="0"/>
        <pt x="637" y="-135" on="0"/>
        <pt x="644" y="-135" on="1"/>
        <pt x="653" y="-135" on="0"/>
        <pt x="658" y="-145" on="0"/>
        <pt x="658" y="-151" on="1"/>
        <pt x="658" y="-155" on="0"/>
        <pt x="647" y="-172" on="0"/>
        <pt x="626" y="-189" on="0"/>
        <pt x="598" y="-202" on="0"/>
        <pt x="580" y="-202" on="1"/>
        <pt x="545" y="-202" on="0"/>
        <pt x="499" y="-161" on="0"/>
        <pt x="499" y="-129" on="1"/>
        <pt x="499" y="-103" on="0"/>
        <pt x="526" y="-66" on="0"/>
        <pt x="540" y="-55" on="1"/>
        <pt x="473" y="-55" on="1"/>
        <pt x="455" y="-55" on="0"/>
        <pt x="442" y="-49" on="0"/>
        <pt x="442" y="-41" on="1"/>
        <pt x="442" y="-32" on="0"/>
        <pt x="472" y="-27" on="0"/>
        <pt x="508" y="-25" on="0"/>
        <pt x="538" y="-17" on="0"/>
        <pt x="538" y="-5" on="1"/>
        <pt x="538" y="1" on="0"/>
        <pt x="530" y="37" on="0"/>
        <pt x="518" y="85" on="0"/>
        <pt x="504" y="140" on="0"/>
        <pt x="490" y="189" on="0"/>
        <pt x="479" y="229" on="0"/>
        <pt x="477" y="238" on="1"/>
        <pt x="206" y="238" on="1"/>
        <pt x="199" y="214" on="0"/>
        <pt x="181" y="156" on="0"/>
        <pt x="165" y="101" on="0"/>
        <pt x="154" y="56" on="0"/>
        <pt x="154" y="45" on="1"/>
        <pt x="154" y="38" on="0"/>
        <pt x="168" y="32" on="0"/>
        <pt x="189" y="29" on="0"/>
        <pt x="214" y="29" on="0"/>
        <pt x="225" y="29" on="1"/>
        <pt x="235" y="29" on="0"/>
        <pt x="259" y="26" on="0"/>
        <pt x="259" y="15" on="1"/>
        <pt x="259" y="10" on="0"/>
        <pt x="245" y="0" on="0"/>
        <pt x="225" y="0" on="1"/>
        <pt x="-27" y="0" on="1"/>
        <pt x="-36" y="0" on="0"/>
        <pt x="-50" y="6" on="0"/>
        <pt x="-50" y="14" on="1"/>
        <pt x="-50" y="25" on="0"/>
        <pt x="-30" y="25" on="1"/>
        <pt x="-20" y="25" on="0"/>
        <pt x="9" y="27" on="0"/>
        <pt x="36" y="29" on="0"/>
        <pt x="57" y="31" on="0"/>
        <pt x="61" y="31" on="1"/>
        <pt x="83" y="33" on="0"/>
        <pt x="103" y="51" on="0"/>
        <pt x="110" y="69" on="1"/>
        <pt x="125" y="112" on="0"/>
        <pt x="164" y="237" on="0"/>
        <pt x="204" y="381" on="0"/>
        <pt x="245" y="532" on="0"/>
        <pt x="283" y="669" on="0"/>
        <pt x="314" y="782" on="0"/>
        <pt x="324" y="816" on="1"/>
        <pt x="326" y="824" on="0"/>
        <pt x="337" y="835" on="0"/>
        <pt x="345" y="835" on="1"/>
        <pt x="350" y="835" on="0"/>
        <pt x="362" y="827" on="0"/>
        <pt x="365" y="816" on="1"/>
      </contour>
      <contour>
        <pt x="343" y="755" on="1"/>
        <pt x="339" y="735" on="0"/>
        <pt x="321" y="664" on="0"/>
        <pt x="297" y="578" on="0"/>
        <pt x="271" y="481" on="0"/>
        <pt x="246" y="388" on="0"/>
        <pt x="225" y="304" on="0"/>
        <pt x="218" y="274" on="1"/>
        <pt x="249" y="273" on="0"/>
        <pt x="309" y="272" on="0"/>
        <pt x="340" y="272" on="1"/>
        <pt x="371" y="272" on="0"/>
        <pt x="434" y="273" on="0"/>
        <pt x="465" y="274" on="1"/>
        <pt x="453" y="323" on="0"/>
        <pt x="423" y="445" on="0"/>
        <pt x="390" y="573" on="0"/>
        <pt x="358" y="700" on="0"/>
      </contour>
    </TTGlyph>
    <TTGlyph name="Aring" xMin="-50" yMin="-55" xMax="721" yMax="972">
      <contour>
        <pt x="410" y="925" on="1"/>
        <pt x="410" y="912" on="0"/>
        <pt x="398" y="893" on="0"/>
        <pt x="379" y="881" on="0"/>
        <pt x="356" y="875" on="0"/>
        <pt x="345" y="875" on="1"/>
        <pt x="319" y="875" on="0"/>
        <pt x="283" y="902" on="0"/>
        <pt x="283" y="923" on="1"/>
        <pt x="283" y="944" on="0"/>
        <pt x="320" y="972" on="0"/>
        <pt x="349" y="972" on="1"/>
        <pt x="379" y="972" on="0"/>
        <pt x="410" y="944" on="0"/>
      </contour>
      <contour>
        <pt x="347" y="951" on="1"/>
        <pt x="328" y="951" on="0"/>
        <pt x="313" y="932" on="0"/>
        <pt x="313" y="923" on="1"/>
        <pt x="313" y="912" on="0"/>
        <pt x="328" y="895" on="0"/>
        <pt x="345" y="895" on="1"/>
        <pt x="380" y="895" on="0"/>
        <pt x="380" y="924" on="1"/>
        <pt x="380" y="933" on="0"/>
        <pt x="367" y="951" on="0"/>
      </contour>
      <contour>
        <pt x="582" y="3" on="1"/>
        <pt x="587" y="-17" on="0"/>
        <pt x="637" y="-29" on="0"/>
        <pt x="685" y="-29" on="1"/>
        <pt x="699" y="-29" on="0"/>
        <pt x="721" y="-32" on="0"/>
        <pt x="721" y="-41" on="1"/>
        <pt x="721" y="-55" on="0"/>
        <pt x="686" y="-55" on="1"/>
        <pt x="473" y="-55" on="1"/>
        <pt x="455" y="-55" on="0"/>
        <pt x="442" y="-49" on="0"/>
        <pt x="442" y="-41" on="1"/>
        <pt x="442" y="-32" on="0"/>
        <pt x="472" y="-27" on="0"/>
        <pt x="508" y="-25" on="0"/>
        <pt x="538" y="-17" on="0"/>
        <pt x="538" y="-5" on="1"/>
        <pt x="538" y="1" on="0"/>
        <pt x="530" y="37" on="0"/>
        <pt x="518" y="85" on="0"/>
        <pt x="504" y="140" on="0"/>
        <pt x="490" y="189" on="0"/>
        <pt x="479" y="229" on="0"/>
        <pt x="477" y="238" on="1"/>
        <pt x="206" y="238" on="1"/>
        <pt x="199" y="214" on="0"/>
        <pt x="181" y="156" on="0"/>
        <pt x="165" y="101" on="0"/>
        <pt x="154" y="56" on="0"/>
        <pt x="154" y="45" on="1"/>
        <pt x="154" y="38" on="0"/>
        <pt x="168" y="32" on="0"/>
        <pt x="189" y="29" on="0"/>
        <pt x="214" y="29" on="0"/>
        <pt x="225" y="29" on="1"/>
        <pt x="235" y="29" on="0"/>
        <pt x="259" y="26" on="0"/>
        <pt x="259" y="15" on="1"/>
        <pt x="259" y="10" on="0"/>
        <pt x="245" y="0" on="0"/>
        <pt x="225" y="0" on="1"/>
        <pt x="-27" y="0" on="1"/>
        <pt x="-36" y="0" on="0"/>
        <pt x="-50" y="6" on="0"/>
        <pt x="-50" y="14" on="1"/>
        <pt x="-50" y="25" on="0"/>
        <pt x="-30" y="25" on="1"/>
        <pt x="-20" y="25" on="0"/>
        <pt x="9" y="27" on="0"/>
        <pt x="36" y="29" on="0"/>
        <pt x="57" y="31" on="0"/>
        <pt x="61" y="31" on="1"/>
        <pt x="83" y="33" on="0"/>
        <pt x="103" y="51" on="0"/>
        <pt x="110" y="69" on="1"/>
        <pt x="125" y="112" on="0"/>
        <pt x="164" y="237" on="0"/>
        <pt x="204" y="381" on="0"/>
        <pt x="245" y="532" on="0"/>
        <pt x="283" y="669" on="0"/>
        <pt x="314" y="782" on="0"/>
        <pt x="324" y="816" on="1"/>
        <pt x="326" y="824" on="0"/>
        <pt x="337" y="835" on="0"/>
        <pt x="345" y="835" on="1"/>
        <pt x="350" y="835" on="0"/>
        <pt x="362" y="827" on="0"/>
        <pt x="365" y="816" on="1"/>
      </contour>
      <contour>
        <pt x="343" y="755" on="1"/>
        <pt x="339" y="735" on="0"/>
        <pt x="321" y="664" on="0"/>
        <pt x="297" y="578" on="0"/>
        <pt x="271" y="481" on="0"/>
        <pt x="246" y="388" on="0"/>
        <pt x="225" y="304" on="0"/>
        <pt x="218" y="274" on="1"/>
        <pt x="249" y="273" on="0"/>
        <pt x="309" y="272" on="0"/>
        <pt x="340" y="272" on="1"/>
        <pt x="371" y="272" on="0"/>
        <pt x="434" y="273" on="0"/>
        <pt x="465" y="274" on="1"/>
        <pt x="453" y="323" on="0"/>
        <pt x="423" y="445" on="0"/>
        <pt x="390" y="573" on="0"/>
        <pt x="358" y="700" on="0"/>
      </contour>
    </TTGlyph>
    <TTGlyph name="Aringacute" xMin="-48" yMin="-55" xMax="723" yMax="972">
      <contour>
        <pt x="584" y="3" on="1"/>
        <pt x="590" y="-17" on="0"/>
        <pt x="639" y="-29" on="0"/>
        <pt x="687" y="-29" on="1"/>
        <pt x="701" y="-29" on="0"/>
        <pt x="723" y="-32" on="0"/>
        <pt x="723" y="-41" on="1"/>
        <pt x="723" y="-55" on="0"/>
        <pt x="688" y="-55" on="1"/>
        <pt x="662" y="-55" on="0"/>
        <pt x="607" y="-53" on="0"/>
        <pt x="581" y="-53" on="1"/>
        <pt x="554" y="-53" on="0"/>
        <pt x="501" y="-55" on="0"/>
        <pt x="475" y="-55" on="1"/>
        <pt x="457" y="-55" on="0"/>
        <pt x="444" y="-49" on="0"/>
        <pt x="444" y="-41" on="1"/>
        <pt x="444" y="-32" on="0"/>
        <pt x="474" y="-27" on="0"/>
        <pt x="510" y="-25" on="0"/>
        <pt x="540" y="-17" on="0"/>
        <pt x="540" y="-5" on="1"/>
        <pt x="540" y="1" on="0"/>
        <pt x="531" y="37" on="0"/>
        <pt x="516" y="85" on="0"/>
        <pt x="499" y="140" on="0"/>
        <pt x="484" y="189" on="0"/>
        <pt x="471" y="229" on="0"/>
        <pt x="469" y="238" on="1"/>
        <pt x="215" y="238" on="1"/>
        <pt x="208" y="214" on="0"/>
        <pt x="188" y="156" on="0"/>
        <pt x="169" y="101" on="0"/>
        <pt x="156" y="56" on="0"/>
        <pt x="156" y="45" on="1"/>
        <pt x="156" y="38" on="0"/>
        <pt x="170" y="32" on="0"/>
        <pt x="191" y="29" on="0"/>
        <pt x="216" y="29" on="0"/>
        <pt x="227" y="29" on="1"/>
        <pt x="237" y="29" on="0"/>
        <pt x="261" y="26" on="0"/>
        <pt x="261" y="15" on="1"/>
        <pt x="261" y="10" on="0"/>
        <pt x="247" y="0" on="0"/>
        <pt x="227" y="0" on="1"/>
        <pt x="195" y="0" on="0"/>
        <pt x="133" y="2" on="0"/>
        <pt x="101" y="2" on="1"/>
        <pt x="69" y="2" on="0"/>
        <pt x="7" y="1" on="0"/>
        <pt x="-25" y="0" on="1"/>
        <pt x="-34" y="0" on="0"/>
        <pt x="-48" y="6" on="0"/>
        <pt x="-48" y="14" on="1"/>
        <pt x="-48" y="25" on="0"/>
        <pt x="-28" y="25" on="1"/>
        <pt x="-18" y="25" on="0"/>
        <pt x="11" y="27" on="0"/>
        <pt x="38" y="29" on="0"/>
        <pt x="59" y="31" on="0"/>
        <pt x="63" y="31" on="1"/>
        <pt x="85" y="33" on="0"/>
        <pt x="105" y="51" on="0"/>
        <pt x="112" y="69" on="1"/>
        <pt x="127" y="112" on="0"/>
        <pt x="166" y="222" on="0"/>
        <pt x="206" y="343" on="0"/>
        <pt x="247" y="468" on="0"/>
        <pt x="285" y="582" on="0"/>
        <pt x="316" y="680" on="0"/>
        <pt x="326" y="714" on="1"/>
        <pt x="328" y="722" on="0"/>
        <pt x="339" y="733" on="0"/>
        <pt x="347" y="733" on="1"/>
        <pt x="352" y="733" on="0"/>
        <pt x="364" y="725" on="0"/>
        <pt x="367" y="714" on="1"/>
      </contour>
      <contour>
        <pt x="345" y="653" on="1"/>
        <pt x="339" y="622" on="0"/>
        <pt x="308" y="530" on="0"/>
        <pt x="272" y="427" on="0"/>
        <pt x="237" y="320" on="0"/>
        <pt x="227" y="274" on="1"/>
        <pt x="258" y="273" on="0"/>
        <pt x="311" y="272" on="0"/>
        <pt x="342" y="272" on="1"/>
        <pt x="373" y="272" on="0"/>
        <pt x="426" y="273" on="0"/>
        <pt x="457" y="274" on="1"/>
        <pt x="445" y="323" on="0"/>
        <pt x="418" y="413" on="0"/>
        <pt x="389" y="503" on="0"/>
        <pt x="360" y="598" on="0"/>
      </contour>
      <contour>
        <pt x="412" y="809" on="1"/>
        <pt x="412" y="796" on="0"/>
        <pt x="400" y="777" on="0"/>
        <pt x="381" y="765" on="0"/>
        <pt x="358" y="759" on="0"/>
        <pt x="347" y="759" on="1"/>
        <pt x="321" y="759" on="0"/>
        <pt x="285" y="786" on="0"/>
        <pt x="285" y="807" on="1"/>
        <pt x="285" y="828" on="0"/>
        <pt x="322" y="856" on="0"/>
        <pt x="351" y="856" on="1"/>
        <pt x="381" y="856" on="0"/>
        <pt x="412" y="828" on="0"/>
      </contour>
      <contour>
        <pt x="349" y="833" on="1"/>
        <pt x="330" y="833" on="0"/>
        <pt x="319" y="816" on="0"/>
        <pt x="319" y="807" on="1"/>
        <pt x="319" y="796" on="0"/>
        <pt x="330" y="782" on="0"/>
        <pt x="347" y="782" on="1"/>
        <pt x="364" y="782" on="0"/>
        <pt x="377" y="794" on="0"/>
        <pt x="377" y="808" on="1"/>
        <pt x="377" y="817" on="0"/>
        <pt x="369" y="833" on="0"/>
      </contour>
      <contour>
        <pt x="413" y="950" on="1"/>
        <pt x="413" y="942" on="0"/>
        <pt x="385" y="917" on="0"/>
        <pt x="349" y="893" on="0"/>
        <pt x="314" y="875" on="0"/>
        <pt x="307" y="875" on="1"/>
        <pt x="299" y="875" on="0"/>
        <pt x="299" y="886" on="1"/>
        <pt x="299" y="895" on="0"/>
        <pt x="323" y="925" on="0"/>
        <pt x="355" y="952" on="0"/>
        <pt x="387" y="972" on="0"/>
        <pt x="394" y="972" on="1"/>
        <pt x="402" y="972" on="0"/>
        <pt x="413" y="964" on="0"/>
      </contour>
    </TTGlyph>
    <TTGlyph name="Atilde" xMin="-50" yMin="-55" xMax="721" yMax="951">
      <contour>
        <pt x="582" y="3" on="1"/>
        <pt x="587" y="-17" on="0"/>
        <pt x="637" y="-29" on="0"/>
        <pt x="685" y="-29" on="1"/>
        <pt x="699" y="-29" on="0"/>
        <pt x="721" y="-32" on="0"/>
        <pt x="721" y="-41" on="1"/>
        <pt x="721" y="-55" on="0"/>
        <pt x="686" y="-55" on="1"/>
        <pt x="473" y="-55" on="1"/>
        <pt x="455" y="-55" on="0"/>
        <pt x="442" y="-49" on="0"/>
        <pt x="442" y="-41" on="1"/>
        <pt x="442" y="-32" on="0"/>
        <pt x="472" y="-27" on="0"/>
        <pt x="508" y="-25" on="0"/>
        <pt x="538" y="-17" on="0"/>
        <pt x="538" y="-5" on="1"/>
        <pt x="538" y="1" on="0"/>
        <pt x="530" y="37" on="0"/>
        <pt x="518" y="85" on="0"/>
        <pt x="504" y="140" on="0"/>
        <pt x="490" y="189" on="0"/>
        <pt x="479" y="229" on="0"/>
        <pt x="477" y="238" on="1"/>
        <pt x="206" y="238" on="1"/>
        <pt x="199" y="214" on="0"/>
        <pt x="181" y="156" on="0"/>
        <pt x="165" y="101" on="0"/>
        <pt x="154" y="56" on="0"/>
        <pt x="154" y="45" on="1"/>
        <pt x="154" y="38" on="0"/>
        <pt x="168" y="32" on="0"/>
        <pt x="189" y="29" on="0"/>
        <pt x="214" y="29" on="0"/>
        <pt x="225" y="29" on="1"/>
        <pt x="235" y="29" on="0"/>
        <pt x="259" y="26" on="0"/>
        <pt x="259" y="15" on="1"/>
        <pt x="259" y="10" on="0"/>
        <pt x="245" y="0" on="0"/>
        <pt x="225" y="0" on="1"/>
        <pt x="-27" y="0" on="1"/>
        <pt x="-36" y="0" on="0"/>
        <pt x="-50" y="6" on="0"/>
        <pt x="-50" y="14" on="1"/>
        <pt x="-50" y="25" on="0"/>
        <pt x="-30" y="25" on="1"/>
        <pt x="-20" y="25" on="0"/>
        <pt x="9" y="27" on="0"/>
        <pt x="36" y="29" on="0"/>
        <pt x="57" y="31" on="0"/>
        <pt x="61" y="31" on="1"/>
        <pt x="83" y="33" on="0"/>
        <pt x="103" y="51" on="0"/>
        <pt x="110" y="69" on="1"/>
        <pt x="125" y="112" on="0"/>
        <pt x="164" y="237" on="0"/>
        <pt x="204" y="381" on="0"/>
        <pt x="245" y="532" on="0"/>
        <pt x="283" y="669" on="0"/>
        <pt x="314" y="782" on="0"/>
        <pt x="324" y="816" on="1"/>
        <pt x="326" y="824" on="0"/>
        <pt x="337" y="835" on="0"/>
        <pt x="345" y="835" on="1"/>
        <pt x="350" y="835" on="0"/>
        <pt x="362" y="827" on="0"/>
        <pt x="365" y="816" on="1"/>
      </contour>
      <contour>
        <pt x="343" y="755" on="1"/>
        <pt x="339" y="735" on="0"/>
        <pt x="321" y="664" on="0"/>
        <pt x="297" y="578" on="0"/>
        <pt x="271" y="481" on="0"/>
        <pt x="246" y="388" on="0"/>
        <pt x="225" y="304" on="0"/>
        <pt x="218" y="274" on="1"/>
        <pt x="249" y="273" on="0"/>
        <pt x="309" y="272" on="0"/>
        <pt x="340" y="272" on="1"/>
        <pt x="371" y="272" on="0"/>
        <pt x="434" y="273" on="0"/>
        <pt x="465" y="274" on="1"/>
        <pt x="453" y="323" on="0"/>
        <pt x="423" y="445" on="0"/>
        <pt x="390" y="573" on="0"/>
        <pt x="358" y="700" on="0"/>
      </contour>
      <contour>
        <pt x="179" y="903" on="1"/>
        <pt x="179" y="914" on="0"/>
        <pt x="208" y="931" on="1"/>
        <pt x="239" y="949" on="0"/>
        <pt x="276" y="949" on="1"/>
        <pt x="291" y="949" on="0"/>
        <pt x="326" y="940" on="0"/>
        <pt x="362" y="930" on="0"/>
        <pt x="398" y="921" on="0"/>
        <pt x="413" y="921" on="1"/>
        <pt x="439" y="921" on="0"/>
        <pt x="473" y="938" on="1"/>
        <pt x="487" y="946" on="0"/>
        <pt x="498" y="951" on="0"/>
        <pt x="503" y="951" on="1"/>
        <pt x="508" y="951" on="0"/>
        <pt x="516" y="941" on="0"/>
        <pt x="516" y="934" on="1"/>
        <pt x="516" y="925" on="0"/>
        <pt x="500" y="909" on="0"/>
        <pt x="472" y="896" on="0"/>
        <pt x="435" y="889" on="0"/>
        <pt x="414" y="889" on="1"/>
        <pt x="395" y="889" on="0"/>
        <pt x="358" y="896" on="0"/>
        <pt x="323" y="905" on="0"/>
        <pt x="291" y="913" on="0"/>
        <pt x="277" y="913" on="1"/>
        <pt x="262" y="913" on="0"/>
        <pt x="236" y="905" on="0"/>
        <pt x="214" y="896" on="0"/>
        <pt x="198" y="888" on="0"/>
        <pt x="193" y="888" on="1"/>
        <pt x="188" y="888" on="0"/>
        <pt x="179" y="898" on="0"/>
      </contour>
    </TTGlyph>
    <TTGlyph name="B" xMin="21" yMin="0" xMax="630" yMax="821">
      <contour>
        <pt x="50" y="28" on="1"/>
        <pt x="65" y="28" on="0"/>
        <pt x="97" y="29" on="0"/>
        <pt x="124" y="34" on="0"/>
        <pt x="142" y="43" on="0"/>
        <pt x="142" y="52" on="1"/>
        <pt x="142" y="126" on="0"/>
        <pt x="143" y="268" on="0"/>
        <pt x="143" y="313" on="1"/>
        <pt x="143" y="367" on="0"/>
        <pt x="141" y="497" on="0"/>
        <pt x="138" y="622" on="0"/>
        <pt x="136" y="726" on="0"/>
        <pt x="135" y="753" on="1"/>
        <pt x="134" y="779" on="0"/>
        <pt x="93" y="789" on="0"/>
        <pt x="50" y="789" on="1"/>
        <pt x="36" y="789" on="0"/>
        <pt x="24" y="798" on="0"/>
        <pt x="24" y="804" on="1"/>
        <pt x="24" y="812" on="0"/>
        <pt x="39" y="818" on="0"/>
        <pt x="50" y="818" on="1"/>
        <pt x="86" y="818" on="0"/>
        <pt x="173" y="819" on="0"/>
        <pt x="252" y="820" on="0"/>
        <pt x="312" y="821" on="0"/>
        <pt x="321" y="821" on="1"/>
        <pt x="374" y="821" on="0"/>
        <pt x="471" y="794" on="0"/>
        <pt x="544" y="742" on="0"/>
        <pt x="588" y="664" on="0"/>
        <pt x="588" y="612" on="1"/>
        <pt x="588" y="542" on="0"/>
        <pt x="510" y="439" on="0"/>
        <pt x="442" y="421" on="1"/>
        <pt x="528" y="405" on="0"/>
        <pt x="630" y="299" on="0"/>
        <pt x="630" y="220" on="1"/>
        <pt x="630" y="159" on="0"/>
        <pt x="569" y="75" on="0"/>
        <pt x="467" y="23" on="0"/>
        <pt x="334" y="0" on="0"/>
        <pt x="262" y="0" on="1"/>
        <pt x="72" y="0" on="1"/>
        <pt x="49" y="0" on="0"/>
        <pt x="21" y="3" on="0"/>
        <pt x="21" y="12" on="1"/>
        <pt x="21" y="20" on="0"/>
        <pt x="37" y="28" on="0"/>
      </contour>
      <contour>
        <pt x="262" y="395" on="1"/>
        <pt x="243" y="395" on="0"/>
        <pt x="221" y="394" on="0"/>
        <pt x="206" y="393" on="0"/>
        <pt x="193" y="392" on="0"/>
        <pt x="183" y="392" on="1"/>
        <pt x="183" y="32" on="1"/>
        <pt x="227" y="32" on="0"/>
        <pt x="321" y="35" on="0"/>
        <pt x="411" y="47" on="0"/>
        <pt x="491" y="72" on="0"/>
        <pt x="551" y="114" on="0"/>
        <pt x="586" y="177" on="0"/>
        <pt x="586" y="222" on="1"/>
        <pt x="586" y="280" on="0"/>
        <pt x="529" y="348" on="0"/>
        <pt x="437" y="384" on="0"/>
        <pt x="321" y="395" on="0"/>
      </contour>
      <contour>
        <pt x="264" y="787" on="1"/>
        <pt x="247" y="787" on="0"/>
        <pt x="217" y="786" on="0"/>
        <pt x="206" y="785" on="1"/>
        <pt x="193" y="784" on="0"/>
        <pt x="183" y="783" on="1"/>
        <pt x="183" y="432" on="1"/>
        <pt x="183" y="430" on="0"/>
        <pt x="220" y="429" on="0"/>
        <pt x="253" y="429" on="1"/>
        <pt x="277" y="429" on="0"/>
        <pt x="339" y="432" on="0"/>
        <pt x="404" y="442" on="0"/>
        <pt x="467" y="464" on="0"/>
        <pt x="516" y="503" on="0"/>
        <pt x="546" y="562" on="0"/>
        <pt x="546" y="605" on="1"/>
        <pt x="546" y="660" on="0"/>
        <pt x="496" y="731" on="0"/>
        <pt x="415" y="772" on="0"/>
        <pt x="315" y="787" on="0"/>
      </contour>
    </TTGlyph>
    <TTGlyph name="C" xMin="41" yMin="-14" xMax="584" yMax="838">
      <contour>
        <pt x="584" y="214" on="1"/>
        <pt x="584" y="182" on="0"/>
        <pt x="557" y="103" on="0"/>
        <pt x="497" y="34" on="0"/>
        <pt x="403" y="-14" on="0"/>
        <pt x="336" y="-14" on="1"/>
        <pt x="282" y="-14" on="0"/>
        <pt x="176" y="33" on="0"/>
        <pt x="92" y="134" on="0"/>
        <pt x="41" y="293" on="0"/>
        <pt x="41" y="405" on="1"/>
        <pt x="41" y="496" on="0"/>
        <pt x="90" y="654" on="0"/>
        <pt x="174" y="771" on="0"/>
        <pt x="286" y="838" on="0"/>
        <pt x="349" y="838" on="1"/>
        <pt x="390" y="838" on="0"/>
        <pt x="454" y="811" on="0"/>
        <pt x="500" y="771" on="0"/>
        <pt x="529" y="723" on="0"/>
        <pt x="537" y="702" on="1"/>
        <pt x="535" y="733" on="0"/>
        <pt x="533" y="767" on="0"/>
        <pt x="532" y="784" on="0"/>
        <pt x="532" y="788" on="0"/>
        <pt x="532" y="788" on="1"/>
        <pt x="532" y="813" on="0"/>
        <pt x="551" y="813" on="1"/>
        <pt x="561" y="813" on="0"/>
        <pt x="571" y="797" on="0"/>
        <pt x="571" y="790" on="1"/>
        <pt x="571" y="755" on="0"/>
        <pt x="567" y="670" on="0"/>
        <pt x="567" y="634" on="1"/>
        <pt x="567" y="602" on="0"/>
        <pt x="569" y="539" on="0"/>
        <pt x="569" y="507" on="1"/>
        <pt x="569" y="493" on="0"/>
        <pt x="563" y="473" on="0"/>
        <pt x="550" y="473" on="1"/>
        <pt x="536" y="473" on="0"/>
        <pt x="529" y="510" on="0"/>
        <pt x="529" y="532" on="1"/>
        <pt x="529" y="587" on="0"/>
        <pt x="510" y="687" on="0"/>
        <pt x="467" y="762" on="0"/>
        <pt x="399" y="807" on="0"/>
        <pt x="350" y="807" on="1"/>
        <pt x="291" y="807" on="0"/>
        <pt x="194" y="740" on="0"/>
        <pt x="125" y="627" on="0"/>
        <pt x="86" y="482" on="0"/>
        <pt x="86" y="404" on="1"/>
        <pt x="86" y="325" on="0"/>
        <pt x="118" y="184" on="0"/>
        <pt x="182" y="79" on="0"/>
        <pt x="279" y="18" on="0"/>
        <pt x="344" y="18" on="1"/>
        <pt x="388" y="18" on="0"/>
        <pt x="457" y="44" on="0"/>
        <pt x="509" y="92" on="0"/>
        <pt x="544" y="158" on="0"/>
        <pt x="553" y="197" on="1"/>
        <pt x="554" y="203" on="0"/>
        <pt x="556" y="219" on="0"/>
        <pt x="559" y="233" on="0"/>
        <pt x="565" y="243" on="0"/>
        <pt x="570" y="243" on="1"/>
        <pt x="584" y="243" on="0"/>
      </contour>
    </TTGlyph>
    <TTGlyph name="Cacute" xMin="41" yMin="-14" xMax="584" yMax="971">
      <contour>
        <pt x="405" y="949" on="1"/>
        <pt x="405" y="941" on="0"/>
        <pt x="377" y="916" on="0"/>
        <pt x="341" y="892" on="0"/>
        <pt x="306" y="875" on="0"/>
        <pt x="299" y="875" on="1"/>
        <pt x="291" y="875" on="0"/>
        <pt x="291" y="886" on="1"/>
        <pt x="291" y="895" on="0"/>
        <pt x="315" y="924" on="0"/>
        <pt x="347" y="951" on="0"/>
        <pt x="379" y="971" on="0"/>
        <pt x="386" y="971" on="1"/>
        <pt x="394" y="971" on="0"/>
        <pt x="405" y="963" on="0"/>
      </contour>
      <contour>
        <pt x="584" y="214" on="1"/>
        <pt x="584" y="182" on="0"/>
        <pt x="557" y="103" on="0"/>
        <pt x="497" y="34" on="0"/>
        <pt x="403" y="-14" on="0"/>
        <pt x="336" y="-14" on="1"/>
        <pt x="282" y="-14" on="0"/>
        <pt x="176" y="33" on="0"/>
        <pt x="92" y="134" on="0"/>
        <pt x="41" y="293" on="0"/>
        <pt x="41" y="405" on="1"/>
        <pt x="41" y="496" on="0"/>
        <pt x="90" y="654" on="0"/>
        <pt x="174" y="771" on="0"/>
        <pt x="286" y="838" on="0"/>
        <pt x="349" y="838" on="1"/>
        <pt x="390" y="838" on="0"/>
        <pt x="454" y="811" on="0"/>
        <pt x="500" y="771" on="0"/>
        <pt x="529" y="723" on="0"/>
        <pt x="537" y="702" on="1"/>
        <pt x="535" y="733" on="0"/>
        <pt x="533" y="767" on="0"/>
        <pt x="532" y="784" on="0"/>
        <pt x="532" y="788" on="0"/>
        <pt x="532" y="788" on="1"/>
        <pt x="532" y="813" on="0"/>
        <pt x="551" y="813" on="1"/>
        <pt x="561" y="813" on="0"/>
        <pt x="571" y="797" on="0"/>
        <pt x="571" y="790" on="1"/>
        <pt x="571" y="755" on="0"/>
        <pt x="567" y="670" on="0"/>
        <pt x="567" y="634" on="1"/>
        <pt x="567" y="602" on="0"/>
        <pt x="569" y="539" on="0"/>
        <pt x="569" y="507" on="1"/>
        <pt x="569" y="493" on="0"/>
        <pt x="563" y="473" on="0"/>
        <pt x="550" y="473" on="1"/>
        <pt x="536" y="473" on="0"/>
        <pt x="529" y="510" on="0"/>
        <pt x="529" y="532" on="1"/>
        <pt x="529" y="587" on="0"/>
        <pt x="510" y="687" on="0"/>
        <pt x="467" y="762" on="0"/>
        <pt x="399" y="807" on="0"/>
        <pt x="350" y="807" on="1"/>
        <pt x="291" y="807" on="0"/>
        <pt x="194" y="740" on="0"/>
        <pt x="125" y="627" on="0"/>
        <pt x="86" y="482" on="0"/>
        <pt x="86" y="404" on="1"/>
        <pt x="86" y="325" on="0"/>
        <pt x="118" y="184" on="0"/>
        <pt x="182" y="79" on="0"/>
        <pt x="279" y="18" on="0"/>
        <pt x="344" y="18" on="1"/>
        <pt x="388" y="18" on="0"/>
        <pt x="457" y="44" on="0"/>
        <pt x="509" y="92" on="0"/>
        <pt x="544" y="158" on="0"/>
        <pt x="553" y="197" on="1"/>
        <pt x="554" y="203" on="0"/>
        <pt x="556" y="219" on="0"/>
        <pt x="559" y="233" on="0"/>
        <pt x="565" y="243" on="0"/>
        <pt x="570" y="243" on="1"/>
        <pt x="584" y="243" on="0"/>
      </contour>
    </TTGlyph>
    <TTGlyph name="Ccaron" xMin="41" yMin="-14" xMax="584" yMax="972">
      <contour>
        <pt x="465" y="972" on="1"/>
        <pt x="473" y="972" on="0"/>
        <pt x="473" y="961" on="1"/>
        <pt x="473" y="952" on="0"/>
        <pt x="440" y="923" on="0"/>
        <pt x="397" y="896" on="0"/>
        <pt x="354" y="876" on="0"/>
        <pt x="345" y="876" on="1"/>
        <pt x="336" y="876" on="0"/>
        <pt x="295" y="896" on="0"/>
        <pt x="251" y="923" on="0"/>
        <pt x="218" y="952" on="0"/>
        <pt x="218" y="961" on="1"/>
        <pt x="218" y="972" on="0"/>
        <pt x="226" y="972" on="1"/>
        <pt x="231" y="972" on="0"/>
        <pt x="254" y="962" on="0"/>
        <pt x="285" y="947" on="0"/>
        <pt x="324" y="929" on="0"/>
        <pt x="345" y="920" on="1"/>
        <pt x="362" y="929" on="0"/>
        <pt x="400" y="947" on="0"/>
        <pt x="434" y="962" on="0"/>
        <pt x="460" y="972" on="0"/>
      </contour>
      <contour>
        <pt x="584" y="214" on="1"/>
        <pt x="584" y="182" on="0"/>
        <pt x="557" y="103" on="0"/>
        <pt x="497" y="34" on="0"/>
        <pt x="403" y="-14" on="0"/>
        <pt x="336" y="-14" on="1"/>
        <pt x="282" y="-14" on="0"/>
        <pt x="176" y="33" on="0"/>
        <pt x="92" y="134" on="0"/>
        <pt x="41" y="293" on="0"/>
        <pt x="41" y="405" on="1"/>
        <pt x="41" y="496" on="0"/>
        <pt x="90" y="654" on="0"/>
        <pt x="174" y="771" on="0"/>
        <pt x="286" y="838" on="0"/>
        <pt x="349" y="838" on="1"/>
        <pt x="390" y="838" on="0"/>
        <pt x="454" y="811" on="0"/>
        <pt x="500" y="771" on="0"/>
        <pt x="529" y="723" on="0"/>
        <pt x="537" y="702" on="1"/>
        <pt x="535" y="733" on="0"/>
        <pt x="533" y="767" on="0"/>
        <pt x="532" y="784" on="0"/>
        <pt x="532" y="788" on="0"/>
        <pt x="532" y="788" on="1"/>
        <pt x="532" y="813" on="0"/>
        <pt x="551" y="813" on="1"/>
        <pt x="561" y="813" on="0"/>
        <pt x="571" y="797" on="0"/>
        <pt x="571" y="790" on="1"/>
        <pt x="571" y="755" on="0"/>
        <pt x="567" y="670" on="0"/>
        <pt x="567" y="634" on="1"/>
        <pt x="567" y="602" on="0"/>
        <pt x="569" y="539" on="0"/>
        <pt x="569" y="507" on="1"/>
        <pt x="569" y="493" on="0"/>
        <pt x="563" y="473" on="0"/>
        <pt x="550" y="473" on="1"/>
        <pt x="536" y="473" on="0"/>
        <pt x="529" y="510" on="0"/>
        <pt x="529" y="532" on="1"/>
        <pt x="529" y="587" on="0"/>
        <pt x="510" y="687" on="0"/>
        <pt x="467" y="762" on="0"/>
        <pt x="399" y="807" on="0"/>
        <pt x="350" y="807" on="1"/>
        <pt x="291" y="807" on="0"/>
        <pt x="194" y="740" on="0"/>
        <pt x="125" y="627" on="0"/>
        <pt x="86" y="482" on="0"/>
        <pt x="86" y="404" on="1"/>
        <pt x="86" y="325" on="0"/>
        <pt x="118" y="184" on="0"/>
        <pt x="182" y="79" on="0"/>
        <pt x="279" y="18" on="0"/>
        <pt x="344" y="18" on="1"/>
        <pt x="388" y="18" on="0"/>
        <pt x="457" y="44" on="0"/>
        <pt x="509" y="92" on="0"/>
        <pt x="544" y="158" on="0"/>
        <pt x="553" y="197" on="1"/>
        <pt x="554" y="203" on="0"/>
        <pt x="556" y="219" on="0"/>
        <pt x="559" y="233" on="0"/>
        <pt x="565" y="243" on="0"/>
        <pt x="570" y="243" on="1"/>
        <pt x="584" y="243" on="0"/>
      </contour>
    </TTGlyph>
    <TTGlyph name="Ccedilla" xMin="41" yMin="-206" xMax="584" yMax="838">
      <contour>
        <pt x="584" y="214" on="1"/>
        <pt x="584" y="184" on="0"/>
        <pt x="558" y="108" on="0"/>
        <pt x="503" y="39" on="0"/>
        <pt x="415" y="-10" on="0"/>
        <pt x="353" y="-13" on="1"/>
        <pt x="338" y="-94" on="1"/>
        <pt x="362" y="-80" on="0"/>
        <pt x="397" y="-65" on="0"/>
        <pt x="418" y="-65" on="1"/>
        <pt x="451" y="-65" on="0"/>
        <pt x="495" y="-99" on="0"/>
        <pt x="495" y="-128" on="1"/>
        <pt x="495" y="-148" on="0"/>
        <pt x="474" y="-177" on="0"/>
        <pt x="438" y="-196" on="0"/>
        <pt x="391" y="-206" on="0"/>
        <pt x="366" y="-206" on="1"/>
        <pt x="338" y="-206" on="0"/>
        <pt x="321" y="-196" on="0"/>
        <pt x="321" y="-189" on="1"/>
        <pt x="321" y="-180" on="0"/>
        <pt x="342" y="-177" on="0"/>
        <pt x="362" y="-177" on="1"/>
        <pt x="408" y="-177" on="0"/>
        <pt x="458" y="-157" on="0"/>
        <pt x="458" y="-134" on="1"/>
        <pt x="458" y="-120" on="0"/>
        <pt x="437" y="-97" on="0"/>
        <pt x="415" y="-97" on="1"/>
        <pt x="401" y="-97" on="0"/>
        <pt x="374" y="-106" on="0"/>
        <pt x="350" y="-116" on="0"/>
        <pt x="330" y="-125" on="0"/>
        <pt x="323" y="-125" on="1"/>
        <pt x="315" y="-125" on="0"/>
        <pt x="307" y="-117" on="0"/>
        <pt x="307" y="-113" on="1"/>
        <pt x="307" y="-110" on="0"/>
        <pt x="309" y="-100" on="0"/>
        <pt x="310" y="-96" on="1"/>
        <pt x="313" y="-80" on="0"/>
        <pt x="322" y="-31" on="0"/>
        <pt x="324" y="-14" on="1"/>
        <pt x="271" y="-12" on="0"/>
        <pt x="169" y="38" on="0"/>
        <pt x="90" y="139" on="0"/>
        <pt x="41" y="296" on="0"/>
        <pt x="41" y="405" on="1"/>
        <pt x="41" y="496" on="0"/>
        <pt x="90" y="654" on="0"/>
        <pt x="174" y="771" on="0"/>
        <pt x="286" y="838" on="0"/>
        <pt x="349" y="838" on="1"/>
        <pt x="390" y="838" on="0"/>
        <pt x="454" y="811" on="0"/>
        <pt x="500" y="771" on="0"/>
        <pt x="529" y="723" on="0"/>
        <pt x="537" y="702" on="1"/>
        <pt x="535" y="733" on="0"/>
        <pt x="533" y="767" on="0"/>
        <pt x="532" y="784" on="0"/>
        <pt x="532" y="788" on="0"/>
        <pt x="532" y="788" on="1"/>
        <pt x="532" y="813" on="0"/>
        <pt x="551" y="813" on="1"/>
        <pt x="561" y="813" on="0"/>
        <pt x="571" y="797" on="0"/>
        <pt x="571" y="790" on="1"/>
        <pt x="571" y="755" on="0"/>
        <pt x="567" y="670" on="0"/>
        <pt x="567" y="634" on="1"/>
        <pt x="567" y="602" on="0"/>
        <pt x="569" y="539" on="0"/>
        <pt x="569" y="507" on="1"/>
        <pt x="569" y="493" on="0"/>
        <pt x="563" y="473" on="0"/>
        <pt x="550" y="473" on="1"/>
        <pt x="536" y="473" on="0"/>
        <pt x="529" y="510" on="0"/>
        <pt x="529" y="532" on="1"/>
        <pt x="529" y="587" on="0"/>
        <pt x="510" y="687" on="0"/>
        <pt x="467" y="762" on="0"/>
        <pt x="399" y="807" on="0"/>
        <pt x="350" y="807" on="1"/>
        <pt x="291" y="807" on="0"/>
        <pt x="194" y="740" on="0"/>
        <pt x="125" y="627" on="0"/>
        <pt x="86" y="482" on="0"/>
        <pt x="86" y="404" on="1"/>
        <pt x="86" y="325" on="0"/>
        <pt x="118" y="184" on="0"/>
        <pt x="182" y="79" on="0"/>
        <pt x="279" y="18" on="0"/>
        <pt x="344" y="18" on="1"/>
        <pt x="388" y="18" on="0"/>
        <pt x="457" y="44" on="0"/>
        <pt x="509" y="92" on="0"/>
        <pt x="544" y="158" on="0"/>
        <pt x="553" y="197" on="1"/>
        <pt x="554" y="203" on="0"/>
        <pt x="556" y="219" on="0"/>
        <pt x="559" y="233" on="0"/>
        <pt x="565" y="243" on="0"/>
        <pt x="570" y="243" on="1"/>
        <pt x="584" y="243" on="0"/>
      </contour>
    </TTGlyph>
    <TTGlyph name="Ccircumflex" xMin="41" yMin="-14" xMax="584" yMax="972">
      <contour>
        <pt x="467" y="875" on="1"/>
        <pt x="462" y="875" on="0"/>
        <pt x="433" y="885" on="0"/>
        <pt x="397" y="901" on="0"/>
        <pt x="360" y="919" on="0"/>
        <pt x="347" y="928" on="1"/>
        <pt x="333" y="919" on="0"/>
        <pt x="297" y="901" on="0"/>
        <pt x="262" y="885" on="0"/>
        <pt x="233" y="875" on="0"/>
        <pt x="228" y="875" on="1"/>
        <pt x="220" y="875" on="0"/>
        <pt x="220" y="886" on="1"/>
        <pt x="220" y="895" on="0"/>
        <pt x="253" y="925" on="0"/>
        <pt x="297" y="952" on="0"/>
        <pt x="338" y="972" on="0"/>
        <pt x="347" y="972" on="1"/>
        <pt x="356" y="972" on="0"/>
        <pt x="399" y="952" on="0"/>
        <pt x="442" y="925" on="0"/>
        <pt x="475" y="895" on="0"/>
        <pt x="475" y="886" on="1"/>
        <pt x="475" y="875" on="0"/>
      </contour>
      <contour>
        <pt x="584" y="214" on="1"/>
        <pt x="584" y="182" on="0"/>
        <pt x="557" y="103" on="0"/>
        <pt x="497" y="34" on="0"/>
        <pt x="403" y="-14" on="0"/>
        <pt x="336" y="-14" on="1"/>
        <pt x="282" y="-14" on="0"/>
        <pt x="176" y="33" on="0"/>
        <pt x="92" y="134" on="0"/>
        <pt x="41" y="293" on="0"/>
        <pt x="41" y="405" on="1"/>
        <pt x="41" y="496" on="0"/>
        <pt x="90" y="654" on="0"/>
        <pt x="174" y="771" on="0"/>
        <pt x="286" y="838" on="0"/>
        <pt x="349" y="838" on="1"/>
        <pt x="390" y="838" on="0"/>
        <pt x="454" y="811" on="0"/>
        <pt x="500" y="771" on="0"/>
        <pt x="529" y="723" on="0"/>
        <pt x="537" y="702" on="1"/>
        <pt x="535" y="733" on="0"/>
        <pt x="533" y="767" on="0"/>
        <pt x="532" y="784" on="0"/>
        <pt x="532" y="788" on="0"/>
        <pt x="532" y="788" on="1"/>
        <pt x="532" y="813" on="0"/>
        <pt x="551" y="813" on="1"/>
        <pt x="561" y="813" on="0"/>
        <pt x="571" y="797" on="0"/>
        <pt x="571" y="790" on="1"/>
        <pt x="571" y="755" on="0"/>
        <pt x="567" y="670" on="0"/>
        <pt x="567" y="634" on="1"/>
        <pt x="567" y="602" on="0"/>
        <pt x="569" y="539" on="0"/>
        <pt x="569" y="507" on="1"/>
        <pt x="569" y="493" on="0"/>
        <pt x="563" y="473" on="0"/>
        <pt x="550" y="473" on="1"/>
        <pt x="536" y="473" on="0"/>
        <pt x="529" y="510" on="0"/>
        <pt x="529" y="532" on="1"/>
        <pt x="529" y="587" on="0"/>
        <pt x="510" y="687" on="0"/>
        <pt x="467" y="762" on="0"/>
        <pt x="399" y="807" on="0"/>
        <pt x="350" y="807" on="1"/>
        <pt x="291" y="807" on="0"/>
        <pt x="194" y="740" on="0"/>
        <pt x="125" y="627" on="0"/>
        <pt x="86" y="482" on="0"/>
        <pt x="86" y="404" on="1"/>
        <pt x="86" y="325" on="0"/>
        <pt x="118" y="184" on="0"/>
        <pt x="182" y="79" on="0"/>
        <pt x="279" y="18" on="0"/>
        <pt x="344" y="18" on="1"/>
        <pt x="388" y="18" on="0"/>
        <pt x="457" y="44" on="0"/>
        <pt x="509" y="92" on="0"/>
        <pt x="544" y="158" on="0"/>
        <pt x="553" y="197" on="1"/>
        <pt x="554" y="203" on="0"/>
        <pt x="556" y="219" on="0"/>
        <pt x="559" y="233" on="0"/>
        <pt x="565" y="243" on="0"/>
        <pt x="570" y="243" on="1"/>
        <pt x="584" y="243" on="0"/>
      </contour>
    </TTGlyph>
    <TTGlyph name="Cdotaccent" xMin="41" yMin="-14" xMax="584" yMax="972">
      <contour>
        <pt x="584" y="214" on="1"/>
        <pt x="584" y="182" on="0"/>
        <pt x="557" y="103" on="0"/>
        <pt x="497" y="34" on="0"/>
        <pt x="403" y="-14" on="0"/>
        <pt x="336" y="-14" on="1"/>
        <pt x="282" y="-14" on="0"/>
        <pt x="176" y="33" on="0"/>
        <pt x="92" y="134" on="0"/>
        <pt x="41" y="293" on="0"/>
        <pt x="41" y="405" on="1"/>
        <pt x="41" y="496" on="0"/>
        <pt x="90" y="654" on="0"/>
        <pt x="174" y="771" on="0"/>
        <pt x="286" y="838" on="0"/>
        <pt x="349" y="838" on="1"/>
        <pt x="390" y="838" on="0"/>
        <pt x="454" y="811" on="0"/>
        <pt x="500" y="771" on="0"/>
        <pt x="529" y="723" on="0"/>
        <pt x="537" y="702" on="1"/>
        <pt x="535" y="733" on="0"/>
        <pt x="533" y="767" on="0"/>
        <pt x="532" y="784" on="0"/>
        <pt x="532" y="788" on="0"/>
        <pt x="532" y="788" on="1"/>
        <pt x="532" y="813" on="0"/>
        <pt x="551" y="813" on="1"/>
        <pt x="561" y="813" on="0"/>
        <pt x="571" y="797" on="0"/>
        <pt x="571" y="790" on="1"/>
        <pt x="571" y="755" on="0"/>
        <pt x="567" y="670" on="0"/>
        <pt x="567" y="634" on="1"/>
        <pt x="567" y="602" on="0"/>
        <pt x="569" y="539" on="0"/>
        <pt x="569" y="507" on="1"/>
        <pt x="569" y="493" on="0"/>
        <pt x="563" y="473" on="0"/>
        <pt x="550" y="473" on="1"/>
        <pt x="536" y="473" on="0"/>
        <pt x="529" y="510" on="0"/>
        <pt x="529" y="532" on="1"/>
        <pt x="529" y="587" on="0"/>
        <pt x="510" y="687" on="0"/>
        <pt x="467" y="762" on="0"/>
        <pt x="399" y="807" on="0"/>
        <pt x="350" y="807" on="1"/>
        <pt x="291" y="807" on="0"/>
        <pt x="194" y="740" on="0"/>
        <pt x="125" y="627" on="0"/>
        <pt x="86" y="482" on="0"/>
        <pt x="86" y="404" on="1"/>
        <pt x="86" y="325" on="0"/>
        <pt x="118" y="184" on="0"/>
        <pt x="182" y="79" on="0"/>
        <pt x="279" y="18" on="0"/>
        <pt x="344" y="18" on="1"/>
        <pt x="388" y="18" on="0"/>
        <pt x="457" y="44" on="0"/>
        <pt x="509" y="92" on="0"/>
        <pt x="544" y="158" on="0"/>
        <pt x="553" y="197" on="1"/>
        <pt x="554" y="203" on="0"/>
        <pt x="556" y="219" on="0"/>
        <pt x="559" y="233" on="0"/>
        <pt x="565" y="243" on="0"/>
        <pt x="570" y="243" on="1"/>
        <pt x="584" y="243" on="0"/>
      </contour>
      <contour>
        <pt x="314" y="931" on="1"/>
        <pt x="314" y="936" on="0"/>
        <pt x="319" y="950" on="0"/>
        <pt x="329" y="963" on="0"/>
        <pt x="344" y="972" on="0"/>
        <pt x="355" y="972" on="1"/>
        <pt x="369" y="972" on="0"/>
        <pt x="389" y="952" on="0"/>
        <pt x="389" y="935" on="1"/>
        <pt x="389" y="908" on="0"/>
        <pt x="362" y="889" on="0"/>
        <pt x="348" y="889" on="1"/>
        <pt x="334" y="889" on="0"/>
        <pt x="314" y="913" on="0"/>
      </contour>
    </TTGlyph>
    <TTGlyph name="D" xMin="21" yMin="0" xMax="634" yMax="821">
      <contour>
        <pt x="45" y="818" on="1"/>
        <pt x="95" y="820" on="0"/>
        <pt x="190" y="821" on="0"/>
        <pt x="251" y="821" on="1"/>
        <pt x="314" y="821" on="0"/>
        <pt x="450" y="781" on="0"/>
        <pt x="562" y="691" on="0"/>
        <pt x="634" y="545" on="0"/>
        <pt x="634" y="439" on="1"/>
        <pt x="634" y="349" on="0"/>
        <pt x="585" y="189" on="0"/>
        <pt x="487" y="70" on="0"/>
        <pt x="339" y="0" on="0"/>
        <pt x="241" y="0" on="1"/>
        <pt x="57" y="0" on="1"/>
        <pt x="40" y="0" on="0"/>
        <pt x="21" y="4" on="0"/>
        <pt x="21" y="12" on="1"/>
        <pt x="21" y="19" on="0"/>
        <pt x="35" y="28" on="0"/>
        <pt x="52" y="28" on="1"/>
        <pt x="65" y="28" on="0"/>
        <pt x="96" y="29" on="0"/>
        <pt x="123" y="33" on="0"/>
        <pt x="141" y="43" on="0"/>
        <pt x="141" y="52" on="1"/>
        <pt x="141" y="110" on="0"/>
        <pt x="141" y="190" on="0"/>
        <pt x="142" y="270" on="0"/>
        <pt x="142" y="365" on="0"/>
        <pt x="142" y="437" on="1"/>
        <pt x="142" y="456" on="0"/>
        <pt x="140" y="540" on="0"/>
        <pt x="137" y="634" on="0"/>
        <pt x="135" y="722" on="0"/>
        <pt x="135" y="747" on="1"/>
        <pt x="135" y="762" on="0"/>
        <pt x="123" y="779" on="0"/>
        <pt x="100" y="787" on="0"/>
        <pt x="68" y="789" on="0"/>
        <pt x="47" y="789" on="1"/>
        <pt x="34" y="789" on="0"/>
        <pt x="24" y="800" on="0"/>
        <pt x="24" y="805" on="1"/>
        <pt x="24" y="817" on="0"/>
      </contour>
      <contour>
        <pt x="245" y="786" on="1"/>
        <pt x="230" y="786" on="0"/>
        <pt x="198" y="783" on="0"/>
        <pt x="183" y="782" on="1"/>
        <pt x="183" y="44" on="1"/>
        <pt x="183" y="40" on="0"/>
        <pt x="196" y="36" on="0"/>
        <pt x="214" y="34" on="0"/>
        <pt x="236" y="34" on="0"/>
        <pt x="245" y="34" on="1"/>
        <pt x="335" y="34" on="0"/>
        <pt x="465" y="96" on="0"/>
        <pt x="549" y="205" on="0"/>
        <pt x="589" y="353" on="0"/>
        <pt x="589" y="439" on="1"/>
        <pt x="589" y="511" on="0"/>
        <pt x="549" y="637" on="0"/>
        <pt x="465" y="731" on="0"/>
        <pt x="335" y="786" on="0"/>
      </contour>
    </TTGlyph>
    <TTGlyph name="Dcaron" xMin="21" yMin="0" xMax="634" yMax="972">
      <contour>
        <pt x="395" y="972" on="1"/>
        <pt x="403" y="972" on="0"/>
        <pt x="403" y="961" on="1"/>
        <pt x="403" y="952" on="0"/>
        <pt x="370" y="922" on="0"/>
        <pt x="327" y="895" on="0"/>
        <pt x="284" y="875" on="0"/>
        <pt x="275" y="875" on="1"/>
        <pt x="266" y="875" on="0"/>
        <pt x="225" y="895" on="0"/>
        <pt x="181" y="922" on="0"/>
        <pt x="148" y="952" on="0"/>
        <pt x="148" y="961" on="1"/>
        <pt x="148" y="972" on="0"/>
        <pt x="156" y="972" on="1"/>
        <pt x="161" y="972" on="0"/>
        <pt x="184" y="962" on="0"/>
        <pt x="215" y="946" on="0"/>
        <pt x="254" y="928" on="0"/>
        <pt x="275" y="919" on="1"/>
        <pt x="296" y="928" on="0"/>
        <pt x="335" y="946" on="0"/>
        <pt x="367" y="962" on="0"/>
        <pt x="390" y="972" on="0"/>
      </contour>
      <contour>
        <pt x="45" y="818" on="1"/>
        <pt x="95" y="820" on="0"/>
        <pt x="190" y="821" on="0"/>
        <pt x="251" y="821" on="1"/>
        <pt x="314" y="821" on="0"/>
        <pt x="450" y="781" on="0"/>
        <pt x="562" y="691" on="0"/>
        <pt x="634" y="545" on="0"/>
        <pt x="634" y="439" on="1"/>
        <pt x="634" y="349" on="0"/>
        <pt x="585" y="189" on="0"/>
        <pt x="487" y="70" on="0"/>
        <pt x="339" y="0" on="0"/>
        <pt x="241" y="0" on="1"/>
        <pt x="57" y="0" on="1"/>
        <pt x="40" y="0" on="0"/>
        <pt x="21" y="4" on="0"/>
        <pt x="21" y="12" on="1"/>
        <pt x="21" y="19" on="0"/>
        <pt x="35" y="28" on="0"/>
        <pt x="52" y="28" on="1"/>
        <pt x="65" y="28" on="0"/>
        <pt x="96" y="29" on="0"/>
        <pt x="123" y="33" on="0"/>
        <pt x="141" y="43" on="0"/>
        <pt x="141" y="52" on="1"/>
        <pt x="141" y="110" on="0"/>
        <pt x="141" y="190" on="0"/>
        <pt x="142" y="270" on="0"/>
        <pt x="142" y="365" on="0"/>
        <pt x="142" y="437" on="1"/>
        <pt x="142" y="456" on="0"/>
        <pt x="140" y="540" on="0"/>
        <pt x="137" y="634" on="0"/>
        <pt x="135" y="722" on="0"/>
        <pt x="135" y="747" on="1"/>
        <pt x="135" y="762" on="0"/>
        <pt x="123" y="779" on="0"/>
        <pt x="100" y="787" on="0"/>
        <pt x="68" y="789" on="0"/>
        <pt x="47" y="789" on="1"/>
        <pt x="34" y="789" on="0"/>
        <pt x="24" y="800" on="0"/>
        <pt x="24" y="805" on="1"/>
        <pt x="24" y="817" on="0"/>
      </contour>
      <contour>
        <pt x="245" y="786" on="1"/>
        <pt x="230" y="786" on="0"/>
        <pt x="198" y="783" on="0"/>
        <pt x="183" y="782" on="1"/>
        <pt x="183" y="44" on="1"/>
        <pt x="183" y="40" on="0"/>
        <pt x="196" y="36" on="0"/>
        <pt x="214" y="34" on="0"/>
        <pt x="236" y="34" on="0"/>
        <pt x="245" y="34" on="1"/>
        <pt x="335" y="34" on="0"/>
        <pt x="465" y="96" on="0"/>
        <pt x="549" y="205" on="0"/>
        <pt x="589" y="353" on="0"/>
        <pt x="589" y="439" on="1"/>
        <pt x="589" y="511" on="0"/>
        <pt x="549" y="637" on="0"/>
        <pt x="465" y="731" on="0"/>
        <pt x="335" y="786" on="0"/>
      </contour>
    </TTGlyph>
    <TTGlyph name="Dcroat" xMin="21" yMin="0" xMax="634" yMax="821">
      <contour>
        <pt x="45" y="818" on="1"/>
        <pt x="95" y="820" on="0"/>
        <pt x="190" y="821" on="0"/>
        <pt x="251" y="821" on="1"/>
        <pt x="314" y="821" on="0"/>
        <pt x="450" y="781" on="0"/>
        <pt x="562" y="691" on="0"/>
        <pt x="634" y="545" on="0"/>
        <pt x="634" y="439" on="1"/>
        <pt x="634" y="349" on="0"/>
        <pt x="585" y="189" on="0"/>
        <pt x="487" y="70" on="0"/>
        <pt x="339" y="0" on="0"/>
        <pt x="241" y="0" on="1"/>
        <pt x="57" y="0" on="1"/>
        <pt x="40" y="0" on="0"/>
        <pt x="21" y="4" on="0"/>
        <pt x="21" y="12" on="1"/>
        <pt x="21" y="19" on="0"/>
        <pt x="35" y="28" on="0"/>
        <pt x="52" y="28" on="1"/>
        <pt x="65" y="28" on="0"/>
        <pt x="96" y="29" on="0"/>
        <pt x="123" y="33" on="0"/>
        <pt x="141" y="43" on="0"/>
        <pt x="141" y="52" on="1"/>
        <pt x="141" y="104" on="0"/>
        <pt x="141" y="181" on="0"/>
        <pt x="142" y="254" on="0"/>
        <pt x="142" y="334" on="0"/>
        <pt x="142" y="389" on="1"/>
        <pt x="47" y="389" on="1"/>
        <pt x="40" y="389" on="0"/>
        <pt x="31" y="404" on="0"/>
        <pt x="31" y="409" on="1"/>
        <pt x="31" y="414" on="0"/>
        <pt x="39" y="428" on="0"/>
        <pt x="47" y="428" on="1"/>
        <pt x="58" y="428" on="0"/>
        <pt x="116" y="426" on="0"/>
        <pt x="142" y="426" on="1"/>
        <pt x="142" y="437" on="1"/>
        <pt x="142" y="456" on="0"/>
        <pt x="140" y="540" on="0"/>
        <pt x="137" y="634" on="0"/>
        <pt x="135" y="722" on="0"/>
        <pt x="135" y="747" on="1"/>
        <pt x="135" y="762" on="0"/>
        <pt x="123" y="779" on="0"/>
        <pt x="100" y="787" on="0"/>
        <pt x="68" y="789" on="0"/>
        <pt x="47" y="789" on="1"/>
        <pt x="34" y="789" on="0"/>
        <pt x="24" y="800" on="0"/>
        <pt x="24" y="805" on="1"/>
        <pt x="24" y="817" on="0"/>
      </contour>
      <contour>
        <pt x="245" y="786" on="1"/>
        <pt x="230" y="786" on="0"/>
        <pt x="198" y="783" on="0"/>
        <pt x="183" y="782" on="1"/>
        <pt x="183" y="426" on="1"/>
        <pt x="218" y="426" on="0"/>
        <pt x="274" y="429" on="0"/>
        <pt x="296" y="429" on="1"/>
        <pt x="300" y="429" on="0"/>
        <pt x="307" y="417" on="0"/>
        <pt x="307" y="412" on="1"/>
        <pt x="307" y="407" on="0"/>
        <pt x="299" y="390" on="0"/>
        <pt x="288" y="390" on="1"/>
        <pt x="271" y="390" on="0"/>
        <pt x="214" y="389" on="0"/>
        <pt x="183" y="389" on="1"/>
        <pt x="183" y="44" on="1"/>
        <pt x="183" y="40" on="0"/>
        <pt x="196" y="36" on="0"/>
        <pt x="214" y="34" on="0"/>
        <pt x="236" y="34" on="0"/>
        <pt x="245" y="34" on="1"/>
        <pt x="335" y="34" on="0"/>
        <pt x="465" y="96" on="0"/>
        <pt x="549" y="205" on="0"/>
        <pt x="589" y="353" on="0"/>
        <pt x="589" y="439" on="1"/>
        <pt x="589" y="511" on="0"/>
        <pt x="549" y="637" on="0"/>
        <pt x="465" y="731" on="0"/>
        <pt x="335" y="786" on="0"/>
      </contour>
    </TTGlyph>
    <TTGlyph name="E" xMin="21" yMin="0" xMax="605" yMax="821">
      <contour>
        <pt x="586" y="310" on="1"/>
        <pt x="600" y="310" on="0"/>
        <pt x="605" y="289" on="0"/>
        <pt x="605" y="277" on="1"/>
        <pt x="605" y="268" on="0"/>
        <pt x="602" y="213" on="0"/>
        <pt x="597" y="141" on="0"/>
        <pt x="592" y="63" on="0"/>
        <pt x="589" y="33" on="1"/>
        <pt x="587" y="8" on="0"/>
        <pt x="567" y="0" on="0"/>
        <pt x="547" y="0" on="1"/>
        <pt x="486" y="0" on="0"/>
        <pt x="371" y="2" on="0"/>
        <pt x="310" y="2" on="1"/>
        <pt x="249" y="2" on="0"/>
        <pt x="128" y="1" on="0"/>
        <pt x="67" y="0" on="1"/>
        <pt x="52" y="0" on="0"/>
        <pt x="21" y="3" on="0"/>
        <pt x="21" y="11" on="1"/>
        <pt x="21" y="22" on="0"/>
        <pt x="40" y="28" on="0"/>
        <pt x="60" y="28" on="1"/>
        <pt x="107" y="28" on="0"/>
        <pt x="141" y="43" on="0"/>
        <pt x="141" y="64" on="1"/>
        <pt x="141" y="99" on="0"/>
        <pt x="141" y="152" on="0"/>
        <pt x="142" y="199" on="0"/>
        <pt x="142" y="245" on="0"/>
        <pt x="143" y="302" on="0"/>
        <pt x="143" y="375" on="0"/>
        <pt x="143" y="425" on="1"/>
        <pt x="143" y="481" on="0"/>
        <pt x="141" y="571" on="0"/>
        <pt x="139" y="648" on="0"/>
        <pt x="137" y="716" on="0"/>
        <pt x="137" y="750" on="1"/>
        <pt x="137" y="765" on="0"/>
        <pt x="122" y="780" on="0"/>
        <pt x="99" y="788" on="0"/>
        <pt x="74" y="789" on="0"/>
        <pt x="64" y="789" on="1"/>
        <pt x="47" y="789" on="0"/>
        <pt x="24" y="793" on="0"/>
        <pt x="24" y="804" on="1"/>
        <pt x="24" y="815" on="0"/>
        <pt x="50" y="821" on="0"/>
        <pt x="65" y="821" on="1"/>
        <pt x="98" y="821" on="0"/>
        <pt x="168" y="820" on="0"/>
        <pt x="232" y="820" on="0"/>
        <pt x="287" y="819" on="0"/>
        <pt x="306" y="819" on="1"/>
        <pt x="343" y="819" on="0"/>
        <pt x="390" y="820" on="0"/>
        <pt x="435" y="820" on="0"/>
        <pt x="489" y="821" on="0"/>
        <pt x="533" y="821" on="1"/>
        <pt x="547" y="821" on="0"/>
        <pt x="561" y="806" on="0"/>
        <pt x="561" y="785" on="1"/>
        <pt x="561" y="651" on="1"/>
        <pt x="561" y="632" on="0"/>
        <pt x="555" y="605" on="0"/>
        <pt x="544" y="605" on="1"/>
        <pt x="529" y="605" on="0"/>
        <pt x="524" y="631" on="0"/>
        <pt x="524" y="645" on="1"/>
        <pt x="524" y="757" on="1"/>
        <pt x="524" y="776" on="0"/>
        <pt x="497" y="785" on="0"/>
        <pt x="487" y="785" on="1"/>
        <pt x="184" y="785" on="1"/>
        <pt x="184" y="440" on="1"/>
        <pt x="213" y="439" on="0"/>
        <pt x="269" y="437" on="0"/>
        <pt x="298" y="437" on="1"/>
        <pt x="312" y="437" on="0"/>
        <pt x="346" y="438" on="0"/>
        <pt x="377" y="439" on="0"/>
        <pt x="401" y="440" on="0"/>
        <pt x="406" y="440" on="1"/>
        <pt x="412" y="440" on="0"/>
        <pt x="419" y="461" on="0"/>
        <pt x="422" y="490" on="0"/>
        <pt x="423" y="521" on="0"/>
        <pt x="423" y="530" on="1"/>
        <pt x="423" y="531" on="0"/>
        <pt x="424" y="541" on="0"/>
        <pt x="427" y="552" on="0"/>
        <pt x="434" y="560" on="0"/>
        <pt x="440" y="560" on="1"/>
        <pt x="452" y="560" on="0"/>
        <pt x="457" y="544" on="0"/>
        <pt x="457" y="533" on="1"/>
        <pt x="457" y="504" on="0"/>
        <pt x="455" y="449" on="0"/>
        <pt x="455" y="420" on="1"/>
        <pt x="455" y="391" on="0"/>
        <pt x="457" y="335" on="0"/>
        <pt x="457" y="307" on="1"/>
        <pt x="457" y="290" on="0"/>
        <pt x="446" y="280" on="0"/>
        <pt x="442" y="280" on="1"/>
        <pt x="435" y="280" on="0"/>
        <pt x="425" y="296" on="0"/>
        <pt x="425" y="309" on="1"/>
        <pt x="425" y="322" on="0"/>
        <pt x="421" y="355" on="0"/>
        <pt x="411" y="383" on="0"/>
        <pt x="392" y="402" on="0"/>
        <pt x="377" y="402" on="1"/>
        <pt x="363" y="402" on="0"/>
        <pt x="327" y="403" on="0"/>
        <pt x="298" y="403" on="1"/>
        <pt x="269" y="403" on="0"/>
        <pt x="213" y="402" on="0"/>
        <pt x="184" y="401" on="1"/>
        <pt x="184" y="36" on="1"/>
        <pt x="513" y="36" on="1"/>
        <pt x="520" y="36" on="0"/>
        <pt x="535" y="38" on="0"/>
        <pt x="547" y="45" on="0"/>
        <pt x="555" y="60" on="0"/>
        <pt x="556" y="73" on="1"/>
        <pt x="557" y="86" on="0"/>
        <pt x="561" y="137" on="0"/>
        <pt x="565" y="195" on="0"/>
        <pt x="568" y="252" on="0"/>
        <pt x="569" y="273" on="1"/>
        <pt x="570" y="293" on="0"/>
        <pt x="581" y="310" on="0"/>
      </contour>
    </TTGlyph>
    <TTGlyph name="Eacute" xMin="21" yMin="0" xMax="605" yMax="972">
      <contour>
        <pt x="382" y="950" on="1"/>
        <pt x="382" y="942" on="0"/>
        <pt x="354" y="917" on="0"/>
        <pt x="318" y="893" on="0"/>
        <pt x="283" y="875" on="0"/>
        <pt x="276" y="875" on="1"/>
        <pt x="268" y="875" on="0"/>
        <pt x="268" y="886" on="1"/>
        <pt x="268" y="895" on="0"/>
        <pt x="292" y="925" on="0"/>
        <pt x="324" y="952" on="0"/>
        <pt x="356" y="972" on="0"/>
        <pt x="363" y="972" on="1"/>
        <pt x="371" y="972" on="0"/>
        <pt x="382" y="964" on="0"/>
      </contour>
      <contour>
        <pt x="586" y="310" on="1"/>
        <pt x="600" y="310" on="0"/>
        <pt x="605" y="289" on="0"/>
        <pt x="605" y="277" on="1"/>
        <pt x="605" y="268" on="0"/>
        <pt x="602" y="213" on="0"/>
        <pt x="597" y="141" on="0"/>
        <pt x="592" y="63" on="0"/>
        <pt x="589" y="33" on="1"/>
        <pt x="587" y="8" on="0"/>
        <pt x="567" y="0" on="0"/>
        <pt x="547" y="0" on="1"/>
        <pt x="486" y="0" on="0"/>
        <pt x="371" y="2" on="0"/>
        <pt x="310" y="2" on="1"/>
        <pt x="249" y="2" on="0"/>
        <pt x="128" y="1" on="0"/>
        <pt x="67" y="0" on="1"/>
        <pt x="52" y="0" on="0"/>
        <pt x="21" y="3" on="0"/>
        <pt x="21" y="11" on="1"/>
        <pt x="21" y="22" on="0"/>
        <pt x="40" y="28" on="0"/>
        <pt x="60" y="28" on="1"/>
        <pt x="107" y="28" on="0"/>
        <pt x="141" y="43" on="0"/>
        <pt x="141" y="64" on="1"/>
        <pt x="141" y="99" on="0"/>
        <pt x="141" y="152" on="0"/>
        <pt x="142" y="199" on="0"/>
        <pt x="142" y="245" on="0"/>
        <pt x="143" y="302" on="0"/>
        <pt x="143" y="375" on="0"/>
        <pt x="143" y="425" on="1"/>
        <pt x="143" y="481" on="0"/>
        <pt x="141" y="571" on="0"/>
        <pt x="139" y="648" on="0"/>
        <pt x="137" y="716" on="0"/>
        <pt x="137" y="750" on="1"/>
        <pt x="137" y="765" on="0"/>
        <pt x="122" y="780" on="0"/>
        <pt x="99" y="788" on="0"/>
        <pt x="74" y="789" on="0"/>
        <pt x="64" y="789" on="1"/>
        <pt x="47" y="789" on="0"/>
        <pt x="24" y="793" on="0"/>
        <pt x="24" y="804" on="1"/>
        <pt x="24" y="815" on="0"/>
        <pt x="50" y="821" on="0"/>
        <pt x="65" y="821" on="1"/>
        <pt x="98" y="821" on="0"/>
        <pt x="168" y="820" on="0"/>
        <pt x="232" y="820" on="0"/>
        <pt x="287" y="819" on="0"/>
        <pt x="306" y="819" on="1"/>
        <pt x="343" y="819" on="0"/>
        <pt x="390" y="820" on="0"/>
        <pt x="435" y="820" on="0"/>
        <pt x="489" y="821" on="0"/>
        <pt x="533" y="821" on="1"/>
        <pt x="547" y="821" on="0"/>
        <pt x="561" y="806" on="0"/>
        <pt x="561" y="785" on="1"/>
        <pt x="561" y="651" on="1"/>
        <pt x="561" y="632" on="0"/>
        <pt x="555" y="605" on="0"/>
        <pt x="544" y="605" on="1"/>
        <pt x="529" y="605" on="0"/>
        <pt x="524" y="631" on="0"/>
        <pt x="524" y="645" on="1"/>
        <pt x="524" y="757" on="1"/>
        <pt x="524" y="776" on="0"/>
        <pt x="497" y="785" on="0"/>
        <pt x="487" y="785" on="1"/>
        <pt x="184" y="785" on="1"/>
        <pt x="184" y="440" on="1"/>
        <pt x="213" y="439" on="0"/>
        <pt x="269" y="437" on="0"/>
        <pt x="298" y="437" on="1"/>
        <pt x="312" y="437" on="0"/>
        <pt x="346" y="438" on="0"/>
        <pt x="377" y="439" on="0"/>
        <pt x="401" y="440" on="0"/>
        <pt x="406" y="440" on="1"/>
        <pt x="412" y="440" on="0"/>
        <pt x="419" y="461" on="0"/>
        <pt x="422" y="490" on="0"/>
        <pt x="423" y="521" on="0"/>
        <pt x="423" y="530" on="1"/>
        <pt x="423" y="531" on="0"/>
        <pt x="424" y="541" on="0"/>
        <pt x="427" y="552" on="0"/>
        <pt x="434" y="560" on="0"/>
        <pt x="440" y="560" on="1"/>
        <pt x="452" y="560" on="0"/>
        <pt x="457" y="544" on="0"/>
        <pt x="457" y="533" on="1"/>
        <pt x="457" y="504" on="0"/>
        <pt x="455" y="449" on="0"/>
        <pt x="455" y="420" on="1"/>
        <pt x="455" y="391" on="0"/>
        <pt x="457" y="335" on="0"/>
        <pt x="457" y="307" on="1"/>
        <pt x="457" y="290" on="0"/>
        <pt x="446" y="280" on="0"/>
        <pt x="442" y="280" on="1"/>
        <pt x="435" y="280" on="0"/>
        <pt x="425" y="296" on="0"/>
        <pt x="425" y="309" on="1"/>
        <pt x="425" y="322" on="0"/>
        <pt x="421" y="355" on="0"/>
        <pt x="411" y="383" on="0"/>
        <pt x="392" y="402" on="0"/>
        <pt x="377" y="402" on="1"/>
        <pt x="363" y="402" on="0"/>
        <pt x="327" y="403" on="0"/>
        <pt x="298" y="403" on="1"/>
        <pt x="269" y="403" on="0"/>
        <pt x="213" y="402" on="0"/>
        <pt x="184" y="401" on="1"/>
        <pt x="184" y="36" on="1"/>
        <pt x="513" y="36" on="1"/>
        <pt x="520" y="36" on="0"/>
        <pt x="535" y="38" on="0"/>
        <pt x="547" y="45" on="0"/>
        <pt x="555" y="60" on="0"/>
        <pt x="556" y="73" on="1"/>
        <pt x="557" y="86" on="0"/>
        <pt x="561" y="137" on="0"/>
        <pt x="565" y="195" on="0"/>
        <pt x="568" y="252" on="0"/>
        <pt x="569" y="273" on="1"/>
        <pt x="570" y="293" on="0"/>
        <pt x="581" y="310" on="0"/>
      </contour>
    </TTGlyph>
    <TTGlyph name="Ebreve" xMin="21" yMin="0" xMax="605" yMax="972">
      <contour>
        <pt x="439" y="948" on="1"/>
        <pt x="439" y="930" on="0"/>
        <pt x="419" y="902" on="0"/>
        <pt x="387" y="884" on="0"/>
        <pt x="347" y="875" on="0"/>
        <pt x="328" y="875" on="1"/>
        <pt x="283" y="875" on="0"/>
        <pt x="220" y="918" on="0"/>
        <pt x="220" y="948" on="1"/>
        <pt x="220" y="972" on="0"/>
        <pt x="237" y="972" on="1"/>
        <pt x="248" y="972" on="0"/>
        <pt x="254" y="961" on="0"/>
        <pt x="254" y="949" on="1"/>
        <pt x="254" y="934" on="0"/>
        <pt x="266" y="914" on="0"/>
        <pt x="287" y="904" on="0"/>
        <pt x="314" y="900" on="0"/>
        <pt x="328" y="900" on="1"/>
        <pt x="341" y="900" on="0"/>
        <pt x="368" y="908" on="0"/>
        <pt x="390" y="921" on="0"/>
        <pt x="403" y="939" on="0"/>
        <pt x="403" y="949" on="1"/>
        <pt x="403" y="972" on="0"/>
        <pt x="420" y="972" on="1"/>
        <pt x="428" y="972" on="0"/>
        <pt x="439" y="964" on="0"/>
      </contour>
      <contour>
        <pt x="586" y="310" on="1"/>
        <pt x="600" y="310" on="0"/>
        <pt x="605" y="289" on="0"/>
        <pt x="605" y="277" on="1"/>
        <pt x="605" y="268" on="0"/>
        <pt x="602" y="213" on="0"/>
        <pt x="597" y="141" on="0"/>
        <pt x="592" y="63" on="0"/>
        <pt x="589" y="33" on="1"/>
        <pt x="587" y="8" on="0"/>
        <pt x="567" y="0" on="0"/>
        <pt x="547" y="0" on="1"/>
        <pt x="486" y="0" on="0"/>
        <pt x="371" y="2" on="0"/>
        <pt x="310" y="2" on="1"/>
        <pt x="249" y="2" on="0"/>
        <pt x="128" y="1" on="0"/>
        <pt x="67" y="0" on="1"/>
        <pt x="52" y="0" on="0"/>
        <pt x="21" y="3" on="0"/>
        <pt x="21" y="11" on="1"/>
        <pt x="21" y="22" on="0"/>
        <pt x="40" y="28" on="0"/>
        <pt x="60" y="28" on="1"/>
        <pt x="107" y="28" on="0"/>
        <pt x="141" y="43" on="0"/>
        <pt x="141" y="64" on="1"/>
        <pt x="141" y="99" on="0"/>
        <pt x="141" y="152" on="0"/>
        <pt x="142" y="199" on="0"/>
        <pt x="142" y="245" on="0"/>
        <pt x="143" y="302" on="0"/>
        <pt x="143" y="375" on="0"/>
        <pt x="143" y="425" on="1"/>
        <pt x="143" y="481" on="0"/>
        <pt x="141" y="571" on="0"/>
        <pt x="139" y="648" on="0"/>
        <pt x="137" y="716" on="0"/>
        <pt x="137" y="750" on="1"/>
        <pt x="137" y="765" on="0"/>
        <pt x="122" y="780" on="0"/>
        <pt x="99" y="788" on="0"/>
        <pt x="74" y="789" on="0"/>
        <pt x="64" y="789" on="1"/>
        <pt x="47" y="789" on="0"/>
        <pt x="24" y="793" on="0"/>
        <pt x="24" y="804" on="1"/>
        <pt x="24" y="815" on="0"/>
        <pt x="50" y="821" on="0"/>
        <pt x="65" y="821" on="1"/>
        <pt x="98" y="821" on="0"/>
        <pt x="168" y="820" on="0"/>
        <pt x="232" y="820" on="0"/>
        <pt x="287" y="819" on="0"/>
        <pt x="306" y="819" on="1"/>
        <pt x="343" y="819" on="0"/>
        <pt x="390" y="820" on="0"/>
        <pt x="435" y="820" on="0"/>
        <pt x="489" y="821" on="0"/>
        <pt x="533" y="821" on="1"/>
        <pt x="547" y="821" on="0"/>
        <pt x="561" y="806" on="0"/>
        <pt x="561" y="785" on="1"/>
        <pt x="561" y="651" on="1"/>
        <pt x="561" y="632" on="0"/>
        <pt x="555" y="605" on="0"/>
        <pt x="544" y="605" on="1"/>
        <pt x="529" y="605" on="0"/>
        <pt x="524" y="631" on="0"/>
        <pt x="524" y="645" on="1"/>
        <pt x="524" y="757" on="1"/>
        <pt x="524" y="776" on="0"/>
        <pt x="497" y="785" on="0"/>
        <pt x="487" y="785" on="1"/>
        <pt x="184" y="785" on="1"/>
        <pt x="184" y="440" on="1"/>
        <pt x="213" y="439" on="0"/>
        <pt x="269" y="437" on="0"/>
        <pt x="298" y="437" on="1"/>
        <pt x="312" y="437" on="0"/>
        <pt x="346" y="438" on="0"/>
        <pt x="377" y="439" on="0"/>
        <pt x="401" y="440" on="0"/>
        <pt x="406" y="440" on="1"/>
        <pt x="412" y="440" on="0"/>
        <pt x="419" y="461" on="0"/>
        <pt x="422" y="490" on="0"/>
        <pt x="423" y="521" on="0"/>
        <pt x="423" y="530" on="1"/>
        <pt x="423" y="531" on="0"/>
        <pt x="424" y="541" on="0"/>
        <pt x="427" y="552" on="0"/>
        <pt x="434" y="560" on="0"/>
        <pt x="440" y="560" on="1"/>
        <pt x="452" y="560" on="0"/>
        <pt x="457" y="544" on="0"/>
        <pt x="457" y="533" on="1"/>
        <pt x="457" y="504" on="0"/>
        <pt x="455" y="449" on="0"/>
        <pt x="455" y="420" on="1"/>
        <pt x="455" y="391" on="0"/>
        <pt x="457" y="335" on="0"/>
        <pt x="457" y="307" on="1"/>
        <pt x="457" y="290" on="0"/>
        <pt x="446" y="280" on="0"/>
        <pt x="442" y="280" on="1"/>
        <pt x="435" y="280" on="0"/>
        <pt x="425" y="296" on="0"/>
        <pt x="425" y="309" on="1"/>
        <pt x="425" y="322" on="0"/>
        <pt x="421" y="355" on="0"/>
        <pt x="411" y="383" on="0"/>
        <pt x="392" y="402" on="0"/>
        <pt x="377" y="402" on="1"/>
        <pt x="363" y="402" on="0"/>
        <pt x="327" y="403" on="0"/>
        <pt x="298" y="403" on="1"/>
        <pt x="269" y="403" on="0"/>
        <pt x="213" y="402" on="0"/>
        <pt x="184" y="401" on="1"/>
        <pt x="184" y="36" on="1"/>
        <pt x="513" y="36" on="1"/>
        <pt x="520" y="36" on="0"/>
        <pt x="535" y="38" on="0"/>
        <pt x="547" y="45" on="0"/>
        <pt x="555" y="60" on="0"/>
        <pt x="556" y="73" on="1"/>
        <pt x="557" y="86" on="0"/>
        <pt x="561" y="137" on="0"/>
        <pt x="565" y="195" on="0"/>
        <pt x="568" y="252" on="0"/>
        <pt x="569" y="273" on="1"/>
        <pt x="570" y="293" on="0"/>
        <pt x="581" y="310" on="0"/>
      </contour>
    </TTGlyph>
    <TTGlyph name="Ecaron" xMin="21" yMin="0" xMax="605" yMax="972">
      <contour>
        <pt x="442" y="972" on="1"/>
        <pt x="450" y="972" on="0"/>
        <pt x="450" y="961" on="1"/>
        <pt x="450" y="952" on="0"/>
        <pt x="417" y="923" on="0"/>
        <pt x="374" y="896" on="0"/>
        <pt x="331" y="876" on="0"/>
        <pt x="322" y="876" on="1"/>
        <pt x="313" y="876" on="0"/>
        <pt x="272" y="896" on="0"/>
        <pt x="228" y="923" on="0"/>
        <pt x="195" y="952" on="0"/>
        <pt x="195" y="961" on="1"/>
        <pt x="195" y="972" on="0"/>
        <pt x="203" y="972" on="1"/>
        <pt x="208" y="972" on="0"/>
        <pt x="231" y="962" on="0"/>
        <pt x="262" y="947" on="0"/>
        <pt x="301" y="929" on="0"/>
        <pt x="322" y="920" on="1"/>
        <pt x="343" y="929" on="0"/>
        <pt x="382" y="947" on="0"/>
        <pt x="414" y="962" on="0"/>
        <pt x="437" y="972" on="0"/>
      </contour>
      <contour>
        <pt x="586" y="310" on="1"/>
        <pt x="600" y="310" on="0"/>
        <pt x="605" y="289" on="0"/>
        <pt x="605" y="277" on="1"/>
        <pt x="605" y="268" on="0"/>
        <pt x="602" y="213" on="0"/>
        <pt x="597" y="141" on="0"/>
        <pt x="592" y="63" on="0"/>
        <pt x="589" y="33" on="1"/>
        <pt x="587" y="8" on="0"/>
        <pt x="567" y="0" on="0"/>
        <pt x="547" y="0" on="1"/>
        <pt x="486" y="0" on="0"/>
        <pt x="371" y="2" on="0"/>
        <pt x="310" y="2" on="1"/>
        <pt x="249" y="2" on="0"/>
        <pt x="128" y="1" on="0"/>
        <pt x="67" y="0" on="1"/>
        <pt x="52" y="0" on="0"/>
        <pt x="21" y="3" on="0"/>
        <pt x="21" y="11" on="1"/>
        <pt x="21" y="22" on="0"/>
        <pt x="40" y="28" on="0"/>
        <pt x="60" y="28" on="1"/>
        <pt x="107" y="28" on="0"/>
        <pt x="141" y="43" on="0"/>
        <pt x="141" y="64" on="1"/>
        <pt x="141" y="99" on="0"/>
        <pt x="141" y="152" on="0"/>
        <pt x="142" y="199" on="0"/>
        <pt x="142" y="245" on="0"/>
        <pt x="143" y="302" on="0"/>
        <pt x="143" y="375" on="0"/>
        <pt x="143" y="425" on="1"/>
        <pt x="143" y="481" on="0"/>
        <pt x="141" y="571" on="0"/>
        <pt x="139" y="648" on="0"/>
        <pt x="137" y="716" on="0"/>
        <pt x="137" y="750" on="1"/>
        <pt x="137" y="765" on="0"/>
        <pt x="122" y="780" on="0"/>
        <pt x="99" y="788" on="0"/>
        <pt x="74" y="789" on="0"/>
        <pt x="64" y="789" on="1"/>
        <pt x="47" y="789" on="0"/>
        <pt x="24" y="793" on="0"/>
        <pt x="24" y="804" on="1"/>
        <pt x="24" y="815" on="0"/>
        <pt x="50" y="821" on="0"/>
        <pt x="65" y="821" on="1"/>
        <pt x="98" y="821" on="0"/>
        <pt x="168" y="820" on="0"/>
        <pt x="232" y="820" on="0"/>
        <pt x="287" y="819" on="0"/>
        <pt x="306" y="819" on="1"/>
        <pt x="343" y="819" on="0"/>
        <pt x="390" y="820" on="0"/>
        <pt x="435" y="820" on="0"/>
        <pt x="489" y="821" on="0"/>
        <pt x="533" y="821" on="1"/>
        <pt x="547" y="821" on="0"/>
        <pt x="561" y="806" on="0"/>
        <pt x="561" y="785" on="1"/>
        <pt x="561" y="651" on="1"/>
        <pt x="561" y="632" on="0"/>
        <pt x="555" y="605" on="0"/>
        <pt x="544" y="605" on="1"/>
        <pt x="529" y="605" on="0"/>
        <pt x="524" y="631" on="0"/>
        <pt x="524" y="645" on="1"/>
        <pt x="524" y="757" on="1"/>
        <pt x="524" y="776" on="0"/>
        <pt x="497" y="785" on="0"/>
        <pt x="487" y="785" on="1"/>
        <pt x="184" y="785" on="1"/>
        <pt x="184" y="440" on="1"/>
        <pt x="213" y="439" on="0"/>
        <pt x="269" y="437" on="0"/>
        <pt x="298" y="437" on="1"/>
        <pt x="312" y="437" on="0"/>
        <pt x="346" y="438" on="0"/>
        <pt x="377" y="439" on="0"/>
        <pt x="401" y="440" on="0"/>
        <pt x="406" y="440" on="1"/>
        <pt x="412" y="440" on="0"/>
        <pt x="419" y="461" on="0"/>
        <pt x="422" y="490" on="0"/>
        <pt x="423" y="521" on="0"/>
        <pt x="423" y="530" on="1"/>
        <pt x="423" y="531" on="0"/>
        <pt x="424" y="541" on="0"/>
        <pt x="427" y="552" on="0"/>
        <pt x="434" y="560" on="0"/>
        <pt x="440" y="560" on="1"/>
        <pt x="452" y="560" on="0"/>
        <pt x="457" y="544" on="0"/>
        <pt x="457" y="533" on="1"/>
        <pt x="457" y="504" on="0"/>
        <pt x="455" y="449" on="0"/>
        <pt x="455" y="420" on="1"/>
        <pt x="455" y="391" on="0"/>
        <pt x="457" y="335" on="0"/>
        <pt x="457" y="307" on="1"/>
        <pt x="457" y="290" on="0"/>
        <pt x="446" y="280" on="0"/>
        <pt x="442" y="280" on="1"/>
        <pt x="435" y="280" on="0"/>
        <pt x="425" y="296" on="0"/>
        <pt x="425" y="309" on="1"/>
        <pt x="425" y="322" on="0"/>
        <pt x="421" y="355" on="0"/>
        <pt x="411" y="383" on="0"/>
        <pt x="392" y="402" on="0"/>
        <pt x="377" y="402" on="1"/>
        <pt x="363" y="402" on="0"/>
        <pt x="327" y="403" on="0"/>
        <pt x="298" y="403" on="1"/>
        <pt x="269" y="403" on="0"/>
        <pt x="213" y="402" on="0"/>
        <pt x="184" y="401" on="1"/>
        <pt x="184" y="36" on="1"/>
        <pt x="513" y="36" on="1"/>
        <pt x="520" y="36" on="0"/>
        <pt x="535" y="38" on="0"/>
        <pt x="547" y="45" on="0"/>
        <pt x="555" y="60" on="0"/>
        <pt x="556" y="73" on="1"/>
        <pt x="557" y="86" on="0"/>
        <pt x="561" y="137" on="0"/>
        <pt x="565" y="195" on="0"/>
        <pt x="568" y="252" on="0"/>
        <pt x="569" y="273" on="1"/>
        <pt x="570" y="293" on="0"/>
        <pt x="581" y="310" on="0"/>
      </contour>
    </TTGlyph>
    <TTGlyph name="Ecircumflex" xMin="21" yMin="0" xMax="605" yMax="972">
      <contour>
        <pt x="445" y="875" on="1"/>
        <pt x="440" y="875" on="0"/>
        <pt x="414" y="885" on="0"/>
        <pt x="380" y="901" on="0"/>
        <pt x="342" y="919" on="0"/>
        <pt x="325" y="928" on="1"/>
        <pt x="308" y="919" on="0"/>
        <pt x="270" y="901" on="0"/>
        <pt x="236" y="885" on="0"/>
        <pt x="211" y="875" on="0"/>
        <pt x="206" y="875" on="1"/>
        <pt x="198" y="875" on="0"/>
        <pt x="198" y="886" on="1"/>
        <pt x="198" y="895" on="0"/>
        <pt x="231" y="925" on="0"/>
        <pt x="275" y="952" on="0"/>
        <pt x="316" y="972" on="0"/>
        <pt x="325" y="972" on="1"/>
        <pt x="334" y="972" on="0"/>
        <pt x="377" y="952" on="0"/>
        <pt x="420" y="925" on="0"/>
        <pt x="453" y="895" on="0"/>
        <pt x="453" y="886" on="1"/>
        <pt x="453" y="875" on="0"/>
      </contour>
      <contour>
        <pt x="586" y="310" on="1"/>
        <pt x="600" y="310" on="0"/>
        <pt x="605" y="289" on="0"/>
        <pt x="605" y="277" on="1"/>
        <pt x="605" y="268" on="0"/>
        <pt x="602" y="213" on="0"/>
        <pt x="597" y="141" on="0"/>
        <pt x="592" y="63" on="0"/>
        <pt x="589" y="33" on="1"/>
        <pt x="587" y="8" on="0"/>
        <pt x="567" y="0" on="0"/>
        <pt x="547" y="0" on="1"/>
        <pt x="486" y="0" on="0"/>
        <pt x="371" y="2" on="0"/>
        <pt x="310" y="2" on="1"/>
        <pt x="249" y="2" on="0"/>
        <pt x="128" y="1" on="0"/>
        <pt x="67" y="0" on="1"/>
        <pt x="52" y="0" on="0"/>
        <pt x="21" y="3" on="0"/>
        <pt x="21" y="11" on="1"/>
        <pt x="21" y="22" on="0"/>
        <pt x="40" y="28" on="0"/>
        <pt x="60" y="28" on="1"/>
        <pt x="107" y="28" on="0"/>
        <pt x="141" y="43" on="0"/>
        <pt x="141" y="64" on="1"/>
        <pt x="141" y="99" on="0"/>
        <pt x="141" y="152" on="0"/>
        <pt x="142" y="199" on="0"/>
        <pt x="142" y="245" on="0"/>
        <pt x="143" y="302" on="0"/>
        <pt x="143" y="375" on="0"/>
        <pt x="143" y="425" on="1"/>
        <pt x="143" y="481" on="0"/>
        <pt x="141" y="571" on="0"/>
        <pt x="139" y="648" on="0"/>
        <pt x="137" y="716" on="0"/>
        <pt x="137" y="750" on="1"/>
        <pt x="137" y="765" on="0"/>
        <pt x="122" y="780" on="0"/>
        <pt x="99" y="788" on="0"/>
        <pt x="74" y="789" on="0"/>
        <pt x="64" y="789" on="1"/>
        <pt x="47" y="789" on="0"/>
        <pt x="24" y="793" on="0"/>
        <pt x="24" y="804" on="1"/>
        <pt x="24" y="815" on="0"/>
        <pt x="50" y="821" on="0"/>
        <pt x="65" y="821" on="1"/>
        <pt x="98" y="821" on="0"/>
        <pt x="168" y="820" on="0"/>
        <pt x="232" y="820" on="0"/>
        <pt x="287" y="819" on="0"/>
        <pt x="306" y="819" on="1"/>
        <pt x="343" y="819" on="0"/>
        <pt x="390" y="820" on="0"/>
        <pt x="435" y="820" on="0"/>
        <pt x="489" y="821" on="0"/>
        <pt x="533" y="821" on="1"/>
        <pt x="547" y="821" on="0"/>
        <pt x="561" y="806" on="0"/>
        <pt x="561" y="785" on="1"/>
        <pt x="561" y="651" on="1"/>
        <pt x="561" y="632" on="0"/>
        <pt x="555" y="605" on="0"/>
        <pt x="544" y="605" on="1"/>
        <pt x="529" y="605" on="0"/>
        <pt x="524" y="631" on="0"/>
        <pt x="524" y="645" on="1"/>
        <pt x="524" y="757" on="1"/>
        <pt x="524" y="776" on="0"/>
        <pt x="497" y="785" on="0"/>
        <pt x="487" y="785" on="1"/>
        <pt x="184" y="785" on="1"/>
        <pt x="184" y="440" on="1"/>
        <pt x="213" y="439" on="0"/>
        <pt x="269" y="437" on="0"/>
        <pt x="298" y="437" on="1"/>
        <pt x="312" y="437" on="0"/>
        <pt x="346" y="438" on="0"/>
        <pt x="377" y="439" on="0"/>
        <pt x="401" y="440" on="0"/>
        <pt x="406" y="440" on="1"/>
        <pt x="412" y="440" on="0"/>
        <pt x="419" y="461" on="0"/>
        <pt x="422" y="490" on="0"/>
        <pt x="423" y="521" on="0"/>
        <pt x="423" y="530" on="1"/>
        <pt x="423" y="531" on="0"/>
        <pt x="424" y="541" on="0"/>
        <pt x="427" y="552" on="0"/>
        <pt x="434" y="560" on="0"/>
        <pt x="440" y="560" on="1"/>
        <pt x="452" y="560" on="0"/>
        <pt x="457" y="544" on="0"/>
        <pt x="457" y="533" on="1"/>
        <pt x="457" y="504" on="0"/>
        <pt x="455" y="449" on="0"/>
        <pt x="455" y="420" on="1"/>
        <pt x="455" y="391" on="0"/>
        <pt x="457" y="335" on="0"/>
        <pt x="457" y="307" on="1"/>
        <pt x="457" y="290" on="0"/>
        <pt x="446" y="280" on="0"/>
        <pt x="442" y="280" on="1"/>
        <pt x="435" y="280" on="0"/>
        <pt x="425" y="296" on="0"/>
        <pt x="425" y="309" on="1"/>
        <pt x="425" y="322" on="0"/>
        <pt x="421" y="355" on="0"/>
        <pt x="411" y="383" on="0"/>
        <pt x="392" y="402" on="0"/>
        <pt x="377" y="402" on="1"/>
        <pt x="363" y="402" on="0"/>
        <pt x="327" y="403" on="0"/>
        <pt x="298" y="403" on="1"/>
        <pt x="269" y="403" on="0"/>
        <pt x="213" y="402" on="0"/>
        <pt x="184" y="401" on="1"/>
        <pt x="184" y="36" on="1"/>
        <pt x="513" y="36" on="1"/>
        <pt x="520" y="36" on="0"/>
        <pt x="535" y="38" on="0"/>
        <pt x="547" y="45" on="0"/>
        <pt x="555" y="60" on="0"/>
        <pt x="556" y="73" on="1"/>
        <pt x="557" y="86" on="0"/>
        <pt x="561" y="137" on="0"/>
        <pt x="565" y="195" on="0"/>
        <pt x="568" y="252" on="0"/>
        <pt x="569" y="273" on="1"/>
        <pt x="570" y="293" on="0"/>
        <pt x="581" y="310" on="0"/>
      </contour>
    </TTGlyph>
    <TTGlyph name="Edieresis" xMin="21" yMin="0" xMax="605" yMax="972">
      <contour>
        <pt x="186" y="931" on="1"/>
        <pt x="186" y="936" on="0"/>
        <pt x="191" y="950" on="0"/>
        <pt x="201" y="963" on="0"/>
        <pt x="216" y="972" on="0"/>
        <pt x="227" y="972" on="1"/>
        <pt x="241" y="972" on="0"/>
        <pt x="261" y="952" on="0"/>
        <pt x="261" y="935" on="1"/>
        <pt x="261" y="908" on="0"/>
        <pt x="234" y="889" on="0"/>
        <pt x="220" y="889" on="1"/>
        <pt x="206" y="889" on="0"/>
        <pt x="186" y="913" on="0"/>
      </contour>
      <contour>
        <pt x="393" y="917" on="1"/>
        <pt x="393" y="922" on="0"/>
        <pt x="398" y="936" on="0"/>
        <pt x="408" y="949" on="0"/>
        <pt x="423" y="958" on="0"/>
        <pt x="434" y="958" on="1"/>
        <pt x="448" y="958" on="0"/>
        <pt x="468" y="938" on="0"/>
        <pt x="468" y="921" on="1"/>
        <pt x="468" y="894" on="0"/>
        <pt x="441" y="875" on="0"/>
        <pt x="427" y="875" on="1"/>
        <pt x="413" y="875" on="0"/>
        <pt x="393" y="899" on="0"/>
      </contour>
      <contour>
        <pt x="586" y="310" on="1"/>
        <pt x="600" y="310" on="0"/>
        <pt x="605" y="289" on="0"/>
        <pt x="605" y="277" on="1"/>
        <pt x="605" y="268" on="0"/>
        <pt x="602" y="213" on="0"/>
        <pt x="597" y="141" on="0"/>
        <pt x="592" y="63" on="0"/>
        <pt x="589" y="33" on="1"/>
        <pt x="587" y="8" on="0"/>
        <pt x="567" y="0" on="0"/>
        <pt x="547" y="0" on="1"/>
        <pt x="486" y="0" on="0"/>
        <pt x="371" y="2" on="0"/>
        <pt x="310" y="2" on="1"/>
        <pt x="249" y="2" on="0"/>
        <pt x="128" y="1" on="0"/>
        <pt x="67" y="0" on="1"/>
        <pt x="52" y="0" on="0"/>
        <pt x="21" y="3" on="0"/>
        <pt x="21" y="11" on="1"/>
        <pt x="21" y="22" on="0"/>
        <pt x="40" y="28" on="0"/>
        <pt x="60" y="28" on="1"/>
        <pt x="107" y="28" on="0"/>
        <pt x="141" y="43" on="0"/>
        <pt x="141" y="64" on="1"/>
        <pt x="141" y="99" on="0"/>
        <pt x="141" y="152" on="0"/>
        <pt x="142" y="199" on="0"/>
        <pt x="142" y="245" on="0"/>
        <pt x="143" y="302" on="0"/>
        <pt x="143" y="375" on="0"/>
        <pt x="143" y="425" on="1"/>
        <pt x="143" y="481" on="0"/>
        <pt x="141" y="571" on="0"/>
        <pt x="139" y="648" on="0"/>
        <pt x="137" y="716" on="0"/>
        <pt x="137" y="750" on="1"/>
        <pt x="137" y="765" on="0"/>
        <pt x="122" y="780" on="0"/>
        <pt x="99" y="788" on="0"/>
        <pt x="74" y="789" on="0"/>
        <pt x="64" y="789" on="1"/>
        <pt x="47" y="789" on="0"/>
        <pt x="24" y="793" on="0"/>
        <pt x="24" y="804" on="1"/>
        <pt x="24" y="815" on="0"/>
        <pt x="50" y="821" on="0"/>
        <pt x="65" y="821" on="1"/>
        <pt x="98" y="821" on="0"/>
        <pt x="168" y="820" on="0"/>
        <pt x="232" y="820" on="0"/>
        <pt x="287" y="819" on="0"/>
        <pt x="306" y="819" on="1"/>
        <pt x="343" y="819" on="0"/>
        <pt x="390" y="820" on="0"/>
        <pt x="435" y="820" on="0"/>
        <pt x="489" y="821" on="0"/>
        <pt x="533" y="821" on="1"/>
        <pt x="547" y="821" on="0"/>
        <pt x="561" y="806" on="0"/>
        <pt x="561" y="785" on="1"/>
        <pt x="561" y="651" on="1"/>
        <pt x="561" y="632" on="0"/>
        <pt x="555" y="605" on="0"/>
        <pt x="544" y="605" on="1"/>
        <pt x="529" y="605" on="0"/>
        <pt x="524" y="631" on="0"/>
        <pt x="524" y="645" on="1"/>
        <pt x="524" y="757" on="1"/>
        <pt x="524" y="776" on="0"/>
        <pt x="497" y="785" on="0"/>
        <pt x="487" y="785" on="1"/>
        <pt x="184" y="785" on="1"/>
        <pt x="184" y="440" on="1"/>
        <pt x="213" y="439" on="0"/>
        <pt x="269" y="437" on="0"/>
        <pt x="298" y="437" on="1"/>
        <pt x="312" y="437" on="0"/>
        <pt x="346" y="438" on="0"/>
        <pt x="377" y="439" on="0"/>
        <pt x="401" y="440" on="0"/>
        <pt x="406" y="440" on="1"/>
        <pt x="412" y="440" on="0"/>
        <pt x="419" y="461" on="0"/>
        <pt x="422" y="490" on="0"/>
        <pt x="423" y="521" on="0"/>
        <pt x="423" y="530" on="1"/>
        <pt x="423" y="531" on="0"/>
        <pt x="424" y="541" on="0"/>
        <pt x="427" y="552" on="0"/>
        <pt x="434" y="560" on="0"/>
        <pt x="440" y="560" on="1"/>
        <pt x="452" y="560" on="0"/>
        <pt x="457" y="544" on="0"/>
        <pt x="457" y="533" on="1"/>
        <pt x="457" y="504" on="0"/>
        <pt x="455" y="449" on="0"/>
        <pt x="455" y="420" on="1"/>
        <pt x="455" y="391" on="0"/>
        <pt x="457" y="335" on="0"/>
        <pt x="457" y="307" on="1"/>
        <pt x="457" y="290" on="0"/>
        <pt x="446" y="280" on="0"/>
        <pt x="442" y="280" on="1"/>
        <pt x="435" y="280" on="0"/>
        <pt x="425" y="296" on="0"/>
        <pt x="425" y="309" on="1"/>
        <pt x="425" y="322" on="0"/>
        <pt x="421" y="355" on="0"/>
        <pt x="411" y="383" on="0"/>
        <pt x="392" y="402" on="0"/>
        <pt x="377" y="402" on="1"/>
        <pt x="363" y="402" on="0"/>
        <pt x="327" y="403" on="0"/>
        <pt x="298" y="403" on="1"/>
        <pt x="269" y="403" on="0"/>
        <pt x="213" y="402" on="0"/>
        <pt x="184" y="401" on="1"/>
        <pt x="184" y="36" on="1"/>
        <pt x="513" y="36" on="1"/>
        <pt x="520" y="36" on="0"/>
        <pt x="535" y="38" on="0"/>
        <pt x="547" y="45" on="0"/>
        <pt x="555" y="60" on="0"/>
        <pt x="556" y="73" on="1"/>
        <pt x="557" y="86" on="0"/>
        <pt x="561" y="137" on="0"/>
        <pt x="565" y="195" on="0"/>
        <pt x="568" y="252" on="0"/>
        <pt x="569" y="273" on="1"/>
        <pt x="570" y="293" on="0"/>
        <pt x="581" y="310" on="0"/>
      </contour>
    </TTGlyph>
    <TTGlyph name="Edotaccent" xMin="21" yMin="0" xMax="605" yMax="972">
      <contour>
        <pt x="586" y="310" on="1"/>
        <pt x="600" y="310" on="0"/>
        <pt x="605" y="289" on="0"/>
        <pt x="605" y="277" on="1"/>
        <pt x="605" y="268" on="0"/>
        <pt x="602" y="213" on="0"/>
        <pt x="597" y="141" on="0"/>
        <pt x="592" y="63" on="0"/>
        <pt x="589" y="33" on="1"/>
        <pt x="587" y="8" on="0"/>
        <pt x="567" y="0" on="0"/>
        <pt x="547" y="0" on="1"/>
        <pt x="486" y="0" on="0"/>
        <pt x="371" y="2" on="0"/>
        <pt x="310" y="2" on="1"/>
        <pt x="249" y="2" on="0"/>
        <pt x="128" y="1" on="0"/>
        <pt x="67" y="0" on="1"/>
        <pt x="52" y="0" on="0"/>
        <pt x="21" y="3" on="0"/>
        <pt x="21" y="11" on="1"/>
        <pt x="21" y="22" on="0"/>
        <pt x="40" y="28" on="0"/>
        <pt x="60" y="28" on="1"/>
        <pt x="107" y="28" on="0"/>
        <pt x="141" y="43" on="0"/>
        <pt x="141" y="64" on="1"/>
        <pt x="141" y="99" on="0"/>
        <pt x="141" y="152" on="0"/>
        <pt x="142" y="199" on="0"/>
        <pt x="142" y="245" on="0"/>
        <pt x="143" y="302" on="0"/>
        <pt x="143" y="375" on="0"/>
        <pt x="143" y="425" on="1"/>
        <pt x="143" y="481" on="0"/>
        <pt x="141" y="571" on="0"/>
        <pt x="139" y="648" on="0"/>
        <pt x="137" y="716" on="0"/>
        <pt x="137" y="750" on="1"/>
        <pt x="137" y="765" on="0"/>
        <pt x="122" y="780" on="0"/>
        <pt x="99" y="788" on="0"/>
        <pt x="74" y="789" on="0"/>
        <pt x="64" y="789" on="1"/>
        <pt x="47" y="789" on="0"/>
        <pt x="24" y="793" on="0"/>
        <pt x="24" y="804" on="1"/>
        <pt x="24" y="815" on="0"/>
        <pt x="50" y="821" on="0"/>
        <pt x="65" y="821" on="1"/>
        <pt x="98" y="821" on="0"/>
        <pt x="168" y="820" on="0"/>
        <pt x="232" y="820" on="0"/>
        <pt x="287" y="819" on="0"/>
        <pt x="306" y="819" on="1"/>
        <pt x="343" y="819" on="0"/>
        <pt x="390" y="820" on="0"/>
        <pt x="435" y="820" on="0"/>
        <pt x="489" y="821" on="0"/>
        <pt x="533" y="821" on="1"/>
        <pt x="547" y="821" on="0"/>
        <pt x="561" y="806" on="0"/>
        <pt x="561" y="785" on="1"/>
        <pt x="561" y="651" on="1"/>
        <pt x="561" y="632" on="0"/>
        <pt x="555" y="605" on="0"/>
        <pt x="544" y="605" on="1"/>
        <pt x="529" y="605" on="0"/>
        <pt x="524" y="631" on="0"/>
        <pt x="524" y="645" on="1"/>
        <pt x="524" y="757" on="1"/>
        <pt x="524" y="776" on="0"/>
        <pt x="497" y="785" on="0"/>
        <pt x="487" y="785" on="1"/>
        <pt x="184" y="785" on="1"/>
        <pt x="184" y="440" on="1"/>
        <pt x="213" y="439" on="0"/>
        <pt x="269" y="437" on="0"/>
        <pt x="298" y="437" on="1"/>
        <pt x="312" y="437" on="0"/>
        <pt x="346" y="438" on="0"/>
        <pt x="377" y="439" on="0"/>
        <pt x="401" y="440" on="0"/>
        <pt x="406" y="440" on="1"/>
        <pt x="412" y="440" on="0"/>
        <pt x="419" y="461" on="0"/>
        <pt x="422" y="490" on="0"/>
        <pt x="423" y="521" on="0"/>
        <pt x="423" y="530" on="1"/>
        <pt x="423" y="531" on="0"/>
        <pt x="424" y="541" on="0"/>
        <pt x="427" y="552" on="0"/>
        <pt x="434" y="560" on="0"/>
        <pt x="440" y="560" on="1"/>
        <pt x="452" y="560" on="0"/>
        <pt x="457" y="544" on="0"/>
        <pt x="457" y="533" on="1"/>
        <pt x="457" y="504" on="0"/>
        <pt x="455" y="449" on="0"/>
        <pt x="455" y="420" on="1"/>
        <pt x="455" y="391" on="0"/>
        <pt x="457" y="335" on="0"/>
        <pt x="457" y="307" on="1"/>
        <pt x="457" y="290" on="0"/>
        <pt x="446" y="280" on="0"/>
        <pt x="442" y="280" on="1"/>
        <pt x="435" y="280" on="0"/>
        <pt x="425" y="296" on="0"/>
        <pt x="425" y="309" on="1"/>
        <pt x="425" y="322" on="0"/>
        <pt x="421" y="355" on="0"/>
        <pt x="411" y="383" on="0"/>
        <pt x="392" y="402" on="0"/>
        <pt x="377" y="402" on="1"/>
        <pt x="363" y="402" on="0"/>
        <pt x="327" y="403" on="0"/>
        <pt x="298" y="403" on="1"/>
        <pt x="269" y="403" on="0"/>
        <pt x="213" y="402" on="0"/>
        <pt x="184" y="401" on="1"/>
        <pt x="184" y="36" on="1"/>
        <pt x="513" y="36" on="1"/>
        <pt x="520" y="36" on="0"/>
        <pt x="535" y="38" on="0"/>
        <pt x="547" y="45" on="0"/>
        <pt x="555" y="60" on="0"/>
        <pt x="556" y="73" on="1"/>
        <pt x="557" y="86" on="0"/>
        <pt x="561" y="137" on="0"/>
        <pt x="565" y="195" on="0"/>
        <pt x="568" y="252" on="0"/>
        <pt x="569" y="273" on="1"/>
        <pt x="570" y="293" on="0"/>
        <pt x="581" y="310" on="0"/>
      </contour>
      <contour>
        <pt x="291" y="931" on="1"/>
        <pt x="291" y="936" on="0"/>
        <pt x="296" y="950" on="0"/>
        <pt x="306" y="963" on="0"/>
        <pt x="321" y="972" on="0"/>
        <pt x="332" y="972" on="1"/>
        <pt x="346" y="972" on="0"/>
        <pt x="366" y="952" on="0"/>
        <pt x="366" y="935" on="1"/>
        <pt x="366" y="908" on="0"/>
        <pt x="339" y="889" on="0"/>
        <pt x="325" y="889" on="1"/>
        <pt x="311" y="889" on="0"/>
        <pt x="291" y="913" on="0"/>
      </contour>
    </TTGlyph>
    <TTGlyph name="Egrave" xMin="21" yMin="0" xMax="605" yMax="972">
      <contour>
        <pt x="269" y="950" on="1"/>
        <pt x="269" y="964" on="0"/>
        <pt x="280" y="972" on="0"/>
        <pt x="288" y="972" on="1"/>
        <pt x="295" y="972" on="0"/>
        <pt x="327" y="952" on="0"/>
        <pt x="359" y="925" on="0"/>
        <pt x="383" y="895" on="0"/>
        <pt x="383" y="886" on="1"/>
        <pt x="383" y="875" on="0"/>
        <pt x="375" y="875" on="1"/>
        <pt x="368" y="875" on="0"/>
        <pt x="333" y="893" on="0"/>
        <pt x="297" y="917" on="0"/>
        <pt x="269" y="942" on="0"/>
      </contour>
      <contour>
        <pt x="586" y="310" on="1"/>
        <pt x="600" y="310" on="0"/>
        <pt x="605" y="289" on="0"/>
        <pt x="605" y="277" on="1"/>
        <pt x="605" y="268" on="0"/>
        <pt x="602" y="213" on="0"/>
        <pt x="597" y="141" on="0"/>
        <pt x="592" y="63" on="0"/>
        <pt x="589" y="33" on="1"/>
        <pt x="587" y="8" on="0"/>
        <pt x="567" y="0" on="0"/>
        <pt x="547" y="0" on="1"/>
        <pt x="486" y="0" on="0"/>
        <pt x="371" y="2" on="0"/>
        <pt x="310" y="2" on="1"/>
        <pt x="249" y="2" on="0"/>
        <pt x="128" y="1" on="0"/>
        <pt x="67" y="0" on="1"/>
        <pt x="52" y="0" on="0"/>
        <pt x="21" y="3" on="0"/>
        <pt x="21" y="11" on="1"/>
        <pt x="21" y="22" on="0"/>
        <pt x="40" y="28" on="0"/>
        <pt x="60" y="28" on="1"/>
        <pt x="107" y="28" on="0"/>
        <pt x="141" y="43" on="0"/>
        <pt x="141" y="64" on="1"/>
        <pt x="141" y="99" on="0"/>
        <pt x="141" y="152" on="0"/>
        <pt x="142" y="199" on="0"/>
        <pt x="142" y="245" on="0"/>
        <pt x="143" y="302" on="0"/>
        <pt x="143" y="375" on="0"/>
        <pt x="143" y="425" on="1"/>
        <pt x="143" y="481" on="0"/>
        <pt x="141" y="571" on="0"/>
        <pt x="139" y="648" on="0"/>
        <pt x="137" y="716" on="0"/>
        <pt x="137" y="750" on="1"/>
        <pt x="137" y="765" on="0"/>
        <pt x="122" y="780" on="0"/>
        <pt x="99" y="788" on="0"/>
        <pt x="74" y="789" on="0"/>
        <pt x="64" y="789" on="1"/>
        <pt x="47" y="789" on="0"/>
        <pt x="24" y="793" on="0"/>
        <pt x="24" y="804" on="1"/>
        <pt x="24" y="815" on="0"/>
        <pt x="50" y="821" on="0"/>
        <pt x="65" y="821" on="1"/>
        <pt x="98" y="821" on="0"/>
        <pt x="168" y="820" on="0"/>
        <pt x="232" y="820" on="0"/>
        <pt x="287" y="819" on="0"/>
        <pt x="306" y="819" on="1"/>
        <pt x="343" y="819" on="0"/>
        <pt x="390" y="820" on="0"/>
        <pt x="435" y="820" on="0"/>
        <pt x="489" y="821" on="0"/>
        <pt x="533" y="821" on="1"/>
        <pt x="547" y="821" on="0"/>
        <pt x="561" y="806" on="0"/>
        <pt x="561" y="785" on="1"/>
        <pt x="561" y="651" on="1"/>
        <pt x="561" y="632" on="0"/>
        <pt x="555" y="605" on="0"/>
        <pt x="544" y="605" on="1"/>
        <pt x="529" y="605" on="0"/>
        <pt x="524" y="631" on="0"/>
        <pt x="524" y="645" on="1"/>
        <pt x="524" y="757" on="1"/>
        <pt x="524" y="776" on="0"/>
        <pt x="497" y="785" on="0"/>
        <pt x="487" y="785" on="1"/>
        <pt x="184" y="785" on="1"/>
        <pt x="184" y="440" on="1"/>
        <pt x="213" y="439" on="0"/>
        <pt x="269" y="437" on="0"/>
        <pt x="298" y="437" on="1"/>
        <pt x="312" y="437" on="0"/>
        <pt x="346" y="438" on="0"/>
        <pt x="377" y="439" on="0"/>
        <pt x="401" y="440" on="0"/>
        <pt x="406" y="440" on="1"/>
        <pt x="412" y="440" on="0"/>
        <pt x="419" y="461" on="0"/>
        <pt x="422" y="490" on="0"/>
        <pt x="423" y="521" on="0"/>
        <pt x="423" y="530" on="1"/>
        <pt x="423" y="531" on="0"/>
        <pt x="424" y="541" on="0"/>
        <pt x="427" y="552" on="0"/>
        <pt x="434" y="560" on="0"/>
        <pt x="440" y="560" on="1"/>
        <pt x="452" y="560" on="0"/>
        <pt x="457" y="544" on="0"/>
        <pt x="457" y="533" on="1"/>
        <pt x="457" y="504" on="0"/>
        <pt x="455" y="449" on="0"/>
        <pt x="455" y="420" on="1"/>
        <pt x="455" y="391" on="0"/>
        <pt x="457" y="335" on="0"/>
        <pt x="457" y="307" on="1"/>
        <pt x="457" y="290" on="0"/>
        <pt x="446" y="280" on="0"/>
        <pt x="442" y="280" on="1"/>
        <pt x="435" y="280" on="0"/>
        <pt x="425" y="296" on="0"/>
        <pt x="425" y="309" on="1"/>
        <pt x="425" y="322" on="0"/>
        <pt x="421" y="355" on="0"/>
        <pt x="411" y="383" on="0"/>
        <pt x="392" y="402" on="0"/>
        <pt x="377" y="402" on="1"/>
        <pt x="363" y="402" on="0"/>
        <pt x="327" y="403" on="0"/>
        <pt x="298" y="403" on="1"/>
        <pt x="269" y="403" on="0"/>
        <pt x="213" y="402" on="0"/>
        <pt x="184" y="401" on="1"/>
        <pt x="184" y="36" on="1"/>
        <pt x="513" y="36" on="1"/>
        <pt x="520" y="36" on="0"/>
        <pt x="535" y="38" on="0"/>
        <pt x="547" y="45" on="0"/>
        <pt x="555" y="60" on="0"/>
        <pt x="556" y="73" on="1"/>
        <pt x="557" y="86" on="0"/>
        <pt x="561" y="137" on="0"/>
        <pt x="565" y="195" on="0"/>
        <pt x="568" y="252" on="0"/>
        <pt x="569" y="273" on="1"/>
        <pt x="570" y="293" on="0"/>
        <pt x="581" y="310" on="0"/>
      </contour>
    </TTGlyph>
    <TTGlyph name="Emacron" xMin="21" yMin="0" xMax="605" yMax="907">
      <contour>
        <pt x="586" y="310" on="1"/>
        <pt x="600" y="310" on="0"/>
        <pt x="605" y="289" on="0"/>
        <pt x="605" y="277" on="1"/>
        <pt x="605" y="268" on="0"/>
        <pt x="602" y="213" on="0"/>
        <pt x="597" y="141" on="0"/>
        <pt x="592" y="63" on="0"/>
        <pt x="589" y="33" on="1"/>
        <pt x="587" y="8" on="0"/>
        <pt x="567" y="0" on="0"/>
        <pt x="547" y="0" on="1"/>
        <pt x="486" y="0" on="0"/>
        <pt x="371" y="2" on="0"/>
        <pt x="310" y="2" on="1"/>
        <pt x="249" y="2" on="0"/>
        <pt x="128" y="1" on="0"/>
        <pt x="67" y="0" on="1"/>
        <pt x="52" y="0" on="0"/>
        <pt x="21" y="3" on="0"/>
        <pt x="21" y="11" on="1"/>
        <pt x="21" y="22" on="0"/>
        <pt x="40" y="28" on="0"/>
        <pt x="60" y="28" on="1"/>
        <pt x="107" y="28" on="0"/>
        <pt x="141" y="43" on="0"/>
        <pt x="141" y="64" on="1"/>
        <pt x="141" y="99" on="0"/>
        <pt x="141" y="152" on="0"/>
        <pt x="142" y="199" on="0"/>
        <pt x="142" y="245" on="0"/>
        <pt x="143" y="302" on="0"/>
        <pt x="143" y="375" on="0"/>
        <pt x="143" y="425" on="1"/>
        <pt x="143" y="481" on="0"/>
        <pt x="141" y="571" on="0"/>
        <pt x="139" y="648" on="0"/>
        <pt x="137" y="716" on="0"/>
        <pt x="137" y="750" on="1"/>
        <pt x="137" y="765" on="0"/>
        <pt x="122" y="780" on="0"/>
        <pt x="99" y="788" on="0"/>
        <pt x="74" y="789" on="0"/>
        <pt x="64" y="789" on="1"/>
        <pt x="47" y="789" on="0"/>
        <pt x="24" y="793" on="0"/>
        <pt x="24" y="804" on="1"/>
        <pt x="24" y="815" on="0"/>
        <pt x="50" y="821" on="0"/>
        <pt x="65" y="821" on="1"/>
        <pt x="98" y="821" on="0"/>
        <pt x="168" y="820" on="0"/>
        <pt x="232" y="820" on="0"/>
        <pt x="287" y="819" on="0"/>
        <pt x="306" y="819" on="1"/>
        <pt x="343" y="819" on="0"/>
        <pt x="390" y="820" on="0"/>
        <pt x="435" y="820" on="0"/>
        <pt x="489" y="821" on="0"/>
        <pt x="533" y="821" on="1"/>
        <pt x="547" y="821" on="0"/>
        <pt x="561" y="806" on="0"/>
        <pt x="561" y="785" on="1"/>
        <pt x="561" y="651" on="1"/>
        <pt x="561" y="632" on="0"/>
        <pt x="555" y="605" on="0"/>
        <pt x="544" y="605" on="1"/>
        <pt x="529" y="605" on="0"/>
        <pt x="524" y="631" on="0"/>
        <pt x="524" y="645" on="1"/>
        <pt x="524" y="757" on="1"/>
        <pt x="524" y="776" on="0"/>
        <pt x="497" y="785" on="0"/>
        <pt x="487" y="785" on="1"/>
        <pt x="184" y="785" on="1"/>
        <pt x="184" y="440" on="1"/>
        <pt x="213" y="439" on="0"/>
        <pt x="269" y="437" on="0"/>
        <pt x="298" y="437" on="1"/>
        <pt x="312" y="437" on="0"/>
        <pt x="346" y="438" on="0"/>
        <pt x="377" y="439" on="0"/>
        <pt x="401" y="440" on="0"/>
        <pt x="406" y="440" on="1"/>
        <pt x="412" y="440" on="0"/>
        <pt x="419" y="461" on="0"/>
        <pt x="422" y="490" on="0"/>
        <pt x="423" y="521" on="0"/>
        <pt x="423" y="530" on="1"/>
        <pt x="423" y="531" on="0"/>
        <pt x="424" y="541" on="0"/>
        <pt x="427" y="552" on="0"/>
        <pt x="434" y="560" on="0"/>
        <pt x="440" y="560" on="1"/>
        <pt x="452" y="560" on="0"/>
        <pt x="457" y="544" on="0"/>
        <pt x="457" y="533" on="1"/>
        <pt x="457" y="504" on="0"/>
        <pt x="455" y="449" on="0"/>
        <pt x="455" y="420" on="1"/>
        <pt x="455" y="391" on="0"/>
        <pt x="457" y="335" on="0"/>
        <pt x="457" y="307" on="1"/>
        <pt x="457" y="290" on="0"/>
        <pt x="446" y="280" on="0"/>
        <pt x="442" y="280" on="1"/>
        <pt x="435" y="280" on="0"/>
        <pt x="425" y="296" on="0"/>
        <pt x="425" y="309" on="1"/>
        <pt x="425" y="322" on="0"/>
        <pt x="421" y="355" on="0"/>
        <pt x="411" y="383" on="0"/>
        <pt x="392" y="402" on="0"/>
        <pt x="377" y="402" on="1"/>
        <pt x="363" y="402" on="0"/>
        <pt x="327" y="403" on="0"/>
        <pt x="298" y="403" on="1"/>
        <pt x="269" y="403" on="0"/>
        <pt x="213" y="402" on="0"/>
        <pt x="184" y="401" on="1"/>
        <pt x="184" y="36" on="1"/>
        <pt x="513" y="36" on="1"/>
        <pt x="520" y="36" on="0"/>
        <pt x="535" y="38" on="0"/>
        <pt x="547" y="45" on="0"/>
        <pt x="555" y="60" on="0"/>
        <pt x="556" y="73" on="1"/>
        <pt x="557" y="86" on="0"/>
        <pt x="561" y="137" on="0"/>
        <pt x="565" y="195" on="0"/>
        <pt x="568" y="252" on="0"/>
        <pt x="569" y="273" on="1"/>
        <pt x="570" y="293" on="0"/>
        <pt x="581" y="310" on="0"/>
      </contour>
      <contour>
        <pt x="466" y="907" on="1"/>
        <pt x="470" y="907" on="0"/>
        <pt x="477" y="899" on="0"/>
        <pt x="477" y="894" on="1"/>
        <pt x="477" y="889" on="0"/>
        <pt x="469" y="876" on="0"/>
        <pt x="458" y="876" on="1"/>
        <pt x="438" y="876" on="0"/>
        <pt x="371" y="876" on="0"/>
        <pt x="299" y="875" on="0"/>
        <pt x="235" y="875" on="0"/>
        <pt x="217" y="875" on="1"/>
        <pt x="210" y="875" on="0"/>
        <pt x="201" y="886" on="0"/>
        <pt x="201" y="891" on="1"/>
        <pt x="201" y="896" on="0"/>
        <pt x="209" y="906" on="0"/>
        <pt x="217" y="906" on="1"/>
        <pt x="224" y="906" on="0"/>
        <pt x="254" y="905" on="0"/>
        <pt x="290" y="905" on="0"/>
        <pt x="325" y="904" on="0"/>
        <pt x="338" y="904" on="1"/>
        <pt x="380" y="904" on="0"/>
        <pt x="442" y="907" on="0"/>
      </contour>
    </TTGlyph>
    <TTGlyph name="Eng" xMin="15" yMin="-219" xMax="775" yMax="821">
      <contour>
        <pt x="403" y="-110" on="1"/>
        <pt x="403" y="-136" on="0"/>
        <pt x="423" y="-165" on="0"/>
        <pt x="451" y="-180" on="0"/>
        <pt x="482" y="-183" on="0"/>
        <pt x="493" y="-183" on="1"/>
        <pt x="527" y="-183" on="0"/>
        <pt x="570" y="-167" on="0"/>
        <pt x="595" y="-125" on="0"/>
        <pt x="607" y="-52" on="0"/>
        <pt x="610" y="6" on="1"/>
        <pt x="185" y="738" on="1"/>
        <pt x="185" y="31" on="1"/>
        <pt x="261" y="31" on="1"/>
        <pt x="272" y="31" on="0"/>
        <pt x="291" y="21" on="0"/>
        <pt x="291" y="13" on="1"/>
        <pt x="291" y="0" on="0"/>
        <pt x="271" y="0" on="1"/>
        <pt x="79" y="0" on="1"/>
        <pt x="64" y="0" on="0"/>
        <pt x="38" y="5" on="0"/>
        <pt x="38" y="14" on="1"/>
        <pt x="38" y="22" on="0"/>
        <pt x="57" y="28" on="0"/>
        <pt x="67" y="28" on="1"/>
        <pt x="102" y="28" on="0"/>
        <pt x="143" y="41" on="0"/>
        <pt x="143" y="74" on="1"/>
        <pt x="143" y="109" on="0"/>
        <pt x="143" y="163" on="0"/>
        <pt x="144" y="222" on="0"/>
        <pt x="144" y="296" on="0"/>
        <pt x="144" y="351" on="1"/>
        <pt x="144" y="379" on="0"/>
        <pt x="144" y="453" on="0"/>
        <pt x="143" y="532" on="0"/>
        <pt x="142" y="610" on="0"/>
        <pt x="141" y="673" on="0"/>
        <pt x="141" y="716" on="0"/>
        <pt x="141" y="721" on="1"/>
        <pt x="141" y="760" on="0"/>
        <pt x="103" y="788" on="0"/>
        <pt x="80" y="788" on="1"/>
        <pt x="41" y="788" on="0"/>
        <pt x="15" y="794" on="0"/>
        <pt x="15" y="805" on="1"/>
        <pt x="15" y="814" on="0"/>
        <pt x="35" y="821" on="0"/>
        <pt x="63" y="821" on="1"/>
        <pt x="171" y="821" on="1"/>
        <pt x="183" y="821" on="0"/>
        <pt x="197" y="807" on="0"/>
        <pt x="211" y="781" on="1"/>
        <pt x="248" y="717" on="0"/>
        <pt x="329" y="575" on="0"/>
        <pt x="410" y="434" on="0"/>
        <pt x="487" y="300" on="0"/>
        <pt x="552" y="187" on="0"/>
        <pt x="601" y="102" on="0"/>
        <pt x="613" y="80" on="1"/>
        <pt x="613" y="751" on="1"/>
        <pt x="613" y="760" on="0"/>
        <pt x="596" y="769" on="0"/>
        <pt x="571" y="773" on="0"/>
        <pt x="543" y="774" on="0"/>
        <pt x="533" y="774" on="1"/>
        <pt x="522" y="774" on="0"/>
        <pt x="496" y="779" on="0"/>
        <pt x="496" y="789" on="1"/>
        <pt x="496" y="800" on="0"/>
        <pt x="524" y="804" on="0"/>
        <pt x="533" y="804" on="1"/>
        <pt x="724" y="804" on="1"/>
        <pt x="756" y="804" on="0"/>
        <pt x="775" y="797" on="0"/>
        <pt x="775" y="789" on="1"/>
        <pt x="775" y="778" on="0"/>
        <pt x="750" y="774" on="0"/>
        <pt x="737" y="774" on="1"/>
        <pt x="730" y="774" on="0"/>
        <pt x="702" y="773" on="0"/>
        <pt x="675" y="768" on="0"/>
        <pt x="655" y="758" on="0"/>
        <pt x="655" y="749" on="1"/>
        <pt x="654" y="697" on="0"/>
        <pt x="653" y="636" on="0"/>
        <pt x="653" y="605" on="0"/>
        <pt x="653" y="595" on="0"/>
        <pt x="653" y="594" on="1"/>
        <pt x="653" y="471" on="0"/>
        <pt x="654" y="310" on="0"/>
        <pt x="654" y="206" on="0"/>
        <pt x="655" y="145" on="0"/>
        <pt x="655" y="122" on="1"/>
        <pt x="655" y="28" on="0"/>
        <pt x="641" y="-102" on="0"/>
        <pt x="605" y="-183" on="0"/>
        <pt x="544" y="-219" on="0"/>
        <pt x="496" y="-219" on="1"/>
        <pt x="473" y="-219" on="0"/>
        <pt x="427" y="-210" on="0"/>
        <pt x="391" y="-186" on="0"/>
        <pt x="368" y="-146" on="0"/>
        <pt x="368" y="-114" on="1"/>
        <pt x="368" y="-93" on="0"/>
        <pt x="379" y="-54" on="0"/>
        <pt x="399" y="-24" on="0"/>
        <pt x="429" y="-6" on="0"/>
        <pt x="447" y="-6" on="1"/>
        <pt x="465" y="-6" on="0"/>
        <pt x="488" y="-24" on="0"/>
        <pt x="488" y="-40" on="1"/>
        <pt x="488" y="-58" on="0"/>
        <pt x="463" y="-76" on="0"/>
        <pt x="451" y="-76" on="1"/>
        <pt x="443" y="-76" on="0"/>
        <pt x="429" y="-67" on="0"/>
        <pt x="424" y="-61" on="1"/>
        <pt x="411" y="-66" on="0"/>
        <pt x="403" y="-96" on="0"/>
      </contour>
    </TTGlyph>
    <TTGlyph name="Eogonek" xMin="21" yMin="-149" xMax="605" yMax="821">
      <contour>
        <pt x="586" y="310" on="1"/>
        <pt x="600" y="310" on="0"/>
        <pt x="605" y="289" on="0"/>
        <pt x="605" y="277" on="1"/>
        <pt x="605" y="268" on="0"/>
        <pt x="602" y="213" on="0"/>
        <pt x="597" y="141" on="0"/>
        <pt x="592" y="63" on="0"/>
        <pt x="589" y="33" on="1"/>
        <pt x="587" y="8" on="0"/>
        <pt x="567" y="0" on="0"/>
        <pt x="547" y="0" on="1"/>
        <pt x="490" y="0" on="0"/>
        <pt x="385" y="0" on="0"/>
        <pt x="330" y="1" on="1"/>
        <pt x="307" y="-16" on="0"/>
        <pt x="292" y="-64" on="0"/>
        <pt x="292" y="-75" on="1"/>
        <pt x="292" y="-81" on="0"/>
        <pt x="295" y="-97" on="0"/>
        <pt x="304" y="-112" on="0"/>
        <pt x="319" y="-122" on="0"/>
        <pt x="331" y="-122" on="1"/>
        <pt x="344" y="-122" on="0"/>
        <pt x="362" y="-110" on="0"/>
        <pt x="375" y="-95" on="0"/>
        <pt x="386" y="-82" on="0"/>
        <pt x="393" y="-82" on="1"/>
        <pt x="402" y="-82" on="0"/>
        <pt x="407" y="-92" on="0"/>
        <pt x="407" y="-98" on="1"/>
        <pt x="407" y="-102" on="0"/>
        <pt x="396" y="-119" on="0"/>
        <pt x="375" y="-136" on="0"/>
        <pt x="347" y="-149" on="0"/>
        <pt x="329" y="-149" on="1"/>
        <pt x="294" y="-149" on="0"/>
        <pt x="248" y="-108" on="0"/>
        <pt x="248" y="-76" on="1"/>
        <pt x="248" y="-47" on="0"/>
        <pt x="280" y="-9" on="0"/>
        <pt x="295" y="2" on="1"/>
        <pt x="238" y="2" on="0"/>
        <pt x="124" y="1" on="0"/>
        <pt x="67" y="0" on="1"/>
        <pt x="52" y="0" on="0"/>
        <pt x="21" y="3" on="0"/>
        <pt x="21" y="11" on="1"/>
        <pt x="21" y="22" on="0"/>
        <pt x="40" y="28" on="0"/>
        <pt x="60" y="28" on="1"/>
        <pt x="107" y="28" on="0"/>
        <pt x="141" y="43" on="0"/>
        <pt x="141" y="64" on="1"/>
        <pt x="141" y="99" on="0"/>
        <pt x="141" y="152" on="0"/>
        <pt x="142" y="199" on="0"/>
        <pt x="142" y="245" on="0"/>
        <pt x="143" y="302" on="0"/>
        <pt x="143" y="375" on="0"/>
        <pt x="143" y="425" on="1"/>
        <pt x="143" y="481" on="0"/>
        <pt x="141" y="571" on="0"/>
        <pt x="139" y="648" on="0"/>
        <pt x="137" y="716" on="0"/>
        <pt x="137" y="750" on="1"/>
        <pt x="137" y="765" on="0"/>
        <pt x="122" y="780" on="0"/>
        <pt x="99" y="788" on="0"/>
        <pt x="74" y="789" on="0"/>
        <pt x="64" y="789" on="1"/>
        <pt x="47" y="789" on="0"/>
        <pt x="24" y="793" on="0"/>
        <pt x="24" y="804" on="1"/>
        <pt x="24" y="815" on="0"/>
        <pt x="50" y="821" on="0"/>
        <pt x="65" y="821" on="1"/>
        <pt x="98" y="821" on="0"/>
        <pt x="168" y="820" on="0"/>
        <pt x="232" y="820" on="0"/>
        <pt x="287" y="819" on="0"/>
        <pt x="306" y="819" on="1"/>
        <pt x="343" y="819" on="0"/>
        <pt x="390" y="820" on="0"/>
        <pt x="435" y="820" on="0"/>
        <pt x="489" y="821" on="0"/>
        <pt x="533" y="821" on="1"/>
        <pt x="547" y="821" on="0"/>
        <pt x="561" y="806" on="0"/>
        <pt x="561" y="785" on="1"/>
        <pt x="561" y="651" on="1"/>
        <pt x="561" y="632" on="0"/>
        <pt x="555" y="605" on="0"/>
        <pt x="544" y="605" on="1"/>
        <pt x="529" y="605" on="0"/>
        <pt x="524" y="631" on="0"/>
        <pt x="524" y="645" on="1"/>
        <pt x="524" y="757" on="1"/>
        <pt x="524" y="776" on="0"/>
        <pt x="497" y="785" on="0"/>
        <pt x="487" y="785" on="1"/>
        <pt x="184" y="785" on="1"/>
        <pt x="184" y="440" on="1"/>
        <pt x="213" y="439" on="0"/>
        <pt x="269" y="437" on="0"/>
        <pt x="298" y="437" on="1"/>
        <pt x="312" y="437" on="0"/>
        <pt x="346" y="438" on="0"/>
        <pt x="377" y="439" on="0"/>
        <pt x="401" y="440" on="0"/>
        <pt x="406" y="440" on="1"/>
        <pt x="412" y="440" on="0"/>
        <pt x="419" y="461" on="0"/>
        <pt x="422" y="490" on="0"/>
        <pt x="423" y="521" on="0"/>
        <pt x="423" y="530" on="1"/>
        <pt x="423" y="531" on="0"/>
        <pt x="424" y="541" on="0"/>
        <pt x="427" y="552" on="0"/>
        <pt x="434" y="560" on="0"/>
        <pt x="440" y="560" on="1"/>
        <pt x="452" y="560" on="0"/>
        <pt x="457" y="544" on="0"/>
        <pt x="457" y="533" on="1"/>
        <pt x="457" y="504" on="0"/>
        <pt x="455" y="449" on="0"/>
        <pt x="455" y="420" on="1"/>
        <pt x="455" y="391" on="0"/>
        <pt x="457" y="335" on="0"/>
        <pt x="457" y="307" on="1"/>
        <pt x="457" y="290" on="0"/>
        <pt x="446" y="280" on="0"/>
        <pt x="442" y="280" on="1"/>
        <pt x="435" y="280" on="0"/>
        <pt x="425" y="296" on="0"/>
        <pt x="425" y="309" on="1"/>
        <pt x="425" y="322" on="0"/>
        <pt x="421" y="355" on="0"/>
        <pt x="411" y="383" on="0"/>
        <pt x="392" y="402" on="0"/>
        <pt x="377" y="402" on="1"/>
        <pt x="363" y="402" on="0"/>
        <pt x="327" y="403" on="0"/>
        <pt x="298" y="403" on="1"/>
        <pt x="269" y="403" on="0"/>
        <pt x="213" y="402" on="0"/>
        <pt x="184" y="401" on="1"/>
        <pt x="184" y="36" on="1"/>
        <pt x="513" y="36" on="1"/>
        <pt x="520" y="36" on="0"/>
        <pt x="535" y="38" on="0"/>
        <pt x="547" y="45" on="0"/>
        <pt x="555" y="60" on="0"/>
        <pt x="556" y="73" on="1"/>
        <pt x="557" y="86" on="0"/>
        <pt x="561" y="137" on="0"/>
        <pt x="565" y="195" on="0"/>
        <pt x="568" y="252" on="0"/>
        <pt x="569" y="273" on="1"/>
        <pt x="570" y="293" on="0"/>
        <pt x="581" y="310" on="0"/>
      </contour>
    </TTGlyph>
    <TTGlyph name="Eth" xMin="21" yMin="0" xMax="634" yMax="821">
      <contour>
        <pt x="45" y="818" on="1"/>
        <pt x="95" y="820" on="0"/>
        <pt x="190" y="821" on="0"/>
        <pt x="251" y="821" on="1"/>
        <pt x="314" y="821" on="0"/>
        <pt x="450" y="781" on="0"/>
        <pt x="562" y="691" on="0"/>
        <pt x="634" y="545" on="0"/>
        <pt x="634" y="439" on="1"/>
        <pt x="634" y="349" on="0"/>
        <pt x="585" y="189" on="0"/>
        <pt x="487" y="70" on="0"/>
        <pt x="339" y="0" on="0"/>
        <pt x="241" y="0" on="1"/>
        <pt x="57" y="0" on="1"/>
        <pt x="40" y="0" on="0"/>
        <pt x="21" y="4" on="0"/>
        <pt x="21" y="12" on="1"/>
        <pt x="21" y="19" on="0"/>
        <pt x="35" y="28" on="0"/>
        <pt x="52" y="28" on="1"/>
        <pt x="65" y="28" on="0"/>
        <pt x="96" y="29" on="0"/>
        <pt x="123" y="33" on="0"/>
        <pt x="141" y="43" on="0"/>
        <pt x="141" y="52" on="1"/>
        <pt x="141" y="104" on="0"/>
        <pt x="141" y="181" on="0"/>
        <pt x="142" y="254" on="0"/>
        <pt x="142" y="334" on="0"/>
        <pt x="142" y="389" on="1"/>
        <pt x="47" y="389" on="1"/>
        <pt x="40" y="389" on="0"/>
        <pt x="31" y="404" on="0"/>
        <pt x="31" y="409" on="1"/>
        <pt x="31" y="414" on="0"/>
        <pt x="39" y="428" on="0"/>
        <pt x="47" y="428" on="1"/>
        <pt x="58" y="428" on="0"/>
        <pt x="116" y="426" on="0"/>
        <pt x="142" y="426" on="1"/>
        <pt x="142" y="437" on="1"/>
        <pt x="142" y="456" on="0"/>
        <pt x="140" y="540" on="0"/>
        <pt x="137" y="634" on="0"/>
        <pt x="135" y="722" on="0"/>
        <pt x="135" y="747" on="1"/>
        <pt x="135" y="762" on="0"/>
        <pt x="123" y="779" on="0"/>
        <pt x="100" y="787" on="0"/>
        <pt x="68" y="789" on="0"/>
        <pt x="47" y="789" on="1"/>
        <pt x="34" y="789" on="0"/>
        <pt x="24" y="800" on="0"/>
        <pt x="24" y="805" on="1"/>
        <pt x="24" y="817" on="0"/>
      </contour>
      <contour>
        <pt x="245" y="786" on="1"/>
        <pt x="230" y="786" on="0"/>
        <pt x="198" y="783" on="0"/>
        <pt x="183" y="782" on="1"/>
        <pt x="183" y="426" on="1"/>
        <pt x="218" y="426" on="0"/>
        <pt x="274" y="429" on="0"/>
        <pt x="296" y="429" on="1"/>
        <pt x="300" y="429" on="0"/>
        <pt x="307" y="417" on="0"/>
        <pt x="307" y="412" on="1"/>
        <pt x="307" y="407" on="0"/>
        <pt x="299" y="390" on="0"/>
        <pt x="288" y="390" on="1"/>
        <pt x="271" y="390" on="0"/>
        <pt x="214" y="389" on="0"/>
        <pt x="183" y="389" on="1"/>
        <pt x="183" y="44" on="1"/>
        <pt x="183" y="40" on="0"/>
        <pt x="196" y="36" on="0"/>
        <pt x="214" y="34" on="0"/>
        <pt x="236" y="34" on="0"/>
        <pt x="245" y="34" on="1"/>
        <pt x="335" y="34" on="0"/>
        <pt x="465" y="96" on="0"/>
        <pt x="549" y="205" on="0"/>
        <pt x="589" y="353" on="0"/>
        <pt x="589" y="439" on="1"/>
        <pt x="589" y="511" on="0"/>
        <pt x="549" y="637" on="0"/>
        <pt x="465" y="731" on="0"/>
        <pt x="335" y="786" on="0"/>
      </contour>
    </TTGlyph>
    <TTGlyph name="Etilde" xMin="21" yMin="0" xMax="605" yMax="951">
      <contour>
        <pt x="586" y="310" on="1"/>
        <pt x="600" y="310" on="0"/>
        <pt x="605" y="289" on="0"/>
        <pt x="605" y="277" on="1"/>
        <pt x="605" y="268" on="0"/>
        <pt x="602" y="213" on="0"/>
        <pt x="597" y="141" on="0"/>
        <pt x="592" y="63" on="0"/>
        <pt x="589" y="33" on="1"/>
        <pt x="587" y="8" on="0"/>
        <pt x="567" y="0" on="0"/>
        <pt x="547" y="0" on="1"/>
        <pt x="486" y="0" on="0"/>
        <pt x="371" y="2" on="0"/>
        <pt x="310" y="2" on="1"/>
        <pt x="249" y="2" on="0"/>
        <pt x="128" y="1" on="0"/>
        <pt x="67" y="0" on="1"/>
        <pt x="52" y="0" on="0"/>
        <pt x="21" y="3" on="0"/>
        <pt x="21" y="11" on="1"/>
        <pt x="21" y="22" on="0"/>
        <pt x="40" y="28" on="0"/>
        <pt x="60" y="28" on="1"/>
        <pt x="107" y="28" on="0"/>
        <pt x="141" y="43" on="0"/>
        <pt x="141" y="64" on="1"/>
        <pt x="141" y="99" on="0"/>
        <pt x="141" y="152" on="0"/>
        <pt x="142" y="199" on="0"/>
        <pt x="142" y="245" on="0"/>
        <pt x="143" y="302" on="0"/>
        <pt x="143" y="375" on="0"/>
        <pt x="143" y="425" on="1"/>
        <pt x="143" y="481" on="0"/>
        <pt x="141" y="571" on="0"/>
        <pt x="139" y="648" on="0"/>
        <pt x="137" y="716" on="0"/>
        <pt x="137" y="750" on="1"/>
        <pt x="137" y="765" on="0"/>
        <pt x="122" y="780" on="0"/>
        <pt x="99" y="788" on="0"/>
        <pt x="74" y="789" on="0"/>
        <pt x="64" y="789" on="1"/>
        <pt x="47" y="789" on="0"/>
        <pt x="24" y="793" on="0"/>
        <pt x="24" y="804" on="1"/>
        <pt x="24" y="815" on="0"/>
        <pt x="50" y="821" on="0"/>
        <pt x="65" y="821" on="1"/>
        <pt x="98" y="821" on="0"/>
        <pt x="168" y="820" on="0"/>
        <pt x="232" y="820" on="0"/>
        <pt x="287" y="819" on="0"/>
        <pt x="306" y="819" on="1"/>
        <pt x="343" y="819" on="0"/>
        <pt x="390" y="820" on="0"/>
        <pt x="435" y="820" on="0"/>
        <pt x="489" y="821" on="0"/>
        <pt x="533" y="821" on="1"/>
        <pt x="547" y="821" on="0"/>
        <pt x="561" y="806" on="0"/>
        <pt x="561" y="785" on="1"/>
        <pt x="561" y="651" on="1"/>
        <pt x="561" y="632" on="0"/>
        <pt x="555" y="605" on="0"/>
        <pt x="544" y="605" on="1"/>
        <pt x="529" y="605" on="0"/>
        <pt x="524" y="631" on="0"/>
        <pt x="524" y="645" on="1"/>
        <pt x="524" y="757" on="1"/>
        <pt x="524" y="776" on="0"/>
        <pt x="497" y="785" on="0"/>
        <pt x="487" y="785" on="1"/>
        <pt x="184" y="785" on="1"/>
        <pt x="184" y="440" on="1"/>
        <pt x="213" y="439" on="0"/>
        <pt x="269" y="437" on="0"/>
        <pt x="298" y="437" on="1"/>
        <pt x="312" y="437" on="0"/>
        <pt x="346" y="438" on="0"/>
        <pt x="377" y="439" on="0"/>
        <pt x="401" y="440" on="0"/>
        <pt x="406" y="440" on="1"/>
        <pt x="412" y="440" on="0"/>
        <pt x="419" y="461" on="0"/>
        <pt x="422" y="490" on="0"/>
        <pt x="423" y="521" on="0"/>
        <pt x="423" y="530" on="1"/>
        <pt x="423" y="531" on="0"/>
        <pt x="424" y="541" on="0"/>
        <pt x="427" y="552" on="0"/>
        <pt x="434" y="560" on="0"/>
        <pt x="440" y="560" on="1"/>
        <pt x="452" y="560" on="0"/>
        <pt x="457" y="544" on="0"/>
        <pt x="457" y="533" on="1"/>
        <pt x="457" y="504" on="0"/>
        <pt x="455" y="449" on="0"/>
        <pt x="455" y="420" on="1"/>
        <pt x="455" y="391" on="0"/>
        <pt x="457" y="335" on="0"/>
        <pt x="457" y="307" on="1"/>
        <pt x="457" y="290" on="0"/>
        <pt x="446" y="280" on="0"/>
        <pt x="442" y="280" on="1"/>
        <pt x="435" y="280" on="0"/>
        <pt x="425" y="296" on="0"/>
        <pt x="425" y="309" on="1"/>
        <pt x="425" y="322" on="0"/>
        <pt x="421" y="355" on="0"/>
        <pt x="411" y="383" on="0"/>
        <pt x="392" y="402" on="0"/>
        <pt x="377" y="402" on="1"/>
        <pt x="363" y="402" on="0"/>
        <pt x="327" y="403" on="0"/>
        <pt x="298" y="403" on="1"/>
        <pt x="269" y="403" on="0"/>
        <pt x="213" y="402" on="0"/>
        <pt x="184" y="401" on="1"/>
        <pt x="184" y="36" on="1"/>
        <pt x="513" y="36" on="1"/>
        <pt x="520" y="36" on="0"/>
        <pt x="535" y="38" on="0"/>
        <pt x="547" y="45" on="0"/>
        <pt x="555" y="60" on="0"/>
        <pt x="556" y="73" on="1"/>
        <pt x="557" y="86" on="0"/>
        <pt x="561" y="137" on="0"/>
        <pt x="565" y="195" on="0"/>
        <pt x="568" y="252" on="0"/>
        <pt x="569" y="273" on="1"/>
        <pt x="570" y="293" on="0"/>
        <pt x="581" y="310" on="0"/>
      </contour>
      <contour>
        <pt x="146" y="903" on="1"/>
        <pt x="146" y="914" on="0"/>
        <pt x="175" y="931" on="1"/>
        <pt x="206" y="949" on="0"/>
        <pt x="243" y="949" on="1"/>
        <pt x="258" y="949" on="0"/>
        <pt x="293" y="940" on="0"/>
        <pt x="329" y="930" on="0"/>
        <pt x="365" y="921" on="0"/>
        <pt x="380" y="921" on="1"/>
        <pt x="406" y="921" on="0"/>
        <pt x="440" y="938" on="1"/>
        <pt x="454" y="946" on="0"/>
        <pt x="465" y="951" on="0"/>
        <pt x="470" y="951" on="1"/>
        <pt x="475" y="951" on="0"/>
        <pt x="483" y="941" on="0"/>
        <pt x="483" y="934" on="1"/>
        <pt x="483" y="925" on="0"/>
        <pt x="467" y="909" on="0"/>
        <pt x="439" y="896" on="0"/>
        <pt x="402" y="889" on="0"/>
        <pt x="381" y="889" on="1"/>
        <pt x="362" y="889" on="0"/>
        <pt x="325" y="896" on="0"/>
        <pt x="290" y="905" on="0"/>
        <pt x="258" y="913" on="0"/>
        <pt x="244" y="913" on="1"/>
        <pt x="229" y="913" on="0"/>
        <pt x="203" y="905" on="0"/>
        <pt x="181" y="896" on="0"/>
        <pt x="165" y="888" on="0"/>
        <pt x="160" y="888" on="1"/>
        <pt x="155" y="888" on="0"/>
        <pt x="146" y="898" on="0"/>
      </contour>
    </TTGlyph>
    <TTGlyph name="Euro" xMin="32" yMin="-14" xMax="580" yMax="838">
      <contour>
        <pt x="577" y="166" on="1"/>
        <pt x="577" y="134" on="0"/>
        <pt x="554" y="70" on="0"/>
        <pt x="503" y="19" on="0"/>
        <pt x="421" y="-14" on="0"/>
        <pt x="361" y="-14" on="1"/>
        <pt x="316" y="-14" on="0"/>
        <pt x="233" y="18" on="0"/>
        <pt x="166" y="87" on="0"/>
        <pt x="118" y="194" on="0"/>
        <pt x="106" y="269" on="1"/>
        <pt x="48" y="269" on="1"/>
        <pt x="41" y="269" on="0"/>
        <pt x="32" y="281" on="0"/>
        <pt x="32" y="286" on="1"/>
        <pt x="32" y="291" on="0"/>
        <pt x="40" y="302" on="0"/>
        <pt x="48" y="302" on="1"/>
        <pt x="56" y="302" on="0"/>
        <pt x="84" y="301" on="0"/>
        <pt x="101" y="301" on="1"/>
        <pt x="99" y="325" on="0"/>
        <pt x="96" y="376" on="0"/>
        <pt x="96" y="405" on="1"/>
        <pt x="96" y="435" on="1"/>
        <pt x="48" y="435" on="1"/>
        <pt x="41" y="435" on="0"/>
        <pt x="32" y="447" on="0"/>
        <pt x="32" y="452" on="1"/>
        <pt x="32" y="457" on="0"/>
        <pt x="40" y="468" on="0"/>
        <pt x="48" y="468" on="1"/>
        <pt x="55" y="468" on="0"/>
        <pt x="82" y="467" on="0"/>
        <pt x="98" y="467" on="1"/>
        <pt x="104" y="546" on="0"/>
        <pt x="149" y="682" on="0"/>
        <pt x="220" y="782" on="0"/>
        <pt x="316" y="838" on="0"/>
        <pt x="374" y="838" on="1"/>
        <pt x="410" y="838" on="0"/>
        <pt x="483" y="815" on="0"/>
        <pt x="543" y="759" on="0"/>
        <pt x="580" y="665" on="0"/>
        <pt x="580" y="595" on="1"/>
        <pt x="580" y="581" on="0"/>
        <pt x="574" y="561" on="0"/>
        <pt x="561" y="561" on="1"/>
        <pt x="547" y="561" on="0"/>
        <pt x="540" y="598" on="0"/>
        <pt x="540" y="620" on="1"/>
        <pt x="540" y="660" on="0"/>
        <pt x="519" y="729" on="0"/>
        <pt x="478" y="779" on="0"/>
        <pt x="416" y="807" on="0"/>
        <pt x="375" y="807" on="1"/>
        <pt x="322" y="807" on="0"/>
        <pt x="240" y="752" on="0"/>
        <pt x="182" y="658" on="0"/>
        <pt x="148" y="535" on="0"/>
        <pt x="143" y="466" on="1"/>
        <pt x="169" y="466" on="1"/>
        <pt x="211" y="466" on="0"/>
        <pt x="293" y="469" on="0"/>
        <pt x="317" y="469" on="1"/>
        <pt x="321" y="469" on="0"/>
        <pt x="328" y="460" on="0"/>
        <pt x="328" y="455" on="1"/>
        <pt x="328" y="450" on="0"/>
        <pt x="320" y="436" on="0"/>
        <pt x="309" y="436" on="1"/>
        <pt x="297" y="436" on="0"/>
        <pt x="259" y="436" on="0"/>
        <pt x="214" y="435" on="0"/>
        <pt x="165" y="435" on="0"/>
        <pt x="141" y="435" on="1"/>
        <pt x="141" y="404" on="1"/>
        <pt x="141" y="377" on="0"/>
        <pt x="143" y="325" on="0"/>
        <pt x="146" y="300" on="1"/>
        <pt x="169" y="300" on="1"/>
        <pt x="211" y="300" on="0"/>
        <pt x="293" y="303" on="0"/>
        <pt x="317" y="303" on="1"/>
        <pt x="321" y="303" on="0"/>
        <pt x="328" y="294" on="0"/>
        <pt x="328" y="289" on="1"/>
        <pt x="328" y="284" on="0"/>
        <pt x="320" y="270" on="0"/>
        <pt x="309" y="270" on="1"/>
        <pt x="297" y="270" on="0"/>
        <pt x="262" y="270" on="0"/>
        <pt x="219" y="269" on="0"/>
        <pt x="172" y="269" on="0"/>
        <pt x="150" y="269" on="1"/>
        <pt x="158" y="214" on="0"/>
        <pt x="191" y="122" on="0"/>
        <pt x="244" y="55" on="0"/>
        <pt x="319" y="18" on="0"/>
        <pt x="369" y="18" on="1"/>
        <pt x="402" y="18" on="0"/>
        <pt x="459" y="29" on="0"/>
        <pt x="504" y="59" on="0"/>
        <pt x="537" y="110" on="0"/>
        <pt x="546" y="149" on="1"/>
        <pt x="547" y="155" on="0"/>
        <pt x="549" y="171" on="0"/>
        <pt x="552" y="185" on="0"/>
        <pt x="558" y="195" on="0"/>
        <pt x="563" y="195" on="1"/>
        <pt x="577" y="195" on="0"/>
      </contour>
    </TTGlyph>
    <TTGlyph name="F" xMin="21" yMin="0" xMax="561" yMax="821">
      <contour>
        <pt x="140" y="72" on="1"/>
        <pt x="142" y="177" on="0"/>
        <pt x="144" y="384" on="0"/>
        <pt x="144" y="489" on="1"/>
        <pt x="144" y="526" on="0"/>
        <pt x="142" y="590" on="0"/>
        <pt x="140" y="651" on="0"/>
        <pt x="138" y="714" on="0"/>
        <pt x="138" y="752" on="1"/>
        <pt x="138" y="772" on="0"/>
        <pt x="100" y="791" on="0"/>
        <pt x="46" y="791" on="1"/>
        <pt x="32" y="791" on="0"/>
        <pt x="24" y="801" on="0"/>
        <pt x="24" y="806" on="1"/>
        <pt x="24" y="817" on="0"/>
        <pt x="48" y="821" on="0"/>
        <pt x="62" y="821" on="1"/>
        <pt x="126" y="821" on="0"/>
        <pt x="253" y="819" on="0"/>
        <pt x="317" y="819" on="1"/>
        <pt x="370" y="819" on="0"/>
        <pt x="474" y="821" on="0"/>
        <pt x="527" y="821" on="1"/>
        <pt x="548" y="821" on="0"/>
        <pt x="561" y="799" on="0"/>
        <pt x="561" y="773" on="1"/>
        <pt x="561" y="651" on="1"/>
        <pt x="561" y="645" on="0"/>
        <pt x="560" y="629" on="0"/>
        <pt x="557" y="615" on="0"/>
        <pt x="550" y="605" on="0"/>
        <pt x="544" y="605" on="1"/>
        <pt x="530" y="605" on="0"/>
        <pt x="524" y="633" on="0"/>
        <pt x="524" y="651" on="1"/>
        <pt x="524" y="744" on="1"/>
        <pt x="524" y="773" on="0"/>
        <pt x="505" y="785" on="0"/>
        <pt x="485" y="785" on="1"/>
        <pt x="184" y="785" on="1"/>
        <pt x="184" y="440" on="1"/>
        <pt x="213" y="438" on="0"/>
        <pt x="268" y="438" on="0"/>
        <pt x="296" y="438" on="1"/>
        <pt x="310" y="438" on="0"/>
        <pt x="346" y="439" on="0"/>
        <pt x="379" y="439" on="0"/>
        <pt x="405" y="440" on="0"/>
        <pt x="409" y="440" on="1"/>
        <pt x="414" y="440" on="0"/>
        <pt x="420" y="459" on="0"/>
        <pt x="423" y="484" on="0"/>
        <pt x="423" y="508" on="0"/>
        <pt x="423" y="513" on="1"/>
        <pt x="423" y="533" on="0"/>
        <pt x="428" y="560" on="0"/>
        <pt x="442" y="560" on="1"/>
        <pt x="453" y="560" on="0"/>
        <pt x="457" y="529" on="0"/>
        <pt x="457" y="513" on="1"/>
        <pt x="457" y="488" on="0"/>
        <pt x="455" y="440" on="0"/>
        <pt x="455" y="415" on="1"/>
        <pt x="455" y="390" on="0"/>
        <pt x="457" y="341" on="0"/>
        <pt x="457" y="317" on="1"/>
        <pt x="457" y="296" on="0"/>
        <pt x="451" y="279" on="0"/>
        <pt x="442" y="279" on="1"/>
        <pt x="427" y="279" on="0"/>
        <pt x="425" y="307" on="1"/>
        <pt x="425" y="336" on="0"/>
        <pt x="416" y="373" on="0"/>
        <pt x="402" y="394" on="0"/>
        <pt x="387" y="402" on="0"/>
        <pt x="381" y="402" on="1"/>
        <pt x="361" y="403" on="0"/>
        <pt x="319" y="404" on="0"/>
        <pt x="299" y="404" on="1"/>
        <pt x="241" y="404" on="0"/>
        <pt x="184" y="401" on="1"/>
        <pt x="184" y="381" on="0"/>
        <pt x="184" y="330" on="0"/>
        <pt x="183" y="276" on="0"/>
        <pt x="183" y="225" on="0"/>
        <pt x="183" y="205" on="1"/>
        <pt x="183" y="185" on="0"/>
        <pt x="184" y="129" on="0"/>
        <pt x="185" y="76" on="0"/>
        <pt x="186" y="35" on="0"/>
        <pt x="186" y="30" on="1"/>
        <pt x="303" y="30" on="1"/>
        <pt x="314" y="30" on="0"/>
        <pt x="329" y="21" on="0"/>
        <pt x="329" y="11" on="1"/>
        <pt x="329" y="0" on="0"/>
        <pt x="309" y="0" on="1"/>
        <pt x="64" y="0" on="1"/>
        <pt x="51" y="0" on="0"/>
        <pt x="21" y="3" on="0"/>
        <pt x="21" y="13" on="1"/>
        <pt x="21" y="28" on="0"/>
        <pt x="49" y="28" on="1"/>
        <pt x="92" y="28" on="0"/>
        <pt x="139" y="41" on="0"/>
      </contour>
    </TTGlyph>
    <TTGlyph name="G" xMin="41" yMin="-14" xMax="579" yMax="838">
      <contour>
        <pt x="516" y="269" on="1"/>
        <pt x="466" y="269" on="0"/>
        <pt x="365" y="262" on="0"/>
        <pt x="311" y="262" on="1"/>
        <pt x="290" y="262" on="0"/>
        <pt x="273" y="272" on="0"/>
        <pt x="273" y="278" on="1"/>
        <pt x="273" y="288" on="0"/>
        <pt x="307" y="294" on="0"/>
        <pt x="324" y="295" on="1"/>
        <pt x="386" y="298" on="0"/>
        <pt x="495" y="304" on="0"/>
        <pt x="549" y="306" on="1"/>
        <pt x="561" y="306" on="0"/>
        <pt x="579" y="291" on="0"/>
        <pt x="579" y="273" on="1"/>
        <pt x="579" y="256" on="0"/>
        <pt x="577" y="200" on="0"/>
        <pt x="577" y="164" on="1"/>
        <pt x="577" y="119" on="0"/>
        <pt x="579" y="51" on="0"/>
        <pt x="579" y="33" on="1"/>
        <pt x="579" y="22" on="0"/>
        <pt x="568" y="12" on="0"/>
        <pt x="563" y="12" on="1"/>
        <pt x="546" y="12" on="0"/>
        <pt x="546" y="34" on="1"/>
        <pt x="546" y="51" on="0"/>
        <pt x="548" y="96" on="0"/>
        <pt x="548" y="103" on="1"/>
        <pt x="531" y="71" on="0"/>
        <pt x="483" y="27" on="0"/>
        <pt x="428" y="-1" on="0"/>
        <pt x="368" y="-14" on="0"/>
        <pt x="339" y="-14" on="1"/>
        <pt x="286" y="-14" on="0"/>
        <pt x="179" y="29" on="0"/>
        <pt x="94" y="128" on="0"/>
        <pt x="41" y="288" on="0"/>
        <pt x="41" y="404" on="1"/>
        <pt x="41" y="491" on="0"/>
        <pt x="87" y="649" on="0"/>
        <pt x="169" y="768" on="0"/>
        <pt x="285" y="838" on="0"/>
        <pt x="354" y="838" on="1"/>
        <pt x="408" y="838" on="0"/>
        <pt x="509" y="775" on="0"/>
        <pt x="537" y="702" on="1"/>
        <pt x="532" y="791" on="1"/>
        <pt x="532" y="801" on="0"/>
        <pt x="542" y="813" on="0"/>
        <pt x="549" y="813" on="1"/>
        <pt x="557" y="813" on="0"/>
        <pt x="571" y="802" on="0"/>
        <pt x="571" y="790" on="1"/>
        <pt x="571" y="749" on="0"/>
        <pt x="567" y="688" on="0"/>
        <pt x="567" y="648" on="1"/>
        <pt x="567" y="622" on="0"/>
        <pt x="569" y="556" on="0"/>
        <pt x="569" y="530" on="1"/>
        <pt x="569" y="502" on="0"/>
        <pt x="565" y="474" on="0"/>
        <pt x="551" y="474" on="1"/>
        <pt x="543" y="474" on="0"/>
        <pt x="534" y="485" on="0"/>
        <pt x="530" y="502" on="0"/>
        <pt x="529" y="520" on="0"/>
        <pt x="529" y="527" on="1"/>
        <pt x="529" y="589" on="0"/>
        <pt x="509" y="692" on="0"/>
        <pt x="465" y="766" on="0"/>
        <pt x="395" y="807" on="0"/>
        <pt x="345" y="807" on="1"/>
        <pt x="292" y="807" on="0"/>
        <pt x="198" y="743" on="0"/>
        <pt x="127" y="634" on="0"/>
        <pt x="86" y="487" on="0"/>
        <pt x="86" y="404" on="1"/>
        <pt x="86" y="333" on="0"/>
        <pt x="114" y="195" on="0"/>
        <pt x="175" y="86" on="0"/>
        <pt x="275" y="19" on="0"/>
        <pt x="347" y="19" on="1"/>
        <pt x="384" y="19" on="0"/>
        <pt x="454" y="43" on="0"/>
        <pt x="508" y="93" on="0"/>
        <pt x="541" y="171" on="0"/>
        <pt x="541" y="225" on="1"/>
        <pt x="541" y="251" on="0"/>
        <pt x="535" y="269" on="0"/>
      </contour>
    </TTGlyph>
    <TTGlyph name="Gbreve" xMin="41" yMin="-14" xMax="579" yMax="972">
      <contour>
        <pt x="460" y="948" on="1"/>
        <pt x="460" y="930" on="0"/>
        <pt x="440" y="902" on="0"/>
        <pt x="408" y="884" on="0"/>
        <pt x="368" y="875" on="0"/>
        <pt x="349" y="875" on="1"/>
        <pt x="304" y="875" on="0"/>
        <pt x="241" y="918" on="0"/>
        <pt x="241" y="948" on="1"/>
        <pt x="241" y="972" on="0"/>
        <pt x="258" y="972" on="1"/>
        <pt x="269" y="972" on="0"/>
        <pt x="275" y="961" on="0"/>
        <pt x="275" y="949" on="1"/>
        <pt x="275" y="934" on="0"/>
        <pt x="287" y="914" on="0"/>
        <pt x="308" y="904" on="0"/>
        <pt x="335" y="900" on="0"/>
        <pt x="349" y="900" on="1"/>
        <pt x="362" y="900" on="0"/>
        <pt x="389" y="908" on="0"/>
        <pt x="411" y="921" on="0"/>
        <pt x="424" y="939" on="0"/>
        <pt x="424" y="949" on="1"/>
        <pt x="424" y="972" on="0"/>
        <pt x="441" y="972" on="1"/>
        <pt x="449" y="972" on="0"/>
        <pt x="460" y="964" on="0"/>
      </contour>
      <contour>
        <pt x="516" y="269" on="1"/>
        <pt x="466" y="269" on="0"/>
        <pt x="365" y="262" on="0"/>
        <pt x="311" y="262" on="1"/>
        <pt x="290" y="262" on="0"/>
        <pt x="273" y="272" on="0"/>
        <pt x="273" y="278" on="1"/>
        <pt x="273" y="288" on="0"/>
        <pt x="307" y="294" on="0"/>
        <pt x="324" y="295" on="1"/>
        <pt x="386" y="298" on="0"/>
        <pt x="495" y="304" on="0"/>
        <pt x="549" y="306" on="1"/>
        <pt x="561" y="306" on="0"/>
        <pt x="579" y="291" on="0"/>
        <pt x="579" y="273" on="1"/>
        <pt x="579" y="256" on="0"/>
        <pt x="577" y="200" on="0"/>
        <pt x="577" y="164" on="1"/>
        <pt x="577" y="119" on="0"/>
        <pt x="579" y="51" on="0"/>
        <pt x="579" y="33" on="1"/>
        <pt x="579" y="22" on="0"/>
        <pt x="568" y="12" on="0"/>
        <pt x="563" y="12" on="1"/>
        <pt x="546" y="12" on="0"/>
        <pt x="546" y="34" on="1"/>
        <pt x="546" y="51" on="0"/>
        <pt x="548" y="96" on="0"/>
        <pt x="548" y="103" on="1"/>
        <pt x="531" y="71" on="0"/>
        <pt x="483" y="27" on="0"/>
        <pt x="428" y="-1" on="0"/>
        <pt x="368" y="-14" on="0"/>
        <pt x="339" y="-14" on="1"/>
        <pt x="286" y="-14" on="0"/>
        <pt x="179" y="29" on="0"/>
        <pt x="94" y="128" on="0"/>
        <pt x="41" y="288" on="0"/>
        <pt x="41" y="404" on="1"/>
        <pt x="41" y="491" on="0"/>
        <pt x="87" y="649" on="0"/>
        <pt x="169" y="768" on="0"/>
        <pt x="285" y="838" on="0"/>
        <pt x="354" y="838" on="1"/>
        <pt x="408" y="838" on="0"/>
        <pt x="509" y="775" on="0"/>
        <pt x="537" y="702" on="1"/>
        <pt x="532" y="791" on="1"/>
        <pt x="532" y="801" on="0"/>
        <pt x="542" y="813" on="0"/>
        <pt x="549" y="813" on="1"/>
        <pt x="557" y="813" on="0"/>
        <pt x="571" y="802" on="0"/>
        <pt x="571" y="790" on="1"/>
        <pt x="571" y="749" on="0"/>
        <pt x="567" y="688" on="0"/>
        <pt x="567" y="648" on="1"/>
        <pt x="567" y="622" on="0"/>
        <pt x="569" y="556" on="0"/>
        <pt x="569" y="530" on="1"/>
        <pt x="569" y="502" on="0"/>
        <pt x="565" y="474" on="0"/>
        <pt x="551" y="474" on="1"/>
        <pt x="543" y="474" on="0"/>
        <pt x="534" y="485" on="0"/>
        <pt x="530" y="502" on="0"/>
        <pt x="529" y="520" on="0"/>
        <pt x="529" y="527" on="1"/>
        <pt x="529" y="589" on="0"/>
        <pt x="509" y="692" on="0"/>
        <pt x="465" y="766" on="0"/>
        <pt x="395" y="807" on="0"/>
        <pt x="345" y="807" on="1"/>
        <pt x="292" y="807" on="0"/>
        <pt x="198" y="743" on="0"/>
        <pt x="127" y="634" on="0"/>
        <pt x="86" y="487" on="0"/>
        <pt x="86" y="404" on="1"/>
        <pt x="86" y="333" on="0"/>
        <pt x="114" y="195" on="0"/>
        <pt x="175" y="86" on="0"/>
        <pt x="275" y="19" on="0"/>
        <pt x="347" y="19" on="1"/>
        <pt x="384" y="19" on="0"/>
        <pt x="454" y="43" on="0"/>
        <pt x="508" y="93" on="0"/>
        <pt x="541" y="171" on="0"/>
        <pt x="541" y="225" on="1"/>
        <pt x="541" y="251" on="0"/>
        <pt x="535" y="269" on="0"/>
      </contour>
    </TTGlyph>
    <TTGlyph name="Gcircumflex" xMin="41" yMin="-14" xMax="579" yMax="972">
      <contour>
        <pt x="466" y="875" on="1"/>
        <pt x="461" y="875" on="0"/>
        <pt x="438" y="885" on="0"/>
        <pt x="406" y="901" on="0"/>
        <pt x="367" y="919" on="0"/>
        <pt x="346" y="928" on="1"/>
        <pt x="325" y="919" on="0"/>
        <pt x="286" y="901" on="0"/>
        <pt x="255" y="885" on="0"/>
        <pt x="232" y="875" on="0"/>
        <pt x="227" y="875" on="1"/>
        <pt x="219" y="875" on="0"/>
        <pt x="219" y="886" on="1"/>
        <pt x="219" y="895" on="0"/>
        <pt x="252" y="925" on="0"/>
        <pt x="296" y="952" on="0"/>
        <pt x="337" y="972" on="0"/>
        <pt x="346" y="972" on="1"/>
        <pt x="355" y="972" on="0"/>
        <pt x="398" y="952" on="0"/>
        <pt x="441" y="925" on="0"/>
        <pt x="474" y="895" on="0"/>
        <pt x="474" y="886" on="1"/>
        <pt x="474" y="875" on="0"/>
      </contour>
      <contour>
        <pt x="516" y="269" on="1"/>
        <pt x="466" y="269" on="0"/>
        <pt x="365" y="262" on="0"/>
        <pt x="311" y="262" on="1"/>
        <pt x="290" y="262" on="0"/>
        <pt x="273" y="272" on="0"/>
        <pt x="273" y="278" on="1"/>
        <pt x="273" y="288" on="0"/>
        <pt x="307" y="294" on="0"/>
        <pt x="324" y="295" on="1"/>
        <pt x="386" y="298" on="0"/>
        <pt x="495" y="304" on="0"/>
        <pt x="549" y="306" on="1"/>
        <pt x="561" y="306" on="0"/>
        <pt x="579" y="291" on="0"/>
        <pt x="579" y="273" on="1"/>
        <pt x="579" y="256" on="0"/>
        <pt x="577" y="200" on="0"/>
        <pt x="577" y="164" on="1"/>
        <pt x="577" y="119" on="0"/>
        <pt x="579" y="51" on="0"/>
        <pt x="579" y="33" on="1"/>
        <pt x="579" y="22" on="0"/>
        <pt x="568" y="12" on="0"/>
        <pt x="563" y="12" on="1"/>
        <pt x="546" y="12" on="0"/>
        <pt x="546" y="34" on="1"/>
        <pt x="546" y="51" on="0"/>
        <pt x="548" y="96" on="0"/>
        <pt x="548" y="103" on="1"/>
        <pt x="531" y="71" on="0"/>
        <pt x="483" y="27" on="0"/>
        <pt x="428" y="-1" on="0"/>
        <pt x="368" y="-14" on="0"/>
        <pt x="339" y="-14" on="1"/>
        <pt x="286" y="-14" on="0"/>
        <pt x="179" y="29" on="0"/>
        <pt x="94" y="128" on="0"/>
        <pt x="41" y="288" on="0"/>
        <pt x="41" y="404" on="1"/>
        <pt x="41" y="491" on="0"/>
        <pt x="87" y="649" on="0"/>
        <pt x="169" y="768" on="0"/>
        <pt x="285" y="838" on="0"/>
        <pt x="354" y="838" on="1"/>
        <pt x="408" y="838" on="0"/>
        <pt x="509" y="775" on="0"/>
        <pt x="537" y="702" on="1"/>
        <pt x="532" y="791" on="1"/>
        <pt x="532" y="801" on="0"/>
        <pt x="542" y="813" on="0"/>
        <pt x="549" y="813" on="1"/>
        <pt x="557" y="813" on="0"/>
        <pt x="571" y="802" on="0"/>
        <pt x="571" y="790" on="1"/>
        <pt x="571" y="749" on="0"/>
        <pt x="567" y="688" on="0"/>
        <pt x="567" y="648" on="1"/>
        <pt x="567" y="622" on="0"/>
        <pt x="569" y="556" on="0"/>
        <pt x="569" y="530" on="1"/>
        <pt x="569" y="502" on="0"/>
        <pt x="565" y="474" on="0"/>
        <pt x="551" y="474" on="1"/>
        <pt x="543" y="474" on="0"/>
        <pt x="534" y="485" on="0"/>
        <pt x="530" y="502" on="0"/>
        <pt x="529" y="520" on="0"/>
        <pt x="529" y="527" on="1"/>
        <pt x="529" y="589" on="0"/>
        <pt x="509" y="692" on="0"/>
        <pt x="465" y="766" on="0"/>
        <pt x="395" y="807" on="0"/>
        <pt x="345" y="807" on="1"/>
        <pt x="292" y="807" on="0"/>
        <pt x="198" y="743" on="0"/>
        <pt x="127" y="634" on="0"/>
        <pt x="86" y="487" on="0"/>
        <pt x="86" y="404" on="1"/>
        <pt x="86" y="333" on="0"/>
        <pt x="114" y="195" on="0"/>
        <pt x="175" y="86" on="0"/>
        <pt x="275" y="19" on="0"/>
        <pt x="347" y="19" on="1"/>
        <pt x="384" y="19" on="0"/>
        <pt x="454" y="43" on="0"/>
        <pt x="508" y="93" on="0"/>
        <pt x="541" y="171" on="0"/>
        <pt x="541" y="225" on="1"/>
        <pt x="541" y="251" on="0"/>
        <pt x="535" y="269" on="0"/>
      </contour>
    </TTGlyph>
    <TTGlyph name="Gcommaaccent" xMin="42" yMin="-202" xMax="580" yMax="838">
      <contour>
        <pt x="517" y="269" on="1"/>
        <pt x="467" y="269" on="0"/>
        <pt x="366" y="262" on="0"/>
        <pt x="312" y="262" on="1"/>
        <pt x="291" y="262" on="0"/>
        <pt x="274" y="272" on="0"/>
        <pt x="274" y="278" on="1"/>
        <pt x="274" y="288" on="0"/>
        <pt x="308" y="294" on="0"/>
        <pt x="325" y="295" on="1"/>
        <pt x="387" y="298" on="0"/>
        <pt x="496" y="304" on="0"/>
        <pt x="550" y="306" on="1"/>
        <pt x="562" y="306" on="0"/>
        <pt x="580" y="291" on="0"/>
        <pt x="580" y="273" on="1"/>
        <pt x="580" y="256" on="0"/>
        <pt x="578" y="200" on="0"/>
        <pt x="578" y="164" on="1"/>
        <pt x="578" y="119" on="0"/>
        <pt x="580" y="51" on="0"/>
        <pt x="580" y="33" on="1"/>
        <pt x="580" y="22" on="0"/>
        <pt x="569" y="12" on="0"/>
        <pt x="564" y="12" on="1"/>
        <pt x="547" y="12" on="0"/>
        <pt x="547" y="34" on="1"/>
        <pt x="547" y="51" on="0"/>
        <pt x="549" y="96" on="0"/>
        <pt x="549" y="103" on="1"/>
        <pt x="532" y="71" on="0"/>
        <pt x="484" y="27" on="0"/>
        <pt x="429" y="-1" on="0"/>
        <pt x="369" y="-14" on="0"/>
        <pt x="340" y="-14" on="1"/>
        <pt x="287" y="-14" on="0"/>
        <pt x="180" y="29" on="0"/>
        <pt x="95" y="128" on="0"/>
        <pt x="42" y="288" on="0"/>
        <pt x="42" y="404" on="1"/>
        <pt x="42" y="491" on="0"/>
        <pt x="88" y="649" on="0"/>
        <pt x="170" y="768" on="0"/>
        <pt x="286" y="838" on="0"/>
        <pt x="355" y="838" on="1"/>
        <pt x="409" y="838" on="0"/>
        <pt x="510" y="775" on="0"/>
        <pt x="538" y="702" on="1"/>
        <pt x="533" y="791" on="1"/>
        <pt x="533" y="801" on="0"/>
        <pt x="543" y="813" on="0"/>
        <pt x="550" y="813" on="1"/>
        <pt x="558" y="813" on="0"/>
        <pt x="572" y="802" on="0"/>
        <pt x="572" y="790" on="1"/>
        <pt x="572" y="749" on="0"/>
        <pt x="568" y="688" on="0"/>
        <pt x="568" y="648" on="1"/>
        <pt x="568" y="622" on="0"/>
        <pt x="570" y="556" on="0"/>
        <pt x="570" y="530" on="1"/>
        <pt x="570" y="502" on="0"/>
        <pt x="566" y="474" on="0"/>
        <pt x="552" y="474" on="1"/>
        <pt x="544" y="474" on="0"/>
        <pt x="535" y="485" on="0"/>
        <pt x="531" y="502" on="0"/>
        <pt x="530" y="520" on="0"/>
        <pt x="530" y="527" on="1"/>
        <pt x="530" y="589" on="0"/>
        <pt x="510" y="692" on="0"/>
        <pt x="466" y="766" on="0"/>
        <pt x="396" y="807" on="0"/>
        <pt x="346" y="807" on="1"/>
        <pt x="293" y="807" on="0"/>
        <pt x="199" y="743" on="0"/>
        <pt x="128" y="634" on="0"/>
        <pt x="87" y="487" on="0"/>
        <pt x="87" y="404" on="1"/>
        <pt x="87" y="333" on="0"/>
        <pt x="115" y="195" on="0"/>
        <pt x="176" y="86" on="0"/>
        <pt x="276" y="19" on="0"/>
        <pt x="348" y="19" on="1"/>
        <pt x="385" y="19" on="0"/>
        <pt x="455" y="43" on="0"/>
        <pt x="509" y="93" on="0"/>
        <pt x="542" y="171" on="0"/>
        <pt x="542" y="225" on="1"/>
        <pt x="542" y="251" on="0"/>
        <pt x="536" y="269" on="0"/>
      </contour>
      <contour>
        <pt x="305" y="-100" on="1"/>
        <pt x="305" y="-87" on="0"/>
        <pt x="325" y="-66" on="0"/>
        <pt x="345" y="-66" on="1"/>
        <pt x="360" y="-66" on="0"/>
        <pt x="387" y="-89" on="0"/>
        <pt x="387" y="-123" on="1"/>
        <pt x="387" y="-133" on="0"/>
        <pt x="381" y="-160" on="0"/>
        <pt x="371" y="-185" on="0"/>
        <pt x="354" y="-202" on="0"/>
        <pt x="344" y="-202" on="1"/>
        <pt x="339" y="-202" on="0"/>
        <pt x="330" y="-195" on="0"/>
        <pt x="330" y="-190" on="1"/>
        <pt x="330" y="-183" on="0"/>
        <pt x="341" y="-154" on="0"/>
        <pt x="341" y="-144" on="1"/>
        <pt x="341" y="-138" on="0"/>
        <pt x="330" y="-131" on="0"/>
        <pt x="316" y="-124" on="0"/>
        <pt x="305" y="-112" on="0"/>
      </contour>
    </TTGlyph>
</ttFont>
